<?xml version="1.0" standalone="no"?>
<!DOCTYPE svg PUBLIC "-//W3C//DTD SVG 1.1//EN" "http://www.w3.org/Graphics/SVG/1.1/DTD/svg11.dtd" >
<svg>
<metadata>
Created by FontForge 20090914 at Tue Dec 10 10:44:56 2019
 By www-data
(c) 2017 by Boutros International. All rights reserved.
</metadata>
<defs>
<font id="Tajawal-Regular" horiz-adv-x="0" >
  <font-face 
    font-family="Tajawal"
    font-weight="400"
    font-stretch="normal"
    units-per-em="1000"
    panose-1="0 0 5 0 0 0 0 0 0 0"
    ascent="643"
    descent="-357"
    x-height="454"
    cap-height="633"
    bbox="-93 -375.004 1402 995"
    underline-thickness="50"
    underline-position="-50"
    unicode-range="U+0020-U+FEFC"
  />
<missing-glyph horiz-adv-x="240" 
d="M24 0v633h192v-633h-192zM192 24v585h-144v-585h144z" />
    <glyph glyph-name="ff" unicode="ff" horiz-adv-x="671" 
d="M442 400h-269v-400h-66v400h-65v54h65v66c0 39.333 9.66699 70 29 92s46.666 33 81.999 33c36 0 70.333 -11.333 103 -34l-24 -37c-22 11.333 -43.667 17 -65 17c-39.333 0 -59 -24.667 -59 -74v-63h269v66c0 39.333 9.83301 70 29.5 92s46.834 33 81.501 33
c36.667 0 71 -11.333 103 -34l-23 -37c-22 11.333 -43.667 17 -65 17c-39.333 0 -59 -24.667 -59 -74v-63h113v-54h-113v-400h-67v400z" />
    <glyph glyph-name="fi" unicode="fi" horiz-adv-x="568" 
d="M418 400h-244.999v-400h-66v400h-65v54h65v66c0 39.333 9.66699 70 29 92s46.666 33 81.999 33c36 0 70.333 -11.333 103 -34l-24 -37c-22 11.333 -43.667 17 -65 17c-39.333 0 -59 -24.667 -59 -74v-63h312v-454h-67v400zM409.001 602c0 11.333 4.16699 21.333 12.5 30
s18.5 13 30.5 13s22.333 -4.33301 31 -13s13 -18.667 13 -30c0 -12.667 -4.16699 -23.167 -12.5 -31.5s-18.833 -12.5 -31.5 -12.5c-12 0 -22.167 4.16699 -30.5 12.5s-12.5 18.833 -12.5 31.5z" />
    <glyph glyph-name="fl" unicode="fl" horiz-adv-x="558" 
d="M42 454h65.001v66c0 39.333 9.66699 70 29 92s46.666 33 81.999 33c36 0 70.333 -11.333 103 -34l-24 -37c-22 11.333 -43.667 17 -65 17c-39.333 0 -59 -24.667 -59 -74v-63h114v-54h-114v-400h-66v400h-65v54zM480.001 645v-645h-66v609z" />
    <glyph glyph-name="ffi" unicode="ffi" horiz-adv-x="903" 
d="M442 400h-269v-400h-66v400h-65v54h65v66c0 39.333 9.66699 70 29 92s46.666 33 81.999 33c36 0 70.333 -11.333 103 -34l-24 -37c-22 11.333 -43.667 17 -65 17c-39.333 0 -59 -24.667 -59 -74v-63h269v66c0 39.333 9.83301 70 29.5 92s46.834 33 81.501 33
c36.667 0 71 -11.333 103 -34l-23 -37c-22 11.333 -43.667 17 -65 17c-39.333 0 -59 -24.667 -59 -74v-63h311v-454h-66v400h-245v-400h-67v400zM744 602c0 11.333 4.33301 21.333 13 30s19 13 31 13s22.333 -4.33301 31 -13s13 -18.667 13 -30
c0 -12.667 -4.33301 -23.167 -13 -31.5s-19 -12.5 -31 -12.5c-12.667 0 -23.167 4.16699 -31.5 12.5s-12.5 18.833 -12.5 31.5z" />
    <glyph glyph-name="uniFDF2" unicode="&#x627;&#xfedf;&#xfee0;&#xfeea;" horiz-adv-x="1382" arabic-form="isolated" 
d="M700 995v-126l-38 -21v126zM681 688c-10.667 -10 -24.6689 -15 -42.002 -15s-31.666 5.5 -42.999 16.5s-17 24.833 -17 41.5v25l38 21v-45c0 -14.667 7.66699 -22 23 -22c14.667 0 22 6.33301 22 19v40l38 21v-61c0 -12.667 7.33301 -19 22 -19s22 7.33301 22 22v47
l38 21v-69c0 -16.667 -5.66699 -30.5 -17 -41.5s-25.666 -16.5 -42.999 -16.5s-31 5 -41 15zM977.998 544l66.998 35v-400c0 -56.667 -16.667 -101.334 -50 -134.001c-31.333 -30 -72.666 -45 -123.999 -45h-55c-60 0 -105.667 21 -137 63
c-31.333 -42 -77.666 -63 -138.999 -63h-55c-70 0 -119.333 27.333 -148 82c-34.667 -36.667 -77.667 -55 -129 -55c-57.333 0 -102.666 21.667 -135.999 65c-28 36.667 -42 82.334 -42 137.001c0 64 18.667 115.333 56 154c32.667 33.333 73 50 121 50
c43.333 0 79.666 -12.667 108.999 -38v54l67 36v-309c0 -76 37 -114 111 -114h39c76 0 114 39.333 114 118v364l67 35v-403c0 -76 36.667 -114 110 -114h40c76 0 114 39.333 114 118v364zM315.996 320c-29.333 34.667 -65 52.001 -107 52.001
c-33.333 0 -60.5 -13.333 -81.5 -40s-31.5 -61.334 -31.5 -104.001c0 -43.333 10.5 -78 31.5 -104s48.5 -39 82.5 -39c44 0 80 18.667 108 56c-1.33301 14.667 -2 25.667 -2 33v146zM1225 0.000976562v610l67 35v-645h-67z" />
    <glyph glyph-name="uniFEF5" unicode="&#xfedf;&#xfe82;" horiz-adv-x="611" arabic-form="isolated" 
d="M455 610l66 35.001v-466c0 -56.667 -16.667 -101.334 -50 -134.001c-30.667 -30 -71.667 -45 -123 -45h-328l32 62h153v418l66 35v-453h70c76 0 114 39.333 114 118v430zM340 620.001c-20 -32 -42.001 -48 -66.001 -48c-15.333 0 -33.333 7 -54 21
c-14.667 10 -26 15 -34 15c-12 0 -25.667 -10.667 -41 -32l-26 19c20.667 32.667 42.667 49 66 49c13.333 0 29.333 -6.33301 48 -19c16 -11.333 29.333 -17 40 -17s24.334 10.333 41.001 31z" />
    <glyph glyph-name="uniFEF6" unicode="&#xfee0;&#xfe82;" horiz-adv-x="657" arabic-form="final" 
d="M632 62h34.999v-62h-43c-61.333 0 -107 21 -137 63c-31.333 -42 -77.666 -63 -138.999 -63h-328l32 62h153v418l66 35v-453h70c76 0 114 39.333 114 118v430l66 35v-218l1 1v-252c0 -76 36.667 -114 110 -114zM339.999 620c-20 -32 -42.001 -48 -66.001 -48
c-15.333 0 -33.333 7 -54 21c-14.667 10 -26 15 -34 15c-12 0 -25.667 -10.667 -41 -32l-26 19c20.667 32.667 42.667 49 66 49c13.333 0 29.333 -6.33301 48 -19c16 -11.333 29.333 -17 40 -17s24.334 10.333 41.001 31z" />
    <glyph glyph-name="uniFEF7" unicode="&#xfedf;&#xfe84;" horiz-adv-x="611" arabic-form="isolated" 
d="M313 633l-19 -36.002h-155l19 36h26c-6.66699 12 -10 24 -10 36c0 18.667 7 34.834 21 48.501s30.667 20.5 50 20.5c14.667 0 29 -4.33301 43 -13v-38c-13.333 10 -26.333 15 -39 15c-10.667 0 -19.667 -3.5 -27 -10.5s-11 -15.167 -11 -24.5
c0 -11.333 4.66699 -22.666 14 -33.999h88zM455 609.998l66 35.001v-466c0 -56.667 -16.667 -101.334 -50 -134.001c-30.667 -30 -71.667 -45 -123 -45h-328l32 62h153v418l66 35v-453h70c76 0 114 39.333 114 118v430z" />
    <glyph glyph-name="uniFEF8" unicode="&#xfee0;&#xfe84;" horiz-adv-x="657" arabic-form="final" 
d="M313 633l-19 -36.002h-155l19 36h26c-6.66699 12 -10 24 -10 36c0 18.667 7 34.834 21 48.501s30.667 20.5 50 20.5c14.667 0 29 -4.33301 43 -13v-38c-13.333 10 -26.333 15 -39 15c-10.667 0 -19.667 -3.5 -27 -10.5s-11 -15.167 -11 -24.5
c0 -11.333 4.66699 -22.666 14 -33.999h88zM632 61.998h34.999v-62h-43c-61.333 0 -107 21 -137 63c-31.333 -42 -77.666 -63 -138.999 -63h-328l32 62h153v418l66 35v-453h70c76 0 114 39.333 114 118v430l66 35v-218l1 1v-252c0 -76 36.667 -114 110 -114z" />
    <glyph glyph-name="uniFEF9" unicode="&#xfedf;&#xfe88;" horiz-adv-x="611" arabic-form="isolated" 
d="M455 610l66 35.001v-466c0 -56.667 -16.667 -101.334 -50 -134.001c-30.667 -30 -71.667 -45 -123 -45h-328l32 62h153v418l66 35v-453h70c76 0 114 39.333 114 118v430zM288 -135.999c-13.333 10 -26.333 14.998 -39 14.998c-10.667 0 -19.667 -3.5 -27 -10.5
s-11 -15.167 -11 -24.5c0 -11.333 4.66699 -22.666 14 -33.999h88l-19 -36h-155l19 36h26c-6.66699 12 -10 24 -10 36c0 18.667 7 34.834 21 48.501s30.667 20.5 50 20.5c14.667 0 29 -4.33301 43 -13v-38z" />
    <glyph glyph-name="uniFEFA" unicode="&#xfee0;&#xfe88;" horiz-adv-x="657" arabic-form="final" 
d="M632 62h34.999v-62h-43c-61.333 0 -107 21 -137 63c-31.333 -42 -77.666 -63 -138.999 -63h-328l32 62h153v418l66 35v-453h70c76 0 114 39.333 114 118v430l66 35v-218l1 1v-252c0 -76 36.667 -114 110 -114zM287.999 -136c-13.333 10 -26.333 14.998 -39 14.998
c-10.667 0 -19.667 -3.5 -27 -10.5s-11 -15.167 -11 -24.5c0 -11.333 4.66699 -22.666 14 -33.999h88l-19 -36h-155l19 36h26c-6.66699 12 -10 24 -10 36c0 18.667 7 34.834 21 48.501s30.667 20.5 50 20.5c14.667 0 29 -4.33301 43 -13v-38z" />
    <glyph glyph-name="uniFEFB" unicode="&#xfedf;&#xfe8e;" horiz-adv-x="611" arabic-form="isolated" 
d="M455 610l66 35.001v-466c0 -56.667 -16.667 -101.334 -50 -134.001c-30.667 -30 -71.667 -45 -123 -45h-328l32 62h153v418l66 35v-453h70c76 0 114 39.333 114 118v430z" />
    <glyph glyph-name="uniFEFC" unicode="&#xfee0;&#xfe8e;" horiz-adv-x="657" arabic-form="final" 
d="M632 62h34.999v-62h-43c-61.333 0 -107 21 -137 63c-31.333 -42 -77.666 -63 -138.999 -63h-328l32 62h153v418l66 35v-453h70c76 0 114 39.333 114 118v430l66 35v-218l1 1v-252c0 -76 36.667 -114 110 -114z" />
    <glyph glyph-name="uniFB57" unicode="&#x67e;" horiz-adv-x="914" arabic-form="final" 
d="M889 62h34.999v-62h-43c-60 -0 -105 20.333 -135 61c-31.333 -40.667 -77 -61 -137 -61h-357c-49.333 0 -88.666 15.5 -117.999 46.5s-44 72.833 -44 125.5v131l67 35v-158c0 -78.667 36.667 -118 110 -118h335c73.333 0 110 39.333 110 118v213l67 35v-252
c0 -76 36.667 -114 110 -114zM422.999 -147c0 -26.667 -13 -40 -39 -40c-27.333 0 -41 13.333 -41 40c0 28 13.667 42 41 42c26 0 39 -14 39 -42zM497.999 -105c26 0 39 -14 39 -42c0 -26.667 -13 -40 -39 -40c-27.333 0 -41 13.333 -41 40c0 28 13.667 42 41 42z
M439.999 -210c24 0 36 -12.333 36 -37s-12 -37 -36 -37c-24.667 0 -37 12.333 -37 37s12.333 37 37 37z" />
    <glyph glyph-name="uniFB58" unicode="&#x67e;" horiz-adv-x="292" arabic-form="initial" 
d="M-10 0v62h35c73.333 0 110 38 110 114v217l67 35v-254c0 -56 -16.333 -99.667 -49 -131c-30 -28.667 -70 -43 -120 -43h-43zM26 -187c-27.333 0 -41 13.667 -41 41s13.667 41 41 41c26 0 39 -13.667 39 -41s-13 -41 -39 -41zM140 -187c-27.333 0 -41 13.667 -41 41
s13.667 41 41 41c26 0 39 -13.667 39 -41s-13 -41 -39 -41zM82 -283c-24 0 -36 12 -36 36c0 25.333 12 38 36 38s36 -12.667 36 -38c0 -24 -12 -36 -36 -36z" />
    <glyph glyph-name="uniFB59" unicode="&#x67e;" horiz-adv-x="337" arabic-form="medial" 
d="M312 62h34.999v-62h-43c-60 -0 -105 20.333 -135 61c-31.333 -40.667 -76.666 -61 -135.999 -61h-43v62h35c73.333 0 110 38 110 114v217l67 35v-252c0 -76 36.667 -114 110 -114zM93.999 -146c0 -27.333 -13.333 -41 -40 -41s-40 13.667 -40 41s13.333 41 40 41
s40 -13.667 40 -41zM167.999 -105c26.667 0 40 -13.667 40 -41s-13.333 -41 -40 -41s-40 13.667 -40 41s13.333 41 40 41zM110.999 -209c23.333 0 35 -12.667 35 -38c0 -24 -11.667 -36 -35 -36c-24.667 0 -37 12 -37 36c0 25.333 12.333 38 37 38z" />
    <glyph glyph-name="uniFB6B" unicode="&#x6a4;" horiz-adv-x="955" arabic-form="final" 
d="M686 662c-24.667 0 -37 12.667 -37 38c0 24.667 12.333 37 37 37c24 0 36 -12.333 36 -37c0 -25.333 -12 -38 -36 -38zM630 558c-27.333 0 -41 14 -41 42c0 26.667 13.667 40 41 40c26 0 39 -13.333 39 -40c0 -28 -13 -42 -39 -42zM703 600c0 26.667 13.667 40 41 40
c26 0 39 -13.333 39 -40c0 -28 -13 -42 -39 -42c-27.333 0 -41 14 -41 42zM790 62h175.001v-62h-218c-22.667 -0 -43.334 2.33301 -62.001 7c-18.667 -4.66699 -39.334 -7 -62.001 -7h-371c-49.333 0 -88.666 15.5 -117.999 46.5s-44 72.833 -44 125.5v131l67 35v-158
c0 -78.667 36.667 -118 110 -118h313c-52 48 -78 105.667 -78 173c0 64.667 18 116 54 154c32.667 34 75.667 51 129 51c60.667 0 107.667 -22 141 -66c28 -36.667 42 -83 42 -139c0 -67.333 -26 -125 -78 -173zM689.001 71c34 12 61.668 33.332 83.001 63.999
s32 64.334 32 101.001c0 44 -10.667 78.833 -32 104.5s-50.333 38.5 -87 38.5s-65.834 -12.833 -87.501 -38.5s-32.5 -60.167 -32.5 -103.5c0 -36.667 10.833 -70.5 32.5 -101.5s49.5 -52.5 83.5 -64.5l4 -1l2 1h2z" />
    <glyph glyph-name="uniFB6C" unicode="&#x6a4;" horiz-adv-x="538" arabic-form="initial" 
d="M284 662c-24.667 0 -37 12.667 -37 38c0 24.667 12.333 37 37 37c24 0 36 -12.333 36 -37c0 -25.333 -12 -38 -36 -38zM228 558c-27.333 0 -41 14 -41 42c0 26.667 13.667 40 41 40c26 0 39 -13.333 39 -40c0 -28 -13 -42 -39 -42zM342 558c-27.333 0 -41 14 -41 42
c0 26.667 13.667 40 41 40c26 0 39 -13.333 39 -40c0 -28 -13 -42 -39 -42zM-10 0v61.999h170c-36.667 36.667 -55 89.334 -55 158.001c0 72 18.667 127.667 56 167c32.667 35.333 76 53 130 53c55.333 0 98 -17.333 128 -52c26 -30 39 -70 39 -120v-97
c-0.666992 -54 -17 -96.333 -49 -127c-29.333 -29.333 -69.333 -44 -120 -44h-299zM392 261.999c0 78 -33.667 117.001 -101 117.001c-37.333 0 -66.5 -13.833 -87.5 -41.5s-31.5 -66.5 -31.5 -116.5c0 -48.667 10.167 -87.334 30.5 -116.001s47.5 -43 81.5 -43
c72 0 108 37.333 108 112v88z" />
    <glyph glyph-name="uniFB6D" unicode="&#x6a4;" horiz-adv-x="556" arabic-form="medial" 
d="M284 662c-24.667 0 -37 12.667 -37 38c0 24.667 12.333 37 37 37c24 0 36 -12.333 36 -37c0 -25.333 -12 -38 -36 -38zM228 558c-27.333 0 -41 14 -41 42c0 26.667 13.667 40 41 40c26 0 39 -13.333 39 -40c0 -28 -13 -42 -39 -42zM301 600c0 26.667 13.667 40 41 40
c26 0 39 -13.333 39 -40c0 -28 -13 -42 -39 -42c-27.333 0 -41 14 -41 42zM383 62l183.002 -0.000976562v-62h-226c-22.667 0 -43.334 2.33301 -62.001 7c-18.667 -4.66699 -39.334 -7 -62.001 -7h-226v62h184c-52.667 48.667 -79 106.334 -79 173.001
c0 64.667 18 116 54 154c32.667 34 75.667 51 129 51c60.667 0 107.667 -22 141 -66c28 -36.667 42 -83 42 -139c0 -67.333 -26 -125 -78 -173zM282.002 70.999c34 12 61.834 33.5 83.501 64.5s32.5 64.5 32.5 100.5c0 44 -10.833 78.833 -32.5 104.5
s-50.834 38.5 -87.501 38.5s-65.667 -12.833 -87 -38.5s-32 -60.167 -32 -103.5c0 -36.667 10.667 -70.5 32 -101.5s49 -52.5 83 -64.5l4 -1l2 1h2z" />
    <glyph glyph-name="uniFBE8" unicode="&#x649;" horiz-adv-x="292" arabic-form="initial" 
d="M-10 0v62h35c73.333 0 110 38 110 114v217l67 35v-254c0 -56 -16.333 -99.667 -49 -131c-30 -28.667 -70 -43 -120 -43h-43z" />
    <glyph glyph-name="uniFBE9" unicode="&#x649;" horiz-adv-x="337" arabic-form="medial" 
d="M312 62h34.999v-62h-43c-60 -0 -105 20.333 -135 61c-31.333 -40.667 -76.666 -61 -135.999 -61h-43v62h35c73.333 0 110 38 110 114v217l67 35v-252c0 -76 36.667 -114 110 -114z" />
    <glyph glyph-name="uniFC59" unicode="&#xfc59;" horiz-adv-x="970" arabic-form="isolated" 
d="M653 0c-5.33301 -57.333 -35.333 -103.666 -90 -138.999c-52.667 -34 -120.334 -51 -203.001 -51c-102.667 0 -180 30 -232 90c-38.667 44.667 -58 99.667 -58 165c0 57.333 14.667 106.666 44 147.999l65 13c-32 -48.667 -48 -100.667 -48 -156
c0 -61.333 21 -110.333 63 -147c40 -35.333 95.333 -53 166 -53c72.667 0 129.667 15.333 171 46c30.667 22.667 48.667 50.667 54 84h-102l32 62h143c73.333 0 110 38 110 114v217l67 35v-252c0 -76 36.667 -114 110 -114h35v-62h-43c-60 -0 -105 20.333 -135 61
c-31.333 -40.667 -76.666 -61 -135.999 -61h-13zM718 -105c26.667 0 40 -13.667 40 -41s-13.333 -41 -40 -41s-40 13.667 -40 41s13.333 41 40 41zM832 -105c26.667 0 40 -13.667 40 -41s-13.333 -41 -40 -41s-40 13.667 -40 41s13.333 41 40 41z" />
    <glyph glyph-name="uniFC5A" unicode="&#xfc5a;" horiz-adv-x="925" arabic-form="isolated" 
d="M653 0c-5.33301 -57.333 -35.332 -103.666 -89.999 -138.999c-52.667 -34 -120.334 -51 -203.001 -51c-102.667 0 -180 30 -232 90c-38.667 44.667 -58 99.667 -58 165c0 57.333 14.667 106.666 44 147.999l65 13c-32 -48.667 -48 -100.667 -48 -156
c0 -61.333 21 -110.333 63 -147c40 -35.333 95.333 -53 166 -53c72.667 0 129.667 15.333 171 46c30.667 22.667 48.667 50.667 54 84h-102l32 62h143c73.333 0 110 38 110 114v217l67 35v-254c0 -56 -16.333 -99.667 -49 -131c-30 -28.667 -70 -43 -120 -43h-13z
M297.001 -355c-27.333 0 -41 13.667 -41 41s13.667 41 41 41c26 0 39 -13.667 39 -41s-13 -41 -39 -41zM411.001 -355c-26.667 0 -40 13.667 -40 41s13.333 41 40 41s40 -13.667 40 -41s-13.333 -41 -40 -41zM656.001 -187c-27.333 0 -41 14 -41 42
c0 26.667 13.667 40 41 40c26 0 39 -13.333 39 -40c0 -28 -13 -42 -39 -42zM770.001 -187c-27.333 0 -41 14 -41 42c0 26.667 13.667 40 41 40c26 0 39 -13.333 39 -40c0 -28 -13 -42 -39 -42z" />
    <glyph glyph-name="uniFC5E" unicode="&#xfc5e;" arabic-form="isolated" 
d="M151 775c-20 12 -30 30.667 -30 56c0 18.667 5.83301 34.5 17.5 47.5s26.167 19.5 43.5 19.5c18 0 32.833 -6.33301 44.5 -19s17.5 -28.667 17.5 -48c0 -28.667 -9.16699 -52.167 -27.5 -70.5s-41.833 -27.5 -70.5 -27.5c-34 0 -60.667 13.333 -80 40l-22 -36l-36 21
l40 65h20c17.333 -32.667 41 -49 71 -49c4 0 8 0.333008 12 1zM187 791c12.667 12 19 25.333 19 40c0 21.333 -8 32 -24 32s-24 -10.667 -24 -32c0 -18.667 9.66699 -32 29 -40zM179 624l-0.00195312 47l38 21v-69c0 -16.667 -5.66699 -30.5 -17 -41.5
s-25.666 -16.5 -42.999 -16.5s-31 5 -41 15c-10.667 -10 -24.667 -15 -42 -15s-31.666 5.5 -42.999 16.5s-17 24.833 -17 41.5v25l38 21v-45c0 -14.667 7.66699 -22 23 -22c14.667 0 22 6.33301 22 19v40l38 21v-61c0 -12.667 7.33301 -19 22 -19s22 7.33301 22 22z" />
    <glyph glyph-name="uniFC5F" unicode="&#xfc5f;" arabic-form="isolated" 
d="M111 782c-10.667 -10 -24.6689 -15 -42.002 -15s-31.666 5.5 -42.999 16.5s-17 24.833 -17 41.5v25l38 21v-45c0 -14.667 7.66699 -22 23 -22c14.667 0 22 6.33301 22 19v40l38 21v-61c0 -12.667 7.33301 -19 22 -19s22 7.33301 22 22v47l38 21v-69
c0 -16.667 -5.66699 -30.5 -17 -41.5s-25.666 -16.5 -42.999 -16.5s-31 5 -41 15zM12.998 647l23 48l189 34l-23 -48zM-0.00195312 565l23 48l188 35l-22 -48z" />
    <glyph glyph-name="uniFC60" unicode="&#xfc60;" arabic-form="isolated" 
d="M213 818l-22 -48l-189 -35l23 48zM167 624l-0.00195312 47l38 21v-69c0 -16.667 -5.66699 -30.5 -17 -41.5s-25.666 -16.5 -42.999 -16.5s-31 5 -41 15c-10.667 -10 -24.667 -15 -42 -15s-31.666 5.5 -42.999 16.5s-17 24.833 -17 41.5v25l38 21v-45
c0 -14.667 7.66699 -22 23 -22c14.667 0 22 6.33301 22 19v40l38 21v-61c0 -12.667 7.33301 -19 22 -19s22 7.33301 22 22z" />
    <glyph glyph-name="uniFC61" unicode="&#xfc61;" arabic-form="isolated" 
d="M118 790c-12.667 12.667 -19.001 29.333 -19.001 50c0 19.333 5.83301 35.333 17.5 48s26.167 19 43.5 19c18 0 32.833 -6.33301 44.5 -19s17.5 -28.667 17.5 -48c0 -22 -6.16699 -40.833 -18.5 -56.5s-28.166 -25.167 -47.499 -28.5l-154 -28l21 45zM161.999 800.999
c14.667 10 22 23 22 39c0 21.333 -8 32 -24 32s-24 -10.667 -24 -32c0 -16.667 8.66699 -29.667 26 -39zM166.999 623.999l-0.00195312 47l38 21v-69c0 -16.667 -5.66699 -30.5 -17 -41.5s-25.666 -16.5 -42.999 -16.5s-31 5 -41 15c-10.667 -10 -24.667 -15 -42 -15
s-31.666 5.5 -42.999 16.5s-17 24.833 -17 41.5v25l38 21v-45c0 -14.667 7.66699 -22 23 -22c14.667 0 22 6.33301 22 19v40l38 21v-61c0 -12.667 7.33301 -19 22 -19s22 7.33301 22 22z" />
    <glyph glyph-name="uniFC62" unicode="&#xfc62;" arabic-form="isolated" 
d="M107 705c-10.667 -10 -24.6689 -15 -42.002 -15s-31.666 5.5 -42.999 16.5s-17 24.833 -17 41.5v25l38 21v-45c0 -14.667 7.66699 -22 23 -22c14.667 0 22 6.33301 22 19v40l38 21v-61c0 -12.667 7.33301 -19 22 -19s22 7.33301 22 22v47l38 21v-69
c0 -16.667 -5.66699 -30.5 -17 -41.5s-25.666 -16.5 -42.999 -16.5s-31 5 -41 15zM22.998 613l188 35l-22 -48l-189 -35z" />
    <glyph glyph-name="uniFC63" unicode="&#xfc63;" arabic-form="isolated" 
d="M176 756l-34 -17v121l34 17v-121zM264 692l-0.00195312 -75c0 -18.667 -5.66699 -33.834 -17 -45.501s-26 -17.5 -44 -17.5c-17.333 0 -31.666 6 -42.999 18c-11.333 -12 -25.666 -18 -42.999 -18c-18 0 -32.667 5.83301 -44 17.5s-17 26.834 -17 45.501v59l33 16v-73
c0 -21.333 9 -32 27 -32s27 10.667 27 32v56l35 17v-73c0 -21.333 8.66699 -32 26 -32c18 0 27 10.667 27 32v57z" />
    <glyph glyph-name="uniFC95" unicode="&#xfc95;" horiz-adv-x="970" arabic-form="final" 
d="M653 0c-5.33301 -57.333 -35.333 -103.666 -90 -138.999c-52.667 -34 -120.334 -51 -203.001 -51c-102.667 0 -180 30 -232 90c-38.667 44.667 -58 99.667 -58 165c0 57.333 14.667 106.666 44 147.999l65 13c-32 -48.667 -48 -100.667 -48 -156
c0 -61.333 21 -110.333 63 -147c40 -35.333 95.333 -53 166 -53c72.667 0 129.667 15.333 171 46c30.667 22.667 48.667 50.667 54 84h-102l32 62h143c73.333 0 110 38 110 114v217l67 35v-252c0 -76 36.667 -114 110 -114h35v-62h-43c-60 -0 -105 20.333 -135 61
c-31.333 -40.667 -76.666 -61 -135.999 -61h-13zM718 -105c26.667 0 40 -13.667 40 -41s-13.333 -41 -40 -41s-40 13.667 -40 41s13.333 41 40 41zM832 -105c26.667 0 40 -13.667 40 -41s-13.333 -41 -40 -41s-40 13.667 -40 41s13.333 41 40 41z" />
    <glyph glyph-name="uniFC96" unicode="&#xfc96;" horiz-adv-x="970" arabic-form="final" 
d="M653 0c-5.33301 -57.333 -35.333 -103.666 -90 -138.999c-52.667 -34 -120.334 -51 -203.001 -51c-102.667 0 -180 30 -232 90c-38.667 44.667 -58 99.667 -58 165c0 57.333 14.667 106.666 44 147.999l65 13c-32 -48.667 -48 -100.667 -48 -156
c0 -61.333 21 -110.333 63 -147c40 -35.333 95.333 -53 166 -53c72.667 0 129.667 15.333 171 46c30.667 22.667 48.667 50.667 54 84h-102l32 62h143c73.333 0 110 38 110 114v217l67 35v-252c0 -76 36.667 -114 110 -114h35v-62h-43c-60 -0 -105 20.333 -135 61
c-31.333 -40.667 -76.666 -61 -135.999 -61h-13zM297 -355c-27.333 0 -41 13.667 -41 41s13.667 41 41 41c26 0 39 -13.667 39 -41s-13 -41 -39 -41zM411 -355c-26.667 0 -40 13.667 -40 41s13.333 41 40 41s40 -13.667 40 -41s-13.333 -41 -40 -41zM718 -105
c26.667 0 40 -13.667 40 -41s-13.333 -41 -40 -41s-40 13.667 -40 41s13.333 41 40 41zM832 -105c26.667 0 40 -13.667 40 -41s-13.333 -41 -40 -41s-40 13.667 -40 41s13.333 41 40 41z" />
    <glyph glyph-name="uniFE82" unicode="&#x622;" horiz-adv-x="292" arabic-form="final" 
d="M235 749c-20 -32 -42.001 -48 -66.001 -48c-15.333 0 -33.333 7 -54 21c-14.667 10 -26 15 -34 15c-12 0 -25.667 -10.667 -41 -32l-26 19c20.667 32.667 42.667 49 66 49c13.333 0 29.333 -6.33301 48 -19c16 -11.333 29.333 -17 40 -17s24.334 10.333 41.001 31z
M258.999 0c-56.667 0 -100.333 18.333 -131 55c-25.333 31.333 -38 71 -38 119v436l67 35v-469c0 -76 36.667 -114 110 -114h35v-62h-43z" />
    <glyph glyph-name="uniFE84" unicode="&#x623;" horiz-adv-x="292" arabic-form="final" 
d="M35 659l19 34.999h25c-6.66699 11.333 -10 23.333 -10 36c0 18.667 7.16699 35 21.5 49s30.833 21 49.5 21c14.667 0 29 -4.66699 43 -14v-37c-12.667 9.33301 -25.334 14 -38.001 14c-11.333 0 -20.666 -3.33301 -27.999 -10s-11 -15 -11 -25
c0 -11.333 4.66699 -22.666 14 -33.999h88l-19 -35h-154zM259 -0.000976562c-56.667 0 -100.333 18.333 -131 55c-25.333 31.333 -38 71 -38 119v396l67 35v-429c0 -76 36.667 -114 110 -114h35v-62h-43z" />
    <glyph glyph-name="uniFE86" unicode="&#x624;" horiz-adv-x="519" arabic-form="final" 
d="M311 597l-19 -36.002h-155l19 36h26c-6.66699 12 -10 24 -10 36c0 18.667 7 34.834 21 48.501s30.667 20.5 50 20.5c14.667 0 29 -4.33301 43 -13v-38c-13.333 10 -26.333 15 -39 15c-10.667 0 -19.667 -3.5 -27 -10.5s-11 -15.167 -11 -24.5
c0 -11.333 4.66699 -22.666 14 -33.999h88zM529 61.998l0.00195312 -61.999h-106c-0.666992 -44 -14.834 -82.833 -42.501 -116.5s-63.5 -55.834 -107.5 -66.501c-16 -4.66699 -33.333 -7 -52 -7c-38.667 0 -76.334 9.33301 -113.001 28v59c34.667 -18.667 69 -28 103 -28
c27.333 0 51.333 6 72 18c20.667 10.667 38 26.834 52 48.501s21 43.167 21 64.5l-85 3c-74 3.33301 -129.333 26.666 -166 69.999c-30 36.667 -45 85.667 -45 147c0 72 18.667 127.667 56 167c33.333 35.333 78 53 134 53c58 0 102.333 -17.333 133 -52
c26.667 -30 40 -70 40 -120v-206h106zM356.002 260.999c0 78.667 -35.333 118 -106 118c-39.333 0 -69.833 -13.833 -91.5 -41.5s-32.5 -66.5 -32.5 -116.5c0 -99.333 49 -151.333 147 -156c29.333 -2 57 -3 83 -3v199z" />
    <glyph glyph-name="uniFE88" unicode="&#x625;" horiz-adv-x="292" arabic-form="final" 
d="M259 0c-56.667 0 -100.333 18.333 -131 55c-25.333 31.333 -38 71 -38 119v436l67 35v-469c0 -76 36.667 -114 110 -114h35v-62h-43zM82.001 -236l19 35.998h26c-6.66699 12 -10 24 -10 36c0 18.667 7 34.834 21 48.501s30.667 20.5 50 20.5c14.667 0 29 -4.33301 43 -13
v-38c-13.333 10 -26.333 15 -39 15c-10.667 0 -19.667 -3.5 -27 -10.5s-11 -15.167 -11 -24.5c0 -11.333 4.66699 -22.666 14 -33.999h88l-19 -36h-155z" />
    <glyph glyph-name="uniFE8A" unicode="&#x626;" horiz-adv-x="633" arabic-form="final" 
d="M122 338l19 35.998h26c-6.66699 12 -10 24 -10 36c0 18.667 7 34.834 21 48.501s30.667 20.5 50 20.5c14.667 0 29 -4.33301 43 -13v-38c-13.333 10 -26.333 15 -39 15c-10.667 0 -19.667 -3.5 -27 -10.5s-11 -15.167 -11 -24.5c0 -11.333 4.66699 -22.666 14 -33.999h88
l-19 -36h-155zM653 -0.00195312c-5.33301 -57.333 -35.332 -103.666 -89.999 -138.999c-52.667 -34 -120.334 -51 -203.001 -51c-102.667 0 -180 30 -232 90c-38.667 44.667 -58 99.667 -58 165c0 57.333 14.667 106.666 44 147.999l65 13
c-32 -48.667 -48 -100.667 -48 -156c0 -61.333 21 -110.333 63 -147c40 -35.333 95.333 -53 166 -53c72.667 0 129.667 15.333 171 46c30.667 22.667 48.667 50.667 54 84h-102l32 62h141v-62h-3z" />
    <glyph glyph-name="uniFE8B" unicode="&#x626;" horiz-adv-x="275" arabic-form="initial" 
d="M53 562l19 34.998h26c-6.66699 12 -10 24.333 -10 37c0 18.667 7 34.834 21 48.501s30.667 20.5 50 20.5c14.667 0 29 -4.66699 43 -14v-37c-13.333 9.33301 -26.333 14 -39 14c-10.667 0 -19.667 -3.5 -27 -10.5s-11 -15.167 -11 -24.5
c0 -11.333 4.66699 -22.666 14 -33.999h88l-19 -35h-155zM-10 -0.00195312v62h35c73.333 0 110 38 110 114v217l67 35v-254c0 -56 -16.333 -99.667 -49 -131c-30 -28.667 -70 -43 -120 -43h-43z" />
    <glyph glyph-name="uniFE8C" unicode="&#x626;" horiz-adv-x="337" arabic-form="medial" 
d="M249 597l-18.999 -35h-154l19 35h25c-6 12 -9 24 -9 36c0 18.667 7 35 21 49s30.333 21 49 21c15.333 0 30 -4.66699 44 -14v-37c-13.333 9.33301 -26.333 14 -39 14c-10.667 0 -19.834 -3.33301 -27.501 -10s-11.5 -14.667 -11.5 -24c0 -12 5 -23.667 15 -35h87z
M312.001 62h34.999v-62h-43c-60 -0 -105 20.333 -135 61c-31.333 -40.667 -76.666 -61 -135.999 -61h-43v62h35c73.333 0 110 38 110 114v217l67 35v-252c0 -76 36.667 -114 110 -114z" />
    <glyph glyph-name="uniFE8E" unicode="&#x627;" horiz-adv-x="292" arabic-form="final" 
d="M259 0c-56.667 0 -100.333 18.333 -131 55c-25.333 31.333 -38 71 -38 119v436l67 35v-469c0 -76 36.667 -114 110 -114h35v-62h-43z" />
    <glyph glyph-name="uniFE90" unicode="&#x628;" horiz-adv-x="894" arabic-form="final" 
d="M889 62h34.999v-62h-43c-60 -0 -105 20.333 -135 61c-31.333 -40.667 -77 -61 -137 -61h-357c-49.333 0 -88.666 15.5 -117.999 46.5s-44 72.833 -44 125.5v131l67 35v-158c0 -78.667 36.667 -118 110 -118h335c73.333 0 110 39.333 110 118v213l67 35v-252
c0 -76 36.667 -114 110 -114zM390.999 -105c26 0 39 -13.333 39 -40c0 -28 -13 -42 -39 -42c-27.333 0 -41 14 -41 42c0 26.667 13.667 40 41 40z" />
    <glyph glyph-name="uniFE91" unicode="&#x628;" horiz-adv-x="292" arabic-form="initial" 
d="M-10 0v62h35c73.333 0 110 38 110 114v217l67 35v-254c0 -56 -16.333 -99.667 -49 -131c-30 -28.667 -70 -43 -120 -43h-43zM123 -187c-27.333 0 -41 14 -41 42c0 26.667 13.667 40 41 40c26 0 39 -13.333 39 -40c0 -28 -13 -42 -39 -42z" />
    <glyph glyph-name="uniFE92" unicode="&#x628;" horiz-adv-x="337" arabic-form="medial" 
d="M312 62h34.999v-62h-43c-60 -0 -105 20.333 -135 61c-31.333 -40.667 -76.666 -61 -135.999 -61h-43v62h35c73.333 0 110 38 110 114v217l67 35v-252c0 -76 36.667 -114 110 -114zM157.999 -105c26 0 39 -13.333 39 -40c0 -28 -13 -42 -39 -42c-27.333 0 -41 14 -41 42
c0 26.667 13.667 40 41 40z" />
    <glyph glyph-name="uniFE94" unicode="&#x629;" horiz-adv-x="518" arabic-form="final" 
d="M186 565c-27.333 0 -41 14 -41 42c0 26.667 13.667 40 41 40c26 0 39 -13.333 39 -40c0 -28 -13 -42 -39 -42zM300 565c-27.333 0 -41 14 -41 42c0 26.667 13.667 40 41 40c26 0 39 -13.333 39 -40c0 -28 -13 -42 -39 -42zM494 62l34.001 -0.000976562v-62h-43
c-71.333 0 -121 28 -149 84c-34.667 -36 -77.334 -54 -128.001 -54c-57.333 0 -102.666 21.667 -135.999 65c-28 36.667 -42 82.334 -42 137.001c0 64 18.667 115.333 56 154c32.667 34 73 51 121 51c43.333 0 79.666 -12.667 108.999 -38v54l67 35v-312
c0 -76 37 -114 111 -114zM316.001 322.999c-29.333 35.333 -65 53 -107 53c-33.333 0 -60.5 -13.5 -81.5 -40.5s-31.5 -61.833 -31.5 -104.5c0 -43.333 10.5 -78 31.5 -104s48.5 -39 82.5 -39c43.333 0 79.333 19 108 57c-1.33301 12 -2 21.667 -2 29v149z" />
    <glyph glyph-name="uniFE96" unicode="&#x62a;" horiz-adv-x="894" arabic-form="final" 
d="M355 465c-26.667 0 -40 14 -40 42c0 26.667 13.333 40 40 40s40 -13.333 40 -40c0 -28 -13.333 -42 -40 -42zM470 465c-27.333 0 -41 14 -41 42c0 26.667 13.667 40 41 40c26 0 39 -13.333 39 -40c0 -28 -13 -42 -39 -42zM889 62h34.999v-62h-43
c-60 -0 -105 20.333 -135 61c-31.333 -40.667 -77 -61 -137 -61h-357c-49.333 0 -88.666 15.5 -117.999 46.5s-44 72.833 -44 125.5v131l67 35v-158c0 -78.667 36.667 -118 110 -118h335c73.333 0 110 39.333 110 118v213l67 35v-252c0 -76 36.667 -114 110 -114z" />
    <glyph glyph-name="uniFE97" unicode="&#x62a;" horiz-adv-x="292" arabic-form="initial" 
d="M50 560c-27.333 0 -41 14 -41 42c0 26.667 13.667 40 41 40c26 0 39 -13.333 39 -40c0 -28 -13 -42 -39 -42zM164 560c-27.333 0 -41 14 -41 42c0 26.667 13.667 40 41 40c26 0 39 -13.333 39 -40c0 -28 -13 -42 -39 -42zM-10 0v62h35c73.333 0 110 38 110 114v217l67 35
v-254c0 -56 -16.333 -99.667 -49 -131c-30 -28.667 -70 -43 -120 -43h-43z" />
    <glyph glyph-name="uniFE98" unicode="&#x62a;" horiz-adv-x="337" arabic-form="medial" 
d="M91 557c-26.667 0 -40 13.667 -40 41s13.333 41 40 41s40 -13.667 40 -41s-13.333 -41 -40 -41zM205 557c-26.667 0 -40 13.667 -40 41s13.333 41 40 41s40 -13.667 40 -41s-13.333 -41 -40 -41zM312 62h34.999v-62h-43c-60 -0 -105 20.333 -135 61
c-31.333 -40.667 -76.666 -61 -135.999 -61h-43v62h35c73.333 0 110 38 110 114v217l67 35v-252c0 -76 36.667 -114 110 -114z" />
    <glyph glyph-name="uniFE9A" unicode="&#x62b;" horiz-adv-x="894" arabic-form="final" 
d="M417 569c-26 0 -39 13.667 -39 41c0 26 13 39 39 39c25.333 0 38 -13 38 -39c0 -27.333 -12.667 -41 -38 -41zM360 465c-26.667 0 -40 14 -40 42c0 26.667 13.333 40 40 40s40 -13.333 40 -40c0 -28 -13.333 -42 -40 -42zM434 507c0 26.667 13.667 40 41 40
c26 0 39 -13.333 39 -40c0 -28 -13 -42 -39 -42c-27.333 0 -41 14 -41 42zM889 62h34.999v-62h-43c-60 -0 -105 20.333 -135 61c-31.333 -40.667 -77 -61 -137 -61h-357c-49.333 0 -88.666 15.5 -117.999 46.5s-44 72.833 -44 125.5v131l67 35v-158
c0 -78.667 36.667 -118 110 -118h335c73.333 0 110 39.333 110 118v213l67 35v-252c0 -76 36.667 -114 110 -114z" />
    <glyph glyph-name="uniFE9B" unicode="&#x62b;" horiz-adv-x="292" arabic-form="initial" 
d="M106 664c-24.667 0 -37 12.667 -37 38c0 24.667 12.333 37 37 37c24 0 36 -12.333 36 -37c0 -25.333 -12 -38 -36 -38zM50 560c-27.333 0 -41 14 -41 42c0 26.667 13.667 40 41 40c26 0 39 -13.333 39 -40c0 -28 -13 -42 -39 -42zM164 560c-27.333 0 -41 14 -41 42
c0 26.667 13.667 40 41 40c26 0 39 -13.333 39 -40c0 -28 -13 -42 -39 -42zM-10 0v62h35c73.333 0 110 38 110 114v217l67 35v-254c0 -56 -16.333 -99.667 -49 -131c-30 -28.667 -70 -43 -120 -43h-43z" />
    <glyph glyph-name="uniFE9C" unicode="&#x62b;" horiz-adv-x="337" arabic-form="medial" 
d="M151 661c-26 0 -39 13.333 -39 40c0 26 13 39 39 39c25.333 0 38 -13 38 -39c0 -26.667 -12.667 -40 -38 -40zM95 557c-27.333 0 -41 13.667 -41 41s13.667 41 41 41c26 0 39 -13.667 39 -41s-13 -41 -39 -41zM168 598c0 27.333 13.667 41 41 41c26 0 39 -13.667 39 -41
s-13 -41 -39 -41c-27.333 0 -41 13.667 -41 41zM312 62h34.999v-62h-43c-60 -0 -105 20.333 -135 61c-31.333 -40.667 -76.666 -61 -135.999 -61h-43v62h35c73.333 0 110 38 110 114v217l67 35v-252c0 -76 36.667 -114 110 -114z" />
    <glyph glyph-name="uniFE9E" unicode="&#x62c;" horiz-adv-x="684" arabic-form="final" 
d="M679 62l34.999 -0.00488281v-62h-36c-57.333 0 -103 7 -137 21s-65.333 38.667 -94 74c-23.333 -8.66699 -59 -17.667 -107 -27c-78.667 -15.333 -131.667 -36.666 -159 -63.999c-32.667 -32.667 -49 -78.667 -49 -138c0 -57.333 19 -102.666 57 -135.999
c32 -28.667 73 -43 123 -43h2c76 0 137 17 183 51v-61c-54.667 -34.667 -116.667 -52 -186 -52c-74.667 0 -134.667 25 -180 75c-40.667 44.667 -61 100.667 -61 168c0 72 22 131 66 177c20 20.667 43 36.5 69 47.5s65.667 21.5 119 31.5
c54.667 10.667 94.667 21.834 120 33.501s47.333 28.834 66 51.501c-58 114 -129.667 171 -215 171c-58 0 -114 -29 -168 -87v66c54.667 54 111.667 81 171 81h2c104.667 0 195.334 -70.667 272.001 -212v-41c-20 -27.333 -45.333 -50 -76 -68
c21.333 -21.333 45.5 -36.166 72.5 -44.499s63.833 -12.5 110.5 -12.5zM275.999 -132.005c0 25.333 12.667 38 38 38c24.667 0 37 -12.667 37 -38c0 -26 -12.333 -39 -37 -39c-25.333 0 -38 13 -38 39z" />
    <glyph glyph-name="uniFE9F" unicode="&#x62c;" horiz-adv-x="554" arabic-form="initial" 
d="M-10 0l-0.000976562 62h112c145.333 0 258.666 49.333 339.999 148c-59.333 113.333 -131 170 -215 170c-57.333 0 -113.333 -29 -168 -87v66c54.667 54 111.667 81 171 81h2c104.667 0 195.334 -70.667 272.001 -212v-41c-97.333 -124.667 -231.666 -187 -402.999 -187
h-111zM253.999 -187c-27.333 0 -41 14 -41 42c0 26.667 13.667 40 41 40c26 0 39 -13.333 39 -40c0 -28 -13 -42 -39 -42z" />
    <glyph glyph-name="uniFEA0" unicode="&#x62c;" horiz-adv-x="647" arabic-form="medial" 
d="M622 62h35v-62h-36c-55.333 -0 -99.5 6.33301 -132.5 19s-63.5 35 -91.5 67c-85.333 -57.333 -184 -86 -296 -86h-111v62h112c145.333 0 258.666 49.333 339.999 148c-59.333 113.333 -131 170 -215 170c-57.333 0 -113.333 -29 -168 -87v66c54.667 54 111.667 81 171 81
h2c104.667 0 195.334 -70.667 272.001 -212v-41c-20.667 -26.667 -42.667 -49.667 -66 -69c21.333 -20.667 45.5 -35.167 72.5 -43.5s64.167 -12.5 111.5 -12.5zM254 -105c26 0 39 -13.333 39 -40c0 -28 -13 -42 -39 -42c-27.333 0 -41 14 -41 42c0 26.667 13.667 40 41 40z
" />
    <glyph glyph-name="uniFEA2" unicode="&#x62d;" horiz-adv-x="704" arabic-form="final" 
d="M679 62l34.999 -0.00488281v-62h-36c-57.333 0 -103 7 -137 21s-65.333 38.667 -94 74c-23.333 -8.66699 -59 -17.667 -107 -27c-78.667 -15.333 -131.667 -36.666 -159 -63.999c-32.667 -32.667 -49 -78.667 -49 -138c0 -57.333 19 -102.666 57 -135.999
c32 -28.667 73 -43 123 -43h2c76 0 137 17 183 51v-61c-54.667 -34.667 -116.667 -52 -186 -52c-74.667 0 -134.667 25 -180 75c-40.667 44.667 -61 100.667 -61 168c0 72 22 131 66 177c20 20.667 43 36.5 69 47.5s65.667 21.5 119 31.5
c54.667 10.667 94.667 21.834 120 33.501s47.333 28.834 66 51.501c-58 114 -129.667 171 -215 171c-58 0 -114 -29 -168 -87v66c54.667 54 111.667 81 171 81h2c104.667 0 195.334 -70.667 272.001 -212v-41c-20 -27.333 -45.333 -50 -76 -68
c21.333 -21.333 45.5 -36.166 72.5 -44.499s63.833 -12.5 110.5 -12.5z" />
    <glyph glyph-name="uniFEA3" unicode="&#x62d;" horiz-adv-x="554" arabic-form="initial" 
d="M-10 0l-0.000976562 62h112c145.333 0 258.666 49.333 339.999 148c-59.333 113.333 -131 170 -215 170c-57.333 0 -113.333 -29 -168 -87v66c54.667 54 111.667 81 171 81h2c104.667 0 195.334 -70.667 272.001 -212v-41c-97.333 -124.667 -231.666 -187 -402.999 -187
h-111z" />
    <glyph glyph-name="uniFEA4" unicode="&#x62d;" horiz-adv-x="647" arabic-form="medial" 
d="M622 62h35v-62h-36c-55.333 -0 -99.5 6.33301 -132.5 19s-63.5 35 -91.5 67c-85.333 -57.333 -184 -86 -296 -86h-111v62h112c145.333 0 258.666 49.333 339.999 148c-59.333 113.333 -131 170 -215 170c-57.333 0 -113.333 -29 -168 -87v66c54.667 54 111.667 81 171 81
h2c104.667 0 195.334 -70.667 272.001 -212v-41c-20.667 -26.667 -42.667 -49.667 -66 -69c21.333 -20.667 45.5 -35.167 72.5 -43.5s64.167 -12.5 111.5 -12.5z" />
    <glyph glyph-name="uniFEA6" unicode="&#x62e;" horiz-adv-x="704" arabic-form="final" 
d="M326 560c-27.333 0 -41 14 -41 42c0 26.667 13.667 40 41 40c26 0 39 -13.333 39 -40c0 -28 -13 -42 -39 -42zM679 62l34.999 -0.00488281v-62h-36c-57.333 0 -103 7 -137 21s-65.333 38.667 -94 74c-23.333 -8.66699 -59 -17.667 -107 -27
c-78.667 -15.333 -131.667 -36.666 -159 -63.999c-32.667 -32.667 -49 -78.667 -49 -138c0 -57.333 19 -102.666 57 -135.999c32 -28.667 73 -43 123 -43h2c76 0 137 17 183 51v-61c-54.667 -34.667 -116.667 -52 -186 -52c-74.667 0 -134.667 25 -180 75
c-40.667 44.667 -61 100.667 -61 168c0 72 22 131 66 177c20 20.667 43 36.5 69 47.5s65.667 21.5 119 31.5c54.667 10.667 94.667 21.834 120 33.501s47.333 28.834 66 51.501c-58 114 -129.667 171 -215 171c-58 0 -114 -29 -168 -87v66c54.667 54 111.667 81 171 81h2
c104.667 0 195.334 -70.667 272.001 -212v-41c-20 -27.333 -45.333 -50 -76 -68c21.333 -21.333 45.5 -36.166 72.5 -44.499s63.833 -12.5 110.5 -12.5z" />
    <glyph glyph-name="uniFEA7" unicode="&#x62e;" horiz-adv-x="554" arabic-form="initial" 
d="M270 560c-27.333 0 -41 14 -41 42c0 26.667 13.667 40 41 40c26 0 39 -13.333 39 -40c0 -28 -13 -42 -39 -42zM-10 0l-0.000976562 62h112c145.333 0 258.666 49.333 339.999 148c-59.333 113.333 -131 170 -215 170c-57.333 0 -113.333 -29 -168 -87v66
c54.667 54 111.667 81 171 81h2c104.667 0 195.334 -70.667 272.001 -212v-41c-97.333 -124.667 -231.666 -187 -402.999 -187h-111z" />
    <glyph glyph-name="uniFEA8" unicode="&#x62e;" horiz-adv-x="647" arabic-form="medial" 
d="M270 560c-27.333 0 -41 14 -41 42c0 26.667 13.667 40 41 40c26 0 39 -13.333 39 -40c0 -28 -13 -42 -39 -42zM622 62h35v-62h-36c-55.333 -0 -99.5 6.33301 -132.5 19s-63.5 35 -91.5 67c-85.333 -57.333 -184 -86 -296 -86h-111v62h112
c145.333 0 258.666 49.333 339.999 148c-59.333 113.333 -131 170 -215 170c-57.333 0 -113.333 -29 -168 -87v66c54.667 54 111.667 81 171 81h2c104.667 0 195.334 -70.667 272.001 -212v-41c-20.667 -26.667 -42.667 -49.667 -66 -69
c21.333 -20.667 45.5 -35.167 72.5 -43.5s64.167 -12.5 111.5 -12.5z" />
    <glyph glyph-name="uniFEAA" unicode="&#x62f;" horiz-adv-x="515" arabic-form="final" 
d="M10 0l32.001 61.999h188c30.667 0 52.167 7.66699 64.5 23s18.5 42 18.5 80c0 98 -43 171 -129 219l33 55c106 -61.333 160 -147.666 162 -258.999c0.666992 -78.667 39 -118 115 -118h31v-62h-38c-58 -0 -102.333 19.333 -133 58
c-22.667 -38.667 -60.334 -58 -113.001 -58h-231z" />
    <glyph glyph-name="uniFEAC" unicode="&#x630;" horiz-adv-x="515" arabic-form="final" 
d="M221 560c-27.333 0 -41 14 -41 42c0 26.667 13.667 40 41 40c26 0 39 -13.333 39 -40c0 -28 -13 -42 -39 -42zM10 0l32.001 61.999h188c30.667 0 52.167 7.66699 64.5 23s18.5 42 18.5 80c0 98 -43 171 -129 219l33 55c106 -61.333 160 -147.666 162 -258.999
c0.666992 -78.667 39 -118 115 -118h31v-62h-38c-58 -0 -102.333 19.333 -133 58c-22.667 -38.667 -60.334 -58 -113.001 -58h-231z" />
    <glyph glyph-name="uniFEAE" unicode="&#x631;" horiz-adv-x="357" arabic-form="final" 
d="M332 62h34.999v-62h-43c-41.333 0 -75.666 10 -102.999 30c-5.33301 -110.667 -50 -180.667 -134 -210c-21.333 -7.33301 -44 -11 -68 -11c-38.667 0 -76 9.33301 -112 28v59c34 -18.667 68.667 -28 104 -28c28 0 52.667 6.33301 74 19c46.667 28 70 80.333 70 157v349
l66 35v-1l1 1v-252c0 -76 36.667 -114 110 -114z" />
    <glyph glyph-name="uniFEB0" unicode="&#x632;" horiz-adv-x="357" arabic-form="final" 
d="M182 560c-27.333 0 -41 14 -41 42c0 26.667 13.667 40 41 40c26 0 39 -13.333 39 -40c0 -28 -13 -42 -39 -42zM332 62h34.999v-62h-43c-41.333 0 -75.666 10 -102.999 30c-5.33301 -110.667 -50 -180.667 -134 -210c-21.333 -7.33301 -44 -11 -68 -11
c-38.667 0 -76 9.33301 -112 28v59c34 -18.667 68.667 -28 104 -28c28 0 52.667 6.33301 74 19c46.667 28 70 80.333 70 157v349l66 35v-1l1 1v-252c0 -76 36.667 -114 110 -114z" />
    <glyph glyph-name="uniFEB2" unicode="&#x633;" horiz-adv-x="1390" arabic-form="final" 
d="M1342 62l57.998 0.000976562v-62h-65c-61.333 0 -107.666 21 -138.999 63c-31.333 -42 -77 -63 -137 -63h-53c-60.667 0 -106 20.667 -136 62c-30 -41.333 -75.333 -62 -136 -62h-53c-39.333 0 -73.666 9.66699 -102.999 29c-4.66699 -70 -32.667 -125 -84 -165
c-45.333 -36 -102.666 -54 -171.999 -54c-84.667 0 -150.334 30 -197.001 90c-36.667 46 -55 101 -55 165c0 57.333 14.667 106.666 44 147.999l65 13c-32 -48.667 -48 -100.667 -48 -156c0 -58.667 19 -107 57 -145c35.333 -35.333 80 -53 134 -53
c63.333 0 112.333 18.667 147 56c28.667 30.667 43 71 43 121v271l67 35v-179c0 -76 37 -114 111 -114h36c74 0 111 38 111 114v180l66 36v-216c0 -76 37 -114 111 -114h37c73.333 0 110 38 110 114v217l67 35v-248c0 -78.667 38 -118 114 -118z" />
    <glyph glyph-name="uniFEB3" unicode="&#x633;" horiz-adv-x="968" arabic-form="initial" 
d="M-10 0l0.000976562 62h61c74 0 111 38 111 114v144l67 35v-179c0 -76 36.667 -114 110 -114h37c73.333 0 110 38 110 114v180l67 36v-216c0 -76 37 -114 111 -114h36c74 0 111 38 111 114v217l67 35v-254c0 -55.333 -16.333 -98.666 -49 -129.999
c-29.333 -28.667 -69 -43.334 -119 -44.001h-55c-62 0 -107 22 -135 66c-28.667 -44 -73.334 -66 -134.001 -66h-55c-62 0 -107.333 22 -136 66c-28 -44 -73 -66 -135 -66h-70z" />
    <glyph glyph-name="uniFEB4" unicode="&#x633;" horiz-adv-x="1040" arabic-form="medial" 
d="M-10 0l-0.000976562 62h61c74 0 111 38 111 114v144l67 35v-179c0 -76 36.667 -114 110 -114h37c73.333 0 110 38 110 114v180l67 36v-216c0 -76 37 -114 111 -114h36c74 0 111 38 111 114v217l67 35v-248c0 -78.667 38 -118 114 -118h58v-62h-65
c-63.333 -0 -109.666 22.333 -138.999 67c-29.333 -44.667 -74.666 -67 -135.999 -67h-55c-62 0 -107 22 -135 66c-28.667 -44 -73.334 -66 -134.001 -66h-55c-62 0 -107.333 22 -136 66c-28 -44 -73 -66 -135 -66h-70z" />
    <glyph glyph-name="uniFEB6" unicode="&#x634;" horiz-adv-x="1390" arabic-form="final" 
d="M868 631c-24.667 0 -37 12.667 -37 38c0 24 12.333 36 37 36c24 0 36 -12 36 -36c0 -25.333 -12 -38 -36 -38zM811 527c-26.667 0 -40 13.667 -40 41s13.333 41 40 41s40 -13.667 40 -41s-13.333 -41 -40 -41zM885 568c0 27.333 13.667 41 41 41c26 0 39 -13.667 39 -41
s-13 -41 -39 -41c-27.333 0 -41 13.667 -41 41zM1342 62l57.998 0.000976562v-62h-65c-61.333 0 -107.666 21 -138.999 63c-31.333 -42 -77 -63 -137 -63h-53c-60.667 0 -106 20.667 -136 62c-30 -41.333 -75.333 -62 -136 -62h-53c-39.333 0 -73.666 9.66699 -102.999 29
c-4.66699 -70 -32.667 -125 -84 -165c-45.333 -36 -102.666 -54 -171.999 -54c-84.667 0 -150.334 30 -197.001 90c-36.667 46 -55 101 -55 165c0 57.333 14.667 106.666 44 147.999l65 13c-32 -48.667 -48 -100.667 -48 -156c0 -58.667 19 -107 57 -145
c35.333 -35.333 80 -53 134 -53c63.333 0 112.333 18.667 147 56c28.667 30.667 43 71 43 121v271l67 35v-179c0 -76 37 -114 111 -114h36c74 0 111 38 111 114v180l66 36v-216c0 -76 37 -114 111 -114h37c73.333 0 110 38 110 114v217l67 35v-248
c0 -78.667 38 -118 114 -118z" />
    <glyph glyph-name="uniFEB7" unicode="&#x634;" horiz-adv-x="968" arabic-form="initial" 
d="M519 631c-24 0 -36 12.667 -36 38c0 24 12 36 36 36s36 -12 36 -36c0 -25.333 -12 -38 -36 -38zM463 527c-27.333 0 -41 13.667 -41 41s13.667 41 41 41c26 0 39 -13.667 39 -41s-13 -41 -39 -41zM577 527c-26.667 0 -40 13.667 -40 41s13.333 41 40 41
s40 -13.667 40 -41s-13.333 -41 -40 -41zM-10 0l0.000976562 62h61c74 0 111 38 111 114v144l67 35v-179c0 -76 36.667 -114 110 -114h37c73.333 0 110 38 110 114v180l67 36v-216c0 -76 37 -114 111 -114h36c74 0 111 38 111 114v217l67 35v-254
c0 -55.333 -16.333 -98.666 -49 -129.999c-29.333 -28.667 -69 -43.334 -119 -44.001h-55c-62 0 -107 22 -135 66c-28.667 -44 -73.334 -66 -134.001 -66h-55c-62 0 -107.333 22 -136 66c-28 -44 -73 -66 -135 -66h-70z" />
    <glyph glyph-name="uniFEB8" unicode="&#x634;" horiz-adv-x="1040" arabic-form="medial" 
d="M519 631c-24 0 -36 12.667 -36 38c0 24 12 36 36 36s36 -12 36 -36c0 -25.333 -12 -38 -36 -38zM463 527c-27.333 0 -41 13.667 -41 41s13.667 41 41 41c26 0 39 -13.667 39 -41s-13 -41 -39 -41zM577 527c-26.667 0 -40 13.667 -40 41s13.333 41 40 41
s40 -13.667 40 -41s-13.333 -41 -40 -41zM-10 0l-0.000976562 62h61c74 0 111 38 111 114v144l67 35v-179c0 -76 36.667 -114 110 -114h37c73.333 0 110 38 110 114v180l67 36v-216c0 -76 37 -114 111 -114h36c74 0 111 38 111 114v217l67 35v-248
c0 -78.667 38 -118 114 -118h58v-62h-65c-63.333 -0 -109.666 22.333 -138.999 67c-29.333 -44.667 -74.666 -67 -135.999 -67h-55c-62 0 -107 22 -135 66c-28.667 -44 -73.334 -66 -134.001 -66h-55c-62 0 -107.333 22 -136 66c-28 -44 -73 -66 -135 -66h-70z" />
    <glyph glyph-name="uniFEBA" unicode="&#x635;" horiz-adv-x="1392" arabic-form="final" 
d="M1367 62l34.998 0.00195312v-62h-43c-60 0 -105 20.333 -135 61c-30 -40.667 -75.333 -61 -136 -61h-407c-39.333 0 -73.666 9.66699 -102.999 29c-4.66699 -70 -32.667 -125 -84 -165c-45.333 -36 -102.666 -54 -171.999 -54c-84.667 0 -150.334 30 -197.001 90
c-36.667 46 -55 101 -55 165c0 57.333 14.667 106.666 44 147.999l65 13c-32 -48.667 -48 -100.667 -48 -156c0 -58.667 19 -107 57 -145c35.333 -35.333 80 -53 134 -53c63.333 0 112.333 18.667 147 56c28.667 30.667 43 71 43 121v271l67 35v-179
c0 -62.667 24.333 -99.334 73 -110.001c24 102 67 188 129 258c68.667 77.333 149.334 116 242.001 116c74.667 0 134 -25.667 178 -77c37.333 -44 56 -98.333 56 -163v-26c0 -74.667 36.667 -112 110 -112zM1083 62.002c71.333 0 107 39.333 107 118v20
c0 56 -17.667 101 -53 135c-30 29.333 -67.667 44 -113 44c-78.667 0 -148 -36.667 -208 -110c-46 -55.333 -80.333 -124.333 -103 -207h370z" />
    <glyph glyph-name="uniFEBB" unicode="&#x635;" horiz-adv-x="952" arabic-form="initial" 
d="M275 66c24.667 102.667 67.665 188.668 128.998 258.001c68.667 77.333 149.334 116 242.001 116c74.667 0 134 -25.667 178 -77c37.333 -44 56 -98.333 56 -163v-28c0 -56.667 -17.333 -100.667 -52 -132c-29.333 -26.667 -68.333 -40 -117 -40h-407
c-60 0 -105 20.333 -135 61c-31.333 -40.667 -76.666 -61 -135.999 -61h-43v62h35c73.333 0 110 38 110 114v144l67 35v-179c0 -62.667 24.333 -99.334 73 -110.001zM812.998 180.001v20c0 56 -17.667 101 -53 135c-30 29.333 -67.667 44 -113 44
c-78 0 -147.333 -36.667 -208 -110c-46 -56 -80.667 -125 -104 -207h371c71.333 0 107 39.333 107 118z" />
    <glyph glyph-name="uniFEBC" unicode="&#x635;" horiz-adv-x="1015" arabic-form="medial" 
d="M990 62l34.998 0.000976562v-62h-43c-60 0 -105 20.333 -135 61c-30 -40.667 -75.333 -61 -136 -61h-407c-60 0 -105 20.333 -135 61c-31.333 -40.667 -76.666 -61 -135.999 -61h-43v62h35c73.333 0 110 38 110 114v144l67 35v-179c0 -62.667 24.333 -99.334 73 -110.001
c24.667 102.667 67.667 188.667 129 258c68.667 77.333 149.334 116 242.001 116c74.667 0 134 -25.667 178 -77c37.333 -44 56 -98.333 56 -163v-26c0 -74.667 36.667 -112 110 -112zM705.998 62.001c71.333 0 107 39.333 107 118v20c0 56 -17.667 101 -53 135
c-30 29.333 -67.667 44 -113 44c-78 0 -147.333 -36.667 -208 -110c-46 -56 -80.667 -125 -104 -207h371z" />
    <glyph glyph-name="uniFEBE" unicode="&#x636;" horiz-adv-x="1392" arabic-form="final" 
d="M1018 560c-27.333 0 -41 14 -41 42c0 26.667 13.667 40 41 40c26 0 39 -13.333 39 -40c0 -28 -13 -42 -39 -42zM1367 62l34.998 0.00195312v-62h-43c-60 0 -105 20.333 -135 61c-30 -40.667 -75.333 -61 -136 -61h-407c-39.333 0 -73.666 9.66699 -102.999 29
c-4.66699 -70 -32.667 -125 -84 -165c-45.333 -36 -102.666 -54 -171.999 -54c-84.667 0 -150.334 30 -197.001 90c-36.667 46 -55 101 -55 165c0 57.333 14.667 106.666 44 147.999l65 13c-32 -48.667 -48 -100.667 -48 -156c0 -58.667 19 -107 57 -145
c35.333 -35.333 80 -53 134 -53c63.333 0 112.333 18.667 147 56c28.667 30.667 43 71 43 121v271l67 35v-179c0 -62.667 24.333 -99.334 73 -110.001c24 102 67 188 129 258c68.667 77.333 149.334 116 242.001 116c74.667 0 134 -25.667 178 -77
c37.333 -44 56 -98.333 56 -163v-26c0 -74.667 36.667 -112 110 -112zM1083 62.002c71.333 0 107 39.333 107 118v20c0 56 -17.667 101 -53 135c-30 29.333 -67.667 44 -113 44c-78.667 0 -148 -36.667 -208 -110c-46 -55.333 -80.333 -124.333 -103 -207h370z" />
    <glyph glyph-name="uniFEBF" unicode="&#x636;" horiz-adv-x="952" arabic-form="initial" 
d="M661 560c-27.333 0 -41 14 -41 42c0 26.667 13.667 40 41 40c26 0 39 -13.333 39 -40c0 -28 -13 -42 -39 -42zM275 66c24.667 102.667 67.665 188.668 128.998 258.001c68.667 77.333 149.334 116 242.001 116c74.667 0 134 -25.667 178 -77
c37.333 -44 56 -98.333 56 -163v-28c0 -56.667 -17.333 -100.667 -52 -132c-29.333 -26.667 -68.333 -40 -117 -40h-407c-60 0 -105 20.333 -135 61c-31.333 -40.667 -76.666 -61 -135.999 -61h-43v62h35c73.333 0 110 38 110 114v144l67 35v-179
c0 -62.667 24.333 -99.334 73 -110.001zM812.998 180.001v20c0 56 -17.667 101 -53 135c-30 29.333 -67.667 44 -113 44c-78 0 -147.333 -36.667 -208 -110c-46 -56 -80.667 -125 -104 -207h371c71.333 0 107 39.333 107 118z" />
    <glyph glyph-name="uniFEC0" unicode="&#x636;" horiz-adv-x="1015" arabic-form="medial" 
d="M661 560c-27.333 0 -41 14 -41 42c0 26.667 13.667 40 41 40c26 0 39 -13.333 39 -40c0 -28 -13 -42 -39 -42zM990 62l34.998 0.000976562v-62h-43c-60 0 -105 20.333 -135 61c-30 -40.667 -75.333 -61 -136 -61h-407c-60 0 -105 20.333 -135 61
c-31.333 -40.667 -76.666 -61 -135.999 -61h-43v62h35c73.333 0 110 38 110 114v144l67 35v-179c0 -62.667 24.333 -99.334 73 -110.001c24.667 102.667 67.667 188.667 129 258c68.667 77.333 149.334 116 242.001 116c74.667 0 134 -25.667 178 -77
c37.333 -44 56 -98.333 56 -163v-26c0 -74.667 36.667 -112 110 -112zM705.998 62.001c71.333 0 107 39.333 107 118v20c0 56 -17.667 101 -53 135c-30 29.333 -67.667 44 -113 44c-78 0 -147.333 -36.667 -208 -110c-46 -56 -80.667 -125 -104 -207h371z" />
    <glyph glyph-name="uniFEC2" unicode="&#x637;" horiz-adv-x="926" arabic-form="final" 
d="M936 62v-62h-43c-56 0 -99.333 18 -130 54c-24 -36 -62.667 -54 -116 -54h-627l33 62h132v548l62 35v-420c78 143.333 181.333 215 310 215c74.667 0 134 -25.667 178 -77c37.333 -44 56 -98.333 56 -163v-26c0 -74.667 37 -112 111 -112h34zM724 200
c0 56 -17.667 101 -53 135c-30 29.333 -67.667 44 -113 44c-78 0 -147.333 -37.667 -208 -113c-46 -56.667 -80 -124.667 -102 -204h392c32 0 54 7.5 66 22.5s18 42.5 18 82.5v33z" />
    <glyph glyph-name="uniFEC3" unicode="&#x637;" horiz-adv-x="837" arabic-form="initial" 
d="M221 225c78 143.333 181.333 215 310 215c74.667 0 134 -25.667 178 -77c37.333 -44 56 -98.333 56 -163v-35c0 -110 -48 -165 -144 -165h-631v62h169v548l62 35v-420zM698 200c0 56 -17.667 101 -53 135c-30 29.333 -67.667 44 -113 44
c-78 0 -147.333 -37.667 -208 -113c-46 -56.667 -80 -124.667 -102 -204h392c32 0 54 7.5 66 22.5s18 42.5 18 82.5v33z" />
    <glyph glyph-name="uniFEC4" unicode="&#x637;" horiz-adv-x="900" arabic-form="medial" 
d="M910 62v-62h-43c-56 0 -99.333 18 -130 54c-24 -36 -62.667 -54 -116 -54h-631v62h169v548l62 35v-420c78 143.333 181.333 215 310 215c74.667 0 134 -25.667 178 -77c37.333 -44 56 -98.333 56 -163v-26c0 -74.667 37 -112 111 -112h34zM698 200
c0 56 -17.667 101 -53 135c-30 29.333 -67.667 44 -113 44c-78 0 -147.333 -37.667 -208 -113c-46 -56.667 -80 -124.667 -102 -204h392c32 0 54 7.5 66 22.5s18 42.5 18 82.5v33z" />
    <glyph glyph-name="uniFEC6" unicode="&#x638;" horiz-adv-x="926" arabic-form="final" 
d="M936 62v-62h-43c-56 0 -99.333 18 -130 54c-24 -36 -62.667 -54 -116 -54h-627l33 62h132v548l62 35v-420c78 143.333 181.333 215 310 215c74.667 0 134 -25.667 178 -77c37.333 -44 56 -98.333 56 -163v-26c0 -74.667 37 -112 111 -112h34zM724 200
c0 56 -17.667 101 -53 135c-30 29.333 -67.667 44 -113 44c-78 0 -147.333 -37.667 -208 -113c-46 -56.667 -80 -124.667 -102 -204h392c32 0 54 7.5 66 22.5s18 42.5 18 82.5v33zM552 560c-27.333 0 -41 14 -41 42c0 26.667 13.667 40 41 40c26 0 39 -13.333 39 -40
c0 -28 -13 -42 -39 -42z" />
    <glyph glyph-name="uniFEC7" unicode="&#x638;" horiz-adv-x="837" arabic-form="initial" 
d="M221 225c78 143.333 181.333 215 310 215c74.667 0 134 -25.667 178 -77c37.333 -44 56 -98.333 56 -163v-35c0 -110 -48 -165 -144 -165h-631v62h169v548l62 35v-420zM698 200c0 56 -17.667 101 -53 135c-30 29.333 -67.667 44 -113 44
c-78 0 -147.333 -37.667 -208 -113c-46 -56.667 -80 -124.667 -102 -204h392c32 0 54 7.5 66 22.5s18 42.5 18 82.5v33zM525 560c-27.333 0 -41 14 -41 42c0 26.667 13.667 40 41 40c26 0 39 -13.333 39 -40c0 -28 -13 -42 -39 -42z" />
    <glyph glyph-name="uniFEC8" unicode="&#x638;" horiz-adv-x="900" arabic-form="medial" 
d="M910 62v-62h-43c-56 0 -99.333 18 -130 54c-24 -36 -62.667 -54 -116 -54h-631v62h169v548l62 35v-420c78 143.333 181.333 215 310 215c74.667 0 134 -25.667 178 -77c37.333 -44 56 -98.333 56 -163v-26c0 -74.667 37 -112 111 -112h34zM698 200
c0 56 -17.667 101 -53 135c-30 29.333 -67.667 44 -113 44c-78 0 -147.333 -37.667 -208 -113c-46 -56.667 -80 -124.667 -102 -204h392c32 0 54 7.5 66 22.5s18 42.5 18 82.5v33zM525 560c-27.333 0 -41 14 -41 42c0 26.667 13.667 40 41 40c26 0 39 -13.333 39 -40
c0 -28 -13 -42 -39 -42z" />
    <glyph glyph-name="uniFECA" unicode="&#x639;" horiz-adv-x="663" arabic-form="final" 
d="M313 25l-32.998 -19l-2 -1c-54.667 -30.667 -91.167 -57 -109.5 -79s-27.5 -51.333 -27.5 -88c0 -44 15.167 -80.167 45.5 -108.5s69.5 -42.5 117.5 -42.5h2c76 0 137 17 183 51v-61c-54.667 -34.667 -116.334 -52 -185.001 -52c-72 0 -129.333 23.667 -172 71
c-35.333 40 -53 88 -53 144c0 47.333 11.667 85.333 35 114s70.333 62.667 141 102c-58 39.333 -119.333 105 -184 197v41c69.333 97.333 151 146 245 146c44 0 87.667 -13 131 -39s81.666 -62.333 114.999 -109v-39c-46 -63.333 -107.667 -125 -185 -185
c17.333 -4 35.333 -6 54 -6h242v-62h-246c-39.333 -0 -77.333 8.33301 -114 25zM129.002 272c70 -92 131.667 -152 185 -180c68.667 48 132 108.667 190 182c-53.333 70 -116 105 -188 105h-3c-68.667 0 -130 -35.667 -184 -107z" />
    <glyph glyph-name="uniFECB" unicode="&#x639;" horiz-adv-x="552" arabic-form="initial" 
d="M502 62v-62h-512v62h168c-42 42.667 -63 99.334 -63 170.001c0 67.333 23 120.666 69 159.999c36.667 31.333 79.667 47.333 129 48c68.667 0 122.334 -27 161.001 -81v-66c-40 57.333 -91.333 86 -154 86h-3c-40 0 -72.5 -13.667 -97.5 -41s-37.5 -63.333 -37.5 -108
c0 -51.333 15.333 -92.333 46 -123c29.333 -30 68.666 -45 117.999 -45h176z" />
    <glyph glyph-name="uniFECC" unicode="&#x639;" horiz-adv-x="694" arabic-form="medial" 
d="M704 0h-246.999c-36 0 -72.667 7.66699 -110 23c-38 -15.333 -75 -23 -111 -23h-246v62h242c13.333 0 27 1 41 3c-52.667 38 -110 100.667 -172 188v41c69.333 97.333 151 146 245 146c93.333 0 175.333 -49.333 246 -148v-39c-62 -87.333 -119 -150 -171 -188
c13.333 -2 26.666 -3 39.999 -3h242zM159.001 273c70 -93.333 132.333 -154 187 -182c54 28 116.667 89 188 183c-53.333 70 -116 105 -188 105h-3c-68 0 -129.333 -35.333 -184 -106z" />
    <glyph glyph-name="uniFECE" unicode="&#x63a;" horiz-adv-x="663" arabic-form="final" 
d="M323 560c-27.333 0 -41 14 -41 42c0 26.667 13.667 40 41 40c26 0 39 -13.333 39 -40c0 -28 -13 -42 -39 -42zM313 25l-32.998 -19l-2 -1c-54.667 -30.667 -91.167 -57 -109.5 -79s-27.5 -51.333 -27.5 -88c0 -44 15.167 -80.167 45.5 -108.5s69.5 -42.5 117.5 -42.5h2
c76 0 137 17 183 51v-61c-54.667 -34.667 -116.334 -52 -185.001 -52c-72 0 -129.333 23.667 -172 71c-35.333 40 -53 88 -53 144c0 47.333 11.667 85.333 35 114s70.333 62.667 141 102c-58 39.333 -119.333 105 -184 197v41c69.333 97.333 151 146 245 146
c44 0 87.667 -13 131 -39s81.666 -62.333 114.999 -109v-39c-46 -63.333 -107.667 -125 -185 -185c17.333 -4 35.333 -6 54 -6h242v-62h-246c-39.333 -0 -77.333 8.33301 -114 25zM129.002 272c70 -92 131.667 -152 185 -180c68.667 48 132 108.667 190 182
c-53.333 70 -116 105 -188 105h-3c-68.667 0 -130 -35.667 -184 -107z" />
    <glyph glyph-name="uniFECF" unicode="&#x63a;" horiz-adv-x="552" arabic-form="initial" 
d="M290 560c-27.333 0 -41 14 -41 42c0 26.667 13.667 40 41 40c26 0 39 -13.333 39 -40c0 -28 -13 -42 -39 -42zM502 62v-62h-512v62h168c-42 42.667 -63 99.334 -63 170.001c0 67.333 23 120.666 69 159.999c36.667 31.333 79.667 47.333 129 48
c68.667 0 122.334 -27 161.001 -81v-66c-40 57.333 -91.333 86 -154 86h-3c-40 0 -72.5 -13.667 -97.5 -41s-37.5 -63.333 -37.5 -108c0 -51.333 15.333 -92.333 46 -123c29.333 -30 68.666 -45 117.999 -45h176z" />
    <glyph glyph-name="uniFED0" unicode="&#x63a;" horiz-adv-x="694" arabic-form="medial" 
d="M346 560c-27.333 0 -41 14 -41 42c0 26.667 13.667 40 41 40c26 0 39 -13.333 39 -40c0 -28 -13 -42 -39 -42zM704 0h-246.999c-36 0 -72.667 7.66699 -110 23c-38 -15.333 -75 -23 -111 -23h-246v62h242c13.333 0 27 1 41 3c-52.667 38 -110 100.667 -172 188v41
c69.333 97.333 151 146 245 146c93.333 0 175.333 -49.333 246 -148v-39c-62 -87.333 -119 -150 -171 -188c13.333 -2 26.666 -3 39.999 -3h242zM159.001 273c70 -93.333 132.333 -154 187 -182c54 28 116.667 89 188 183c-53.333 70 -116 105 -188 105h-3
c-68 0 -129.333 -35.333 -184 -106z" />
    <glyph glyph-name="uniFED2" unicode="&#x641;" horiz-adv-x="955" arabic-form="final" 
d="M691 557c-27.333 0 -41 14 -41 42c0 26.667 13.667 40 41 40c26 0 39 -13.333 39 -40c0 -28 -13 -42 -39 -42zM790 62h175.001v-62h-218c-22.667 -0 -43.334 2.33301 -62.001 7c-18.667 -4.66699 -39.334 -7 -62.001 -7h-371c-49.333 0 -88.666 15.5 -117.999 46.5
s-44 72.833 -44 125.5v131l67 35v-158c0 -78.667 36.667 -118 110 -118h313c-52 48 -78 105.667 -78 173c0 64.667 18 116 54 154c32.667 34 75.667 51 129 51c60.667 0 107.667 -22 141 -66c28 -36.667 42 -83 42 -139c0 -67.333 -26 -125 -78 -173zM689.001 71
c34 12 61.668 33.332 83.001 63.999s32 64.334 32 101.001c0 44 -10.667 78.833 -32 104.5s-50.333 38.5 -87 38.5s-65.834 -12.833 -87.501 -38.5s-32.5 -60.167 -32.5 -103.5c0 -36.667 10.833 -70.5 32.5 -101.5s49.5 -52.5 83.5 -64.5l4 -1l2 1h2z" />
    <glyph glyph-name="uniFED3" unicode="&#x641;" horiz-adv-x="538" arabic-form="initial" 
d="M294 558c-27.333 0 -41 14 -41 42c0 26.667 13.667 40 41 40c26 0 39 -13.333 39 -40c0 -28 -13 -42 -39 -42zM-10 0v61.999h170c-36.667 36.667 -55 89.334 -55 158.001c0 72 18.667 127.667 56 167c32.667 35.333 76 53 130 53c55.333 0 98 -17.333 128 -52
c26 -30 39 -70 39 -120v-97c-0.666992 -54 -17 -96.333 -49 -127c-29.333 -29.333 -69.333 -44 -120 -44h-299zM392 261.999c0 78 -33.667 117.001 -101 117.001c-37.333 0 -66.5 -13.833 -87.5 -41.5s-31.5 -66.5 -31.5 -116.5c0 -48.667 10.167 -87.334 30.5 -116.001
s47.5 -43 81.5 -43c72 0 108 37.333 108 112v88z" />
    <glyph glyph-name="uniFED4" unicode="&#x641;" horiz-adv-x="556" arabic-form="medial" 
d="M281 557c-27.333 0 -41 14 -41 42c0 26.667 13.667 40 41 40c26 0 39 -13.333 39 -40c0 -28 -13 -42 -39 -42zM383 62l183.002 -0.000976562v-62h-226c-22.667 0 -43.334 2.33301 -62.001 7c-18.667 -4.66699 -39.334 -7 -62.001 -7h-226v62h184
c-52.667 48.667 -79 106.334 -79 173.001c0 64.667 18 116 54 154c32.667 34 75.667 51 129 51c60.667 0 107.667 -22 141 -66c28 -36.667 42 -83 42 -139c0 -67.333 -26 -125 -78 -173zM282.002 70.999c34 12 61.834 33.5 83.501 64.5s32.5 64.5 32.5 100.5
c0 44 -10.833 78.833 -32.5 104.5s-50.834 38.5 -87.501 38.5s-65.667 -12.833 -87 -38.5s-32 -60.167 -32 -103.5c0 -36.667 10.667 -70.5 32 -101.5s49 -52.5 83 -64.5l4 -1l2 1h2z" />
    <glyph glyph-name="uniFED6" unicode="&#x642;" horiz-adv-x="750" arabic-form="final" 
d="M428 557c-27.333 0 -41 14 -41 42c0 26.667 13.667 40 41 40c26 0 39 -13.333 39 -40c0 -28 -13 -42 -39 -42zM542 557c-27.333 0 -41 14 -41 42c0 26.667 13.667 40 41 40c26 0 39 -13.333 39 -40c0 -28 -13 -42 -39 -42zM652 0
c-16 -126.667 -113.333 -189.999 -292 -189.999c-102.667 0 -180 30 -232 90c-38.667 44.667 -58 99.667 -58 165c0 57.333 14.667 106.666 44 147.999l65 13c-32 -48.667 -48 -100.667 -48 -156c0 -60.667 21 -109 63 -145c40.667 -35.333 96 -53 166 -53
c134.667 0 209 43 223 129l-27 2c-94 4 -161 25 -201 63c-36 34.667 -54 86 -54 154c0 72 18.667 127.667 56 167c32.667 35.333 76 53 130 53c55.333 0 98 -17.333 128 -52c26 -30 39 -70 39 -120v-206h106v-62h-108zM587 62.001v200.001c0 78 -33.333 117 -100 117
c-38 0 -67.5 -14 -88.5 -42s-31.5 -66.667 -31.5 -116c0 -55.333 14.167 -94.833 42.5 -118.5s77.5 -36.834 147.5 -39.501z" />
    <glyph glyph-name="uniFED7" unicode="&#x642;" horiz-adv-x="538" arabic-form="initial" 
d="M235 557c-27.333 0 -41 14 -41 42c0 26.667 13.667 40 41 40c26 0 39 -13.333 39 -40c0 -28 -13 -42 -39 -42zM349 557c-27.333 0 -41 14 -41 42c0 26.667 13.667 40 41 40c26 0 39 -13.333 39 -40c0 -28 -13 -42 -39 -42zM-10 0v61.999h170
c-36.667 36.667 -55 89.334 -55 158.001c0 72 18.667 127.667 56 167c32.667 35.333 76 53 130 53c55.333 0 98 -17.333 128 -52c26 -30 39 -70 39 -120v-97c-0.666992 -54 -17 -96.333 -49 -127c-29.333 -29.333 -69.333 -44 -120 -44h-299zM392 261.999
c0 78 -33.667 117.001 -101 117.001c-37.333 0 -66.5 -13.833 -87.5 -41.5s-31.5 -66.5 -31.5 -116.5c0 -48.667 10.167 -87.334 30.5 -116.001s47.5 -43 81.5 -43c72 0 108 37.333 108 112v88z" />
    <glyph glyph-name="uniFED8" unicode="&#x642;" horiz-adv-x="556" arabic-form="medial" 
d="M222 557c-27.333 0 -41 14 -41 42c0 26.667 13.667 40 41 40c26 0 39 -13.333 39 -40c0 -28 -13 -42 -39 -42zM336 557c-27.333 0 -41 14 -41 42c0 26.667 13.667 40 41 40c26 0 39 -13.333 39 -40c0 -28 -13 -42 -39 -42zM383 62l183.002 -0.000976562v-62h-226
c-22.667 0 -43.334 2.33301 -62.001 7c-18.667 -4.66699 -39.334 -7 -62.001 -7h-226v62h184c-52.667 48.667 -79 106.334 -79 173.001c0 64.667 18 116 54 154c32.667 34 75.667 51 129 51c60.667 0 107.667 -22 141 -66c28 -36.667 42 -83 42 -139
c0 -67.333 -26 -125 -78 -173zM282.002 70.999c34 12 61.834 33.5 83.501 64.5s32.5 64.5 32.5 100.5c0 44 -10.833 78.833 -32.5 104.5s-50.834 38.5 -87.501 38.5s-65.667 -12.833 -87 -38.5s-32 -60.167 -32 -103.5c0 -36.667 10.667 -70.5 32 -101.5s49 -52.5 83 -64.5
l4 -1l2 1h2z" />
    <glyph glyph-name="uniFEDA" unicode="&#x643;" horiz-adv-x="913" arabic-form="final" 
d="M889 62h33.999v-62h-43c-60 -0 -105 20.333 -135 61c-30 -40.667 -75.333 -61 -136 -61h-357c-49.333 0 -88.666 15.5 -117.999 46.5s-44 72.833 -44 125.5v131l67 35v-158c0 -78.667 36.667 -118 110 -118h335c72.667 0 109 39.333 109 118v430l67 35v-469
c0 -76 37 -114 111 -114zM429.999 477c27.333 0 49 -7.33203 65 -21.999s24 -34.334 24 -59.001c0 -22 -6.5 -39.5 -19.5 -52.5s-30.167 -19.5 -51.5 -19.5h-124l19 35h102c25.333 0 38 12.667 38 38c0 30.667 -19.333 46 -58 46c-20 0 -37 -4 -51 -12v34l82 92h42l-69 -80
h1z" />
    <glyph glyph-name="uniFEDB" unicode="&#x643;" horiz-adv-x="471" arabic-form="initial" 
d="M148 413c6.66699 0.666992 13.667 1 21 1c60 0 111.333 -14.667 154 -44c58.667 -42 88 -102 88 -180v-19c0 -56 -17.333 -99.667 -52 -131c-30 -26.667 -69 -40 -117 -40h-252v62h245c72.667 0 109 39 109 117v10c0 54 -19.333 94.333 -58 121
c-32 24 -72.667 36 -122 36c-36 0 -71.667 -6.33301 -107 -19v66l227 252h69z" />
    <glyph glyph-name="uniFEDC" unicode="&#x643;" horiz-adv-x="536" arabic-form="medial" 
d="M521 62h25v-62h-33c-60 -0 -105 20.333 -135 61c-30 -40.667 -75.333 -61 -136 -61h-252v62h245c72.667 0 109 39 109 117v10c0 54.667 -20 95.667 -60 123c-32 22.667 -72 34 -120 34c-36 0 -71.667 -6.33301 -107 -19v66l227 252h69l-205 -232
c6.66699 0.666992 13.667 1 21 1c64 0 117.333 -16.333 160 -49c54.667 -42 82 -100.333 82 -175v-14c0 -76 36.667 -114 110 -114z" />
    <glyph glyph-name="uniFEDE" unicode="&#x644;" horiz-adv-x="724" arabic-form="final" 
d="M699 62l35.001 0.000976562v-62h-43c-42.667 0 -78.334 10.667 -107.001 32c-5.33301 -70.667 -33.666 -126.334 -84.999 -167.001c-46 -36.667 -104 -55 -174 -55c-86.667 0 -153.334 29.667 -200.001 89c-36.667 46 -55 101 -55 165c0 58 14.667 107 44 147l66 15
c-32.667 -48 -49 -100.667 -49 -158c0 -58.667 19 -106.667 57 -144c36 -35.333 81.667 -53 137 -53c64 0 113.667 19.333 149 58c30 32 45 73.667 45 125v556l66 35v-470v-2c0 -74 38 -111 114 -111z" />
    <glyph glyph-name="uniFEDF" unicode="&#x644;" horiz-adv-x="289" arabic-form="initial" 
d="M-10 0l-0.000976562 62.001h28c76 0 114 39.333 114 118v430l67 35v-466c0 -56.667 -16.667 -101.334 -50 -134.001c-31.333 -30 -72.666 -45 -123.999 -45h-35z" />
    <glyph glyph-name="uniFEE0" unicode="&#x644;" horiz-adv-x="334" arabic-form="medial" 
d="M309 62h34.999v-62h-43c-61.333 0 -107 21 -137 63c-31.333 -42 -77.666 -63 -138.999 -63h-35v62h28c76 0 114 39.333 114 118v430l67 35v-469c0 -76 36.667 -114 110 -114z" />
    <glyph glyph-name="uniFEE2" unicode="&#x645;" horiz-adv-x="627" arabic-form="final" 
d="M603 62h34v-62h-43c-59.333 0 -104 20 -134 60c-30.667 -39.333 -76 -59.333 -136 -60h-127c-73.333 0 -110 -38 -110 -114v-166l-67 -35v203c0 55.333 16.333 98.666 49 129.999c29.333 28.667 68.333 43.334 117 44.001c-31.333 40 -47 92.667 -47 158
c0 72 18.667 127.667 56 167c32.667 35.333 76 53 130 53c55.333 0 98 -17.333 128 -52c26 -30 39 -70 39 -120v-92c0 -76 37 -114 111 -114zM425 172v90c0 78 -33.333 117 -100 117c-38 0 -67.5 -14 -88.5 -42s-31.5 -66.667 -31.5 -116c0 -50 10 -89 30 -117
s47.667 -42 83 -42c71.333 0 107 36.667 107 110z" />
    <glyph glyph-name="uniFEE3" unicode="&#x645;" horiz-adv-x="563" arabic-form="initial" 
d="M135 268c0 56.667 17.001 100.668 51.001 132.001c29.333 26.667 68 40 116 40c62 0 109.667 -22.667 143 -68c28.667 -38.667 43 -89.334 43 -152.001c0 -71.333 -18.333 -127 -55 -167c-32 -35.333 -73.667 -53 -125 -53c-62.667 0 -109.334 20 -140.001 60
c-30 -40 -75 -60 -135 -60h-43v62h35c73.333 0 110 38 110 114v92zM202.001 172.001c0 -73.333 36 -110 108 -110c34.667 0 62 14 82 42s30 67 30 117c0 49.333 -10.5 88 -31.5 116s-50.5 42 -88.5 42c-66.667 0 -100 -39 -100 -117v-90z" />
    <glyph glyph-name="uniFEE4" unicode="&#x645;" horiz-adv-x="643" arabic-form="medial" 
d="M619 62l34 -0.000976562v-62h-43c-60.667 0 -106 21 -136 63c-33.333 -55.333 -84 -83 -152 -83c-68.667 0 -119.334 27.333 -152.001 82c-30.667 -41.333 -76.334 -62 -137.001 -62h-43v62h35c73.333 0 110 38 110 114v34c0 76.667 18.667 135.334 56 176.001
c32.667 36 76.334 54 131.001 54c62.667 0 110.334 -23.333 143.001 -70c28.667 -40 43 -93.333 43 -160v-34c0 -76 37 -114 111 -114zM322 41.999c36.667 0 65.667 15.167 87 45.5s32 71.5 32 123.5c0 112 -39.667 168 -119 168c-80 0 -120 -56 -120 -168
c0 -112.667 40 -169 120 -169z" />
    <glyph glyph-name="uniFEE6" unicode="&#x646;" horiz-adv-x="714" arabic-form="final" 
d="M319 458c-27.333 0 -41 14 -41 42c0 26.667 13.667 40 41 40c26 0 39 -13.333 39 -40c0 -28 -13 -42 -39 -42zM689 62l34.999 0.000976562v-62h-43c-41.333 0 -75.666 9.66699 -102.999 29c-4.66699 -70 -32.667 -125 -84 -165c-45.333 -36 -102.666 -54 -171.999 -54
c-84.667 0 -150.334 30 -197.001 90c-36.667 46 -55 101 -55 165c0 57.333 14.667 106.666 44 147.999l65 13c-32 -48.667 -48 -100.667 -48 -156c0 -58.667 19 -107 57 -145c35.333 -35.333 80 -53 134 -53c63.333 0 112.333 18.667 147 56c28.667 30.667 43 71 43 121v344
l67 35v-252c0 -76 36.667 -114 110 -114z" />
    <glyph glyph-name="uniFEE7" unicode="&#x646;" horiz-adv-x="292" arabic-form="initial" 
d="M164 560c-27.333 0 -41 14 -41 42c0 26.667 13.667 40 41 40c26 0 39 -13.333 39 -40c0 -28 -13 -42 -39 -42zM-10 0v62h35c73.333 0 110 38 110 114v217l67 35v-254c0 -56 -16.333 -99.667 -49 -131c-30 -28.667 -70 -43 -120 -43h-43z" />
    <glyph glyph-name="uniFEE8" unicode="&#x646;" horiz-adv-x="337" arabic-form="medial" 
d="M157 560c-27.333 0 -41 14 -41 42c0 26.667 13.667 40 41 40c26 0 39 -13.333 39 -40c0 -28 -13 -42 -39 -42zM312 62h34.999v-62h-43c-60 -0 -105 20.333 -135 61c-31.333 -40.667 -76.666 -61 -135.999 -61h-43v62h35c73.333 0 110 38 110 114v217l67 35v-252
c0 -76 36.667 -114 110 -114z" />
    <glyph glyph-name="uniFEEA" unicode="&#x647;" horiz-adv-x="518" arabic-form="final" 
d="M494 62l34.001 -0.000976562v-62h-43c-71.333 0 -121 28 -149 84c-34.667 -36 -77.334 -54 -128.001 -54c-57.333 0 -102.666 21.667 -135.999 65c-28 36.667 -42 82.334 -42 137.001c0 64 18.667 115.333 56 154c32.667 34 73 51 121 51
c43.333 0 79.666 -12.667 108.999 -38v54l67 35v-312c0 -76 37 -114 111 -114zM316.001 322.999c-29.333 35.333 -65 53 -107 53c-33.333 0 -60.5 -13.5 -81.5 -40.5s-31.5 -61.833 -31.5 -104.5c0 -43.333 10.5 -78 31.5 -104s48.5 -39 82.5 -39c43.333 0 79.333 19 108 57
c-1.33301 12 -2 21.667 -2 29v149z" />
    <glyph glyph-name="uniFEEB" unicode="&#x647;" horiz-adv-x="612" arabic-form="initial" 
d="M91 293c14 55.333 40.5 99.166 79.5 131.499s84.833 48.5 137.5 48.5c67.333 0 123.333 -23.667 168 -71c42 -45.333 63 -103 63 -173v-57c0 -56.667 -17.333 -100.667 -52 -132c-29.333 -26.667 -68.333 -40 -117 -40h-99c-23.333 0 -45 3.33301 -65 10
c-20 -6.66699 -41 -10 -63 -10h-153v62h128c-36 36 -54 80.333 -54 133c0 38.667 9 71.334 27 98.001zM473 180v49c0 60 -19.333 107.333 -58 142c-31.333 27.333 -68 41 -110 41c-56 0 -98.667 -21.667 -128 -65c10 2 20 3 30 3c42.667 0 77 -14.167 103 -42.5
s39 -65.833 39 -112.5c0 -52.667 -18 -97 -54 -133h70c72 0 108 39.333 108 118zM207 71c60.667 20 91 62 91 126c0 31.333 -8.16699 56.5 -24.5 75.5s-38.5 28.5 -66.5 28.5s-50.333 -9.33301 -67 -28s-25 -44 -25 -76c0 -64 30.667 -106 92 -126z" />
    <glyph glyph-name="uniFEEC" unicode="&#x647;" horiz-adv-x="675" arabic-form="medial" 
d="M650 62h35v-62h-43c-60.667 -0 -106 20.333 -136 61c-30 -40.667 -75.333 -61 -136 -61h-99c-23.333 -0 -45 3.33301 -65 10c-20 -6.66699 -41 -10 -63 -10h-153v62h128c-36 36 -54 80.333 -54 133c0 38.667 9 71.334 27 98.001c14 55.333 40.5 99.166 79.5 131.499
s84.833 48.5 137.5 48.5c67.333 0 123.333 -23.667 168 -71c42 -45.333 63 -103 63 -173v-53c0 -76 37 -114 111 -114zM365 62c72 0 108 39.333 108 118v49c0 60 -19.333 107.333 -58 142c-31.333 27.333 -68 41 -110 41c-56 0 -98.667 -21.667 -128 -65c10 2 20 3 30 3
c42.667 0 77 -14.167 103 -42.5s39 -65.833 39 -112.5c0 -52.667 -18 -97 -54 -133h70zM207 71c60.667 20 91 62 91 126c0 31.333 -8.16699 56.5 -24.5 75.5s-38.5 28.5 -66.5 28.5s-50.333 -9.33301 -67 -28s-25 -44 -25 -76c0 -64 30.667 -106 92 -126z" />
    <glyph glyph-name="uniFEEE" unicode="&#x648;" horiz-adv-x="519" arabic-form="final" 
d="M529 62l0.00195312 -61.999h-106c-0.666992 -44 -14.834 -82.833 -42.501 -116.5s-63.5 -55.834 -107.5 -66.501c-16 -4.66699 -33.333 -7 -52 -7c-38.667 0 -76.334 9.33301 -113.001 28v59c34.667 -18.667 69 -28 103 -28c27.333 0 51.333 6 72 18
c20.667 10.667 38 26.834 52 48.501s21 43.167 21 64.5l-85 3c-74 3.33301 -129.333 26.666 -166 69.999c-30 36.667 -45 85.667 -45 147c0 72 18.667 127.667 56 167c33.333 35.333 78 53 134 53c58 0 102.333 -17.333 133 -52c26.667 -30 40 -70 40 -120v-206h106z
M356.002 261.001c0 78.667 -35.333 118 -106 118c-39.333 0 -69.833 -13.833 -91.5 -41.5s-32.5 -66.5 -32.5 -116.5c0 -99.333 49 -151.333 147 -156c29.333 -2 57 -3 83 -3v199z" />
    <glyph glyph-name="uniFEF0" unicode="&#x649;" horiz-adv-x="633" arabic-form="final" 
d="M653 0c-5.33301 -57.333 -35.332 -103.666 -89.999 -138.999c-52.667 -34 -120.334 -51 -203.001 -51c-102.667 0 -180 30 -232 90c-38.667 44.667 -58 99.667 -58 165c0 57.333 14.667 106.666 44 147.999l65 13c-32 -48.667 -48 -100.667 -48 -156
c0 -61.333 21 -110.333 63 -147c40 -35.333 95.333 -53 166 -53c72.667 0 129.667 15.333 171 46c30.667 22.667 48.667 50.667 54 84h-102l32 62h141v-62h-3z" />
    <glyph glyph-name="uniFEF2" unicode="&#x64a;" horiz-adv-x="633" arabic-form="final" 
d="M653 0c-5.33301 -57.333 -35.332 -103.666 -89.999 -138.999c-52.667 -34 -120.334 -51 -203.001 -51c-102.667 0 -180 30 -232 90c-38.667 44.667 -58 99.667 -58 165c0 57.333 14.667 106.666 44 147.999l65 13c-32 -48.667 -48 -100.667 -48 -156
c0 -61.333 21 -110.333 63 -147c40 -35.333 95.333 -53 166 -53c72.667 0 129.667 15.333 171 46c30.667 22.667 48.667 50.667 54 84h-102l32 62h141v-62h-3zM297.001 -355c-27.333 0 -41 13.667 -41 41s13.667 41 41 41c26 0 39 -13.667 39 -41s-13 -41 -39 -41z
M411.001 -355c-26.667 0 -40 13.667 -40 41s13.333 41 40 41s40 -13.667 40 -41s-13.333 -41 -40 -41z" />
    <glyph glyph-name="uniFEF3" unicode="&#x64a;" horiz-adv-x="292" arabic-form="initial" 
d="M-10 0v62h35c73.333 0 110 38 110 114v217l67 35v-254c0 -56 -16.333 -99.667 -49 -131c-30 -28.667 -70 -43 -120 -43h-43zM23 -187c-27.333 0 -41 14 -41 42c0 26.667 13.667 40 41 40c26 0 39 -13.333 39 -40c0 -28 -13 -42 -39 -42zM137 -187
c-27.333 0 -41 14 -41 42c0 26.667 13.667 40 41 40c26 0 39 -13.333 39 -40c0 -28 -13 -42 -39 -42z" />
    <glyph glyph-name="uniFEF4" unicode="&#x64a;" horiz-adv-x="337" arabic-form="medial" 
d="M312 62h34.999v-62h-43c-60 -0 -105 20.333 -135 61c-31.333 -40.667 -76.666 -61 -135.999 -61h-43v62h35c73.333 0 110 38 110 114v217l67 35v-252c0 -76 36.667 -114 110 -114zM84.999 -105c26.667 0 40 -13.667 40 -41s-13.333 -41 -40 -41s-40 13.667 -40 41
s13.333 41 40 41zM198.999 -105c26.667 0 40 -13.667 40 -41s-13.333 -41 -40 -41s-40 13.667 -40 41s13.333 41 40 41z" />
    <glyph glyph-name=".notdef" horiz-adv-x="240" 
d="M24 0v633h192v-633h-192zM192 24v585h-144v-585h144z" />
    <glyph glyph-name="space" unicode=" " horiz-adv-x="240" 
 />
    <glyph glyph-name="space" unicode="&#xa0;" horiz-adv-x="240" 
 />
    <glyph glyph-name="exclam" unicode="!" horiz-adv-x="216" 
d="M73 149v484h67v-484h-67zM150 36l0.000976562 -2c0 -28.667 -13.667 -43 -41 -43c-28.667 0 -43 14.667 -43 44c1.33301 27.333 15.666 41 42.999 41s41 -13.333 41 -40z" />
    <glyph glyph-name="quotedbl" unicode="&#x22;" horiz-adv-x="276" 
d="M70 485v133l50 27v-133zM155 485v133l51 27v-133z" />
    <glyph glyph-name="numbersign" unicode="#" horiz-adv-x="497" 
d="M343 147l-30 -147h-53l30 147h-145l-31 -147h-53l31 147h-77v55h88l41 197h-95v55h106l33 155h53l-33 -155h146l32 155h53l-32 -155h75v-55h-87l-40 -197h94v-55h-106zM197 399l-41 -197h146l40 197h-145z" />
    <glyph glyph-name="dollar" unicode="$" horiz-adv-x="532" 
d="M287 700l-0.00195312 -56c54 -2.66699 105 -19.667 153 -51l-33 -45c-38 20 -78 31 -120 33v-213c64 -25.333 109.5 -53.5 136.5 -84.5s40.5 -70.167 40.5 -117.5c0 -49.333 -16.167 -90 -48.5 -122s-75.166 -50.333 -128.499 -55v-63h-35v63
c-63.333 2 -124.666 22.667 -183.999 62l32 45c46.667 -26.667 96 -40.334 148 -41.001h4v253c-64 22.667 -110 47.834 -138 75.501s-42 61.5 -42 101.5c0 45.333 16.5 82.5 49.5 111.5s76.5 45.167 130.5 48.5v55h35zM286.998 294v-238c66.667 10 100 47.333 100 112
c0 54 -33.333 96 -100 126zM251.998 383v197.001c-67.333 -6.66699 -101 -37.334 -101 -92.001c0 -42 33.667 -77 101 -105z" />
    <glyph glyph-name="percent" unicode="%" horiz-adv-x="700" 
d="M178 0l291 565h58l-291 -565h-58zM278 412c0 -46.667 -10.167 -83.999 -30.5 -111.999s-47.5 -42 -81.5 -42c-36 0 -64.333 13.667 -85 41s-31 64.666 -31 111.999c0 45.333 10.333 81 31 107s49 39 85 39c32.667 0 59.5 -13.5 80.5 -40.5s31.5 -61.833 31.5 -104.5z
M230 410.001c0 30 -6.33105 55.001 -18.998 75.001s-28.334 30 -47.001 30c-19.333 0 -35.333 -9.83301 -48 -29.5s-19 -44.834 -19 -75.501c0 -32.667 6.16699 -59.167 18.5 -79.5s28.5 -30.5 48.5 -30.5c19.333 0 35.166 10.333 47.499 31s18.5 47 18.5 79z
M650.002 156.002c0 -46.667 -10.333 -84 -31 -112s-48 -42 -82 -42c-36 0 -64.167 13.5 -84.5 40.5s-30.5 64.5 -30.5 112.5c0 44.667 10.333 80.167 31 106.5s48.667 39.5 84 39.5c33.333 0 60.5 -13.5 81.5 -40.5s31.5 -61.833 31.5 -104.5zM601.002 154.002
c0 30 -6.16797 55.001 -18.501 75.001s-28.166 30 -47.499 30s-35.166 -9.83301 -47.499 -29.5s-18.5 -44.834 -18.5 -75.501c0 -32.667 6 -59.167 18 -79.5s28 -30.5 48 -30.5c19.333 0 35.166 10.167 47.499 30.5s18.5 46.833 18.5 79.5z" />
    <glyph glyph-name="ampersand" unicode="&#x26;" horiz-adv-x="561" 
d="M417 329l71.999 0.00195312v-39c0 -82.667 -12.667 -143.334 -38 -182.001l95 -108h-83l-48 54c-38 -44 -91 -66 -159 -66c-60 0 -109 19 -147 57c-32.667 33.333 -49 74 -49 122c0 34.667 9.16699 68 27.5 100s42.833 57.667 73.5 77l-13 15
c-48 53.333 -72 101.333 -72 144c0 42 14.667 76.167 44 102.5s67.666 39.5 114.999 39.5c44.667 0 89.334 -15.333 134.001 -46l-29 -46c-35.333 18.667 -70.666 28 -105.999 28c-26 0 -46.833 -7 -62.5 -21s-23.5 -32 -23.5 -54c0 -34.667 23.667 -79 71 -133l184 -210
c9.33301 19.333 14 56.666 14 111.999v54zM198.999 303.002c-17.333 -12 -32.001 -29.667 -44.001 -53s-18 -46.333 -18 -69c0 -38.667 11.333 -69.667 34 -93s53 -35 91 -35c44.667 0 80.334 17.333 107.001 52z" />
    <glyph glyph-name="quotesingle" unicode="'" horiz-adv-x="190" 
d="M70 485v133l50 27v-133z" />
    <glyph glyph-name="parenleft" unicode="(" horiz-adv-x="368" 
d="M232 645h59.999c-87.333 -124 -131 -254.333 -131 -391c0 -144 43.667 -275.333 131 -394h-60c-40 40 -73.5 98 -100.5 174s-40.5 149.333 -40.5 220c0 70 13.333 142.167 40 216.5s60.334 132.5 101.001 174.5z" />
    <glyph glyph-name="parenright" unicode=")" horiz-adv-x="368" 
d="M74 645h60c40 -42 73.5 -100.167 100.5 -174.5s40.5 -146.5 40.5 -216.5c0 -90 -19.667 -178 -59 -264c-26 -58 -53.333 -101.333 -82 -130h-60c87.333 118.667 131 250 131 394c0 136.667 -43.667 267 -131 391z" />
    <glyph glyph-name="asterisk" unicode="*" horiz-adv-x="332" 
d="M164 646l73 -21l-51 -105l112 28l6 -72l-117 14l62 -100l-68 -26l-22 113l-76 -90l-47 59l104 56l-111 44l42 62l84 -81z" />
    <glyph glyph-name="plus" unicode="+" horiz-adv-x="518" 
d="M228 200h-186v55h186v199h62v-199h186v-55h-186v-200h-62v200z" />
    <glyph glyph-name="comma" unicode="," horiz-adv-x="196" 
d="M65 -74c25.333 20 38 41 38 63c0 2.66699 -0.666992 6.66699 -2 12c-6.66699 -4.66699 -12.667 -7 -18 -7c-10 0 -18.833 4.33301 -26.5 13s-11.5 18.667 -11.5 30c0 12.667 4.16699 23.167 12.5 31.5s18.833 12.5 31.5 12.5c35.333 0 53 -24 53 -72
s-22 -83.667 -66 -107z" />
    <glyph glyph-name="hyphen" unicode="-" horiz-adv-x="276" 
d="M251 212h-226v55h226v-55z" />
    <glyph glyph-name="period" unicode="." horiz-adv-x="264" 
d="M174 40l0.000976562 -2c0 -28.667 -13.667 -43 -41 -43c-28.667 0 -43 14.667 -43 44c1.33301 27.333 15.666 41 42.999 41s41 -13.333 41 -40z" />
    <glyph glyph-name="slash" unicode="/" horiz-adv-x="327" 
d="M354 633l-316 -663h-63l317 663h62z" />
    <glyph glyph-name="zero" unicode="0" horiz-adv-x="552" 
d="M502 315c0 -104.667 -23.002 -187.001 -69.002 -247.001c-40 -53.333 -92.667 -80 -158 -80c-75.333 0 -133.666 34.333 -174.999 103c-34.667 58.667 -52 133.334 -52 224.001c0 101.333 23 183 69 245c41.333 56.667 94 85 158 85c72.667 0 130.334 -36 173.001 -108
c36 -60.667 54 -134.667 54 -222zM273.998 580.999c-46 0 -82 -23 -108 -69s-39 -109.667 -39 -191c0 -86.667 14 -154 42 -202c26 -44 61 -66 105 -66c46 0 82.333 23.833 109 71.5s40 113.167 40 196.5c0 85.333 -14.667 151 -44 197c-26 42 -61 63 -105 63z" />
    <glyph glyph-name="one" unicode="1" horiz-adv-x="375" 
d="M268 633v-633h-74v554l-127 -72l-37 53l164 98h74z" />
    <glyph glyph-name="two" unicode="2" horiz-adv-x="480" 
d="M50 0l0.00195312 66l177 194c43.333 48 73.666 87.5 90.999 118.5s26 62.167 26 93.5c0 32.667 -11.167 59 -33.5 79s-51.833 30 -88.5 30c-44 0 -87.333 -14 -130 -42l-31 44c55.333 42 114.666 63 177.999 63c56 0 101.333 -17.667 136 -53c32 -32 48 -72.333 48 -121
c0 -35.333 -9.5 -69.833 -28.5 -103.5s-54.5 -79.5 -106.5 -137.5l-151 -168h274v-63h-361z" />
    <glyph glyph-name="three" unicode="3" horiz-adv-x="496" 
d="M85 538l-29.999 44c47.333 42 104 63 170 63c54 0 98.667 -16 134 -48c32.667 -30 49 -68.333 49 -115c0 -33.333 -10 -62.833 -30 -88.5s-46.333 -42.5 -79 -50.5c42 -10 75 -29.333 99 -58s36 -63.334 36 -104.001c0 -67.333 -25.333 -118.666 -76 -153.999
c-37.333 -25.333 -81.333 -38 -132 -38c-64 0 -123.667 22 -179 66l32 43c42 -29.333 88 -44 138 -44c41.333 0 74.666 11.667 99.999 35s38 54.333 38 93c0 82 -49 123 -147 123h-82v63h82c37.333 0 66.833 9.66699 88.5 29s32.5 46 32.5 80c0 70 -39 105 -117 105
c-40.667 0 -83 -14.667 -127 -44z" />
    <glyph glyph-name="four" unicode="4" horiz-adv-x="553" 
d="M35 198l284 435h78v-435h116v-63h-116v-135h-73v135h-289v63zM109 198h215v333z" />
    <glyph glyph-name="five" unicode="5" horiz-adv-x="515" 
d="M410 570l-241.999 -0.000976562v-178c20 3.33301 43.333 5 70 5c67.333 0 120.666 -18.667 159.999 -56c36.667 -35.333 55 -83 55 -143c0 -66 -23.667 -119.333 -71 -160c-38.667 -33.333 -84.667 -50 -138 -50c-70 0 -130.667 22 -182 66l29 43
c42 -28.667 87.667 -43 137 -43c46 0 82 12.5 108 37.5s39 60.167 39 105.5c0 44.667 -14 79.334 -42 104.001s-67 37 -117 37c-33.333 0 -74 -4.33301 -122 -13v308h316v-63z" />
    <glyph glyph-name="six" unicode="6" horiz-adv-x="523" 
d="M438 595l-26 -42c-35.333 18.667 -73.666 28 -114.999 28c-44.667 0 -81 -20.333 -109 -61s-43.333 -95.334 -46 -164.001c36 37.333 79 56 129 56c53.333 0 97.666 -17.333 132.999 -52c38.667 -37.333 58 -89.666 58 -156.999c0 -60 -19.333 -111.333 -58 -154
c-36 -40.667 -81.333 -61 -136 -61c-73.333 0 -128 35 -164 105c-28 54 -42 121 -42 201c0 113.333 23.333 202 70 266c41.333 56.667 95 85 161 85c54.667 0 103 -16.667 145 -50zM138 287c0.666992 -76.667 13.333 -136.333 38 -179c22.667 -38 53 -57 91 -57
c34.667 0 62.667 13.833 84 41.5s32 64.5 32 110.5c0 48 -11 85 -33 111s-52.667 39 -92 39c-50 0 -90 -22 -120 -66z" />
    <glyph glyph-name="seven" unicode="7" horiz-adv-x="423" 
d="M42 570v63h346v-68l-244 -565h-78l248 570h-272z" />
    <glyph glyph-name="eight" unicode="8" horiz-adv-x="536" 
d="M196 339c-75.333 28.667 -113 75.999 -113 141.999c0 51.333 19 92.666 57 123.999c34 28 77 42 129 42c57.333 0 103.666 -18 138.999 -54c31.333 -31.333 47 -69.333 47 -114c0 -31.333 -10.167 -59.5 -30.5 -84.5s-48.166 -43.833 -83.499 -56.5
c40.667 -12.667 72.667 -33.667 96 -63s35 -63.666 35 -102.999c0 -57.333 -22.333 -103.666 -67 -138.999c-38.667 -30 -85 -45 -139 -45c-62 0 -112.667 19.333 -152 58c-34.667 34 -52 75.667 -52 125c0 40 12.333 75.5 37 106.5s57 51.5 97 61.5zM268 362.999
c34 8 60.833 22.667 80.5 44s29.5 46.333 29.5 75c0 30 -10 54.333 -30 73s-46.333 28 -79 28c-33.333 0 -59.833 -8.83301 -79.5 -26.5s-29.5 -41.5 -29.5 -71.5c0 -60 36 -100.667 108 -122zM266 313.999c-35.333 -4 -65 -19.501 -89 -46.501s-36 -58.167 -36 -93.5
c0 -36 11.667 -65.5 35 -88.5s53.333 -34.5 90 -34.5c37.333 0 67.833 11.333 91.5 34s35.5 52 35.5 88c0 36.667 -12 68.334 -36 95.001s-54.333 42 -91 46z" />
    <glyph glyph-name="nine" unicode="9" horiz-adv-x="523" 
d="M91 39l25.9971 42.001c35.333 -18.667 73.666 -28 114.999 -28c44 0 80 20.167 108 60.5s43.667 94.833 47 163.5c-36 -37.333 -79 -56 -129 -56c-53.333 0 -97.666 17.333 -132.999 52c-38.667 37.333 -58 89.666 -58 156.999c0 60 19 111.333 57 154
c36.667 40.667 82.334 61 137.001 61c72.667 0 127.334 -35 164.001 -105c28 -54 42 -121 42 -201c0 -113.333 -23.667 -202 -71 -266c-40.667 -56.667 -94 -85 -160 -85c-55.333 0 -103.666 17 -144.999 51zM390.997 347.001c-1.33301 76 -14.333 135.333 -39 178
c-22.667 38.667 -52.667 58 -90 58c-35.333 0 -63.5 -14 -84.5 -42s-31.5 -65 -31.5 -111c0 -48 10.833 -85 32.5 -111s52.5 -39 92.5 -39c50 0 90 22.333 120 67z" />
    <glyph glyph-name="colon" unicode=":" horiz-adv-x="224" 
d="M174 280l0.000976562 -2c0 -28.667 -13.667 -43 -41 -43c-28.667 0 -43 14.667 -43 44c1.33301 27.333 15.666 41 42.999 41s41 -13.333 41 -40zM174.001 40l0.000976562 -2c0 -28.667 -13.667 -43 -41 -43c-28.667 0 -43 14.667 -43 44
c1.33301 27.333 15.666 41 42.999 41s41 -13.333 41 -40z" />
    <glyph glyph-name="semicolon" unicode=";" horiz-adv-x="186" 
d="M65 -74c24.667 20 37 41 37 63c0 2.66699 -0.333008 6.66699 -1 12c-6.66699 -4.66699 -12.667 -7 -18 -7c-10.667 0 -19.667 4.33301 -27 13s-11 18.667 -11 30c0 12.667 4.16699 23.167 12.5 31.5s18.833 12.5 31.5 12.5c35.333 0 53 -24 53 -72s-22 -83.667 -66 -107z
M86 230c-29.333 2 -44.001 17.332 -44.001 45.999c0 12 4.33301 22.333 13 31s19 13 31 13c12.667 0 23.5 -4.16699 32.5 -12.5s13.5 -18.833 13.5 -31.5c0.666992 -29.333 -14.666 -44.666 -45.999 -45.999z" />
    <glyph glyph-name="less" unicode="&#x3c;" horiz-adv-x="517" 
d="M466 416l-378 -176l378 -192v-60l-424 214v77l424 198v-61z" />
    <glyph glyph-name="equal" unicode="=" horiz-adv-x="509" 
d="M467 272h-425v55h425v-55zM467 127h-425v55h425v-55z" />
    <glyph glyph-name="greater" unicode="&#x3e;" horiz-adv-x="517" 
d="M430 240l-378 176v61l424 -199v-77l-424 -214v61z" />
    <glyph glyph-name="question" unicode="?" horiz-adv-x="386" 
d="M186 145h-67.999v86c0 26.667 3.66699 46.5 11 59.5s24.333 30.5 51 52.5c59.333 48 89 95.333 89 142c0 30.667 -9.16699 55 -27.5 73s-42.833 27 -73.5 27c-34 0 -68.333 -9.66699 -103 -29l-23 40c44.667 32.667 93 49 145 49c45.333 0 82 -14 110 -42
s42 -64.333 42 -109c0 -63.333 -27.667 -118 -83 -164c-4.66699 -3.33301 -10.334 -8 -17.001 -14c-23.333 -19.333 -38 -34.5 -44 -45.5s-9 -28.167 -9 -51.5v-74zM152.001 -12c-14 0 -25.333 4.66699 -34 14s-13 21.333 -13 36c0 12.667 4.5 23.667 13.5 33
s20.167 14 33.5 14s24.833 -4.66699 34.5 -14s14.5 -20.333 14.5 -33c0 -14.667 -4.66699 -26.667 -14 -36s-21 -14 -35 -14z" />
    <glyph glyph-name="at" unicode="@" horiz-adv-x="698" 
d="M430 49c-20 -40.667 -53.998 -61.001 -101.998 -61.001c-36.667 0 -66.5 13.167 -89.5 39.5s-34.5 60.5 -34.5 102.5c0 52.667 15.333 94 46 124c24.667 24.667 54.667 37 90 37c29.333 0 56 -8.66699 80 -26l10 27h44v-185c0 -48 16.333 -72 49 -72
c22 0 39.333 12.5 52 37.5s19 59.167 19 102.5c0 83.333 -28.667 147 -86 191c-42.667 33.333 -92.334 50 -149.001 50c-77.333 0 -139.666 -26.333 -186.999 -79c-44 -48.667 -66 -112.667 -66 -192c0 -97.333 32.333 -170.333 97 -219c46.667 -35.333 102 -53 166 -53
c9.33301 0 18.333 0.333008 27 1l14 2v-48l-13 -1c-9.33301 -0.666992 -18.333 -1 -27 -1c-92.667 0 -169.667 29.333 -231 88c-60.667 58 -91 134 -91 228c0 105.333 34.333 188.333 103 249c56.667 50 126 75 208 75c85.333 0 156 -28.667 212 -86
c52.667 -54 79 -122.333 79 -205c0 -49.333 -10.667 -91.666 -32 -126.999c-24 -40 -58.333 -60 -103 -60c-20.667 0 -38.834 5.66699 -54.501 17s-25.834 26 -30.501 44zM416.002 217.999c-19.333 16.667 -43 25 -71 25c-52.667 0 -79 -34.667 -79 -104
c0 -67.333 25 -101 75 -101s75 34.667 75 104v76z" />
    <glyph glyph-name="A" unicode="A" horiz-adv-x="561" 
d="M242 633h77l227 -633h-76l-51 148h-275l-52 -148h-77zM280 550l-116 -340h233z" />
    <glyph glyph-name="B" unicode="B" horiz-adv-x="536" 
d="M90 1l-0.00292969 632c54 8 108.333 12 163 12c76.667 0 133.334 -18.333 170.001 -55c28.667 -29.333 43 -68 43 -116c0 -33.333 -10.167 -62.333 -30.5 -87s-47.166 -41 -80.499 -49v-1c40.667 -6.66699 72.667 -25.167 96 -55.5s35 -68.5 35 -114.5
c0 -60.667 -23.667 -106.667 -71 -138c-40.667 -27.333 -94.667 -41 -162 -41c-49.333 0 -103.666 4.33301 -162.999 13zM163.997 579v-213h104c36 0 65.167 9.16699 87.5 27.5s33.5 42.833 33.5 73.5c0 79.333 -46 119 -138 119c-35.333 0 -64.333 -2.33301 -87 -7z
M163.997 304v-250c28 -4 60.667 -6 98 -6c96.667 0 145 40 145 120c0 42.667 -12.167 76 -36.5 100s-58.5 36 -102.5 36h-104z" />
    <glyph glyph-name="C" unicode="C" horiz-adv-x="556" 
d="M498 582l-29.999 -43c-44.667 28 -90.334 42 -137.001 42c-64 0 -114.333 -26.333 -151 -79c-34 -48 -51 -112 -51 -192c0 -83.333 22 -148.333 66 -195c37.333 -40.667 85.333 -61 144 -61c48 0 93.667 15.667 137 47l30 -45c-52 -45.333 -111 -68 -177 -68
c-91.333 0 -163 35.333 -215 106c-42.667 58 -64 130 -64 216c0 96 26 176.667 78 242c49.333 62 112.333 93 189 93c68 0 128.333 -21 181 -63z" />
    <glyph glyph-name="D" unicode="D" horiz-adv-x="615" 
d="M90 1l-0.000976562 632.002c56 8 106.667 12 152 12c108 0 190.667 -32.667 248 -98c50 -56.667 75 -131.334 75 -224.001c0 -112.667 -31 -198.334 -93 -257.001c-54.667 -52 -129.667 -78 -225 -78c-47.333 0 -99.666 4.33301 -156.999 13zM163.999 579.002
l-0.000976562 -525c24.667 -4 52.334 -6 83.001 -6c79.333 0 140 25.333 182 76c38 46.667 57 111.667 57 195c0 90 -26.333 159.333 -79 208c-42.667 39.333 -97 59 -163 59c-34 0 -60.667 -2.33301 -80 -7z" />
    <glyph glyph-name="E" unicode="E" horiz-adv-x="526" 
d="M86 633h372v-63h-298v-209h251v-63h-251v-235h311v-63h-385v633z" />
    <glyph glyph-name="F" unicode="F" horiz-adv-x="513" 
d="M86 0v633h372v-63h-298v-210h251v-63h-251v-297h-74z" />
    <glyph glyph-name="G" unicode="G" horiz-adv-x="594" 
d="M498 582l-30.001 -43c-45.333 28 -92 42 -140 42c-60.667 0 -109.667 -26 -147 -78c-34.667 -48.667 -52 -112.667 -52 -192c0 -85.333 21 -151.333 63 -198c36 -40 82.667 -60 140 -60c42.667 0 82.667 8 120 24v194h-113v65h186v-291
c-63.333 -38 -130.666 -57 -201.999 -57c-94.667 0 -166.667 38 -216 114c-38 58.667 -57 129.667 -57 213c0 93.333 26 172.333 78 237c50 62 114 93 192 93c66.667 0 126 -21 178 -63z" />
    <glyph glyph-name="H" unicode="H" horiz-adv-x="649" 
d="M164 0h-74v633h74v-272h321v272h74v-633h-74v298h-321v-298z" />
    <glyph glyph-name="I" unicode="I" horiz-adv-x="254" 
d="M164 633v-633h-74v633h74z" />
    <glyph glyph-name="J" unicode="J" horiz-adv-x="238" 
d="M148 633v-670c0 -87.333 -38.667 -131 -116 -131c-38.667 0 -77.667 13 -117 39l26 39c24 -13.333 47.667 -20 71 -20c41.333 0 62 26.667 62 80v663h74z" />
    <glyph glyph-name="K" unicode="K" horiz-adv-x="517" 
d="M90 0v633h73v-279l234 279h89l-252 -298l262 -335h-95l-238 313v1v-314h-73z" />
    <glyph glyph-name="L" unicode="L" horiz-adv-x="468" 
d="M90 0v633h74v-570h249v-63h-323z" />
    <glyph glyph-name="M" unicode="M" horiz-adv-x="772" 
d="M164 526v-525.999h-74v633h92c45.333 -104.667 102.333 -258.667 171 -462c14 -42.667 25 -74.667 33 -96l21 62c74.667 219.333 136.334 384.666 185.001 495.999h90v-633h-74v527c-34.667 -112 -97.334 -287.667 -188.001 -527h-67
c-79.333 194.667 -142.333 370 -189 526z" />
    <glyph glyph-name="N" unicode="N" horiz-adv-x="638" 
d="M164 0h-74.001v633h67c60.667 -91.333 166.334 -263.333 317.001 -516v516h74v-633h-69c-36 54 -109.333 170.667 -220 350l-95 156v-506z" />
    <glyph glyph-name="O" unicode="O" horiz-adv-x="644" 
d="M322 -12c-91.333 0 -162.333 37.667 -213 113c-39.333 58.667 -59 130 -59 214c0 97.333 26 177.333 78 240c49.333 60 114 90 194 90c91.333 0 162.333 -38 213 -114c39.333 -60 59 -132 59 -216c0 -97.333 -26 -177 -78 -239c-49.333 -58.667 -114 -88 -194 -88z
M129 315c0 -84 18.333 -149.666 55 -196.999c34 -43.333 80 -65 138 -65c66.667 0 117 28 151 84c28 46 42 105.333 42 178c0 84 -18.333 150 -55 198c-34 45.333 -80 68 -138 68c-66 0 -116.333 -29 -151 -87c-28 -46.667 -42 -106.334 -42 -179.001z" />
    <glyph glyph-name="P" unicode="P" horiz-adv-x="518" 
d="M90 0l0.000976562 633.001c59.333 8 110.666 12 153.999 12c149.333 0 224 -64 224 -192c0 -64.667 -21 -114.334 -63 -149.001c-38 -30.667 -89 -46 -153 -46c-28.667 0 -58 2 -88 6v-264h-74zM164.001 579.001l0.000976562 -255c24 -4 52 -6 84 -6
c94.667 0 142 45 142 135c0 88.667 -48.667 133 -146 133c-30.667 0 -57.334 -2.33301 -80.001 -7z" />
    <glyph glyph-name="Q" unicode="Q" horiz-adv-x="644" 
d="M450 20l123.001 -129.001h-86l-99 106c-22.667 -6 -44.667 -9 -66 -9c-91.333 0 -162.333 37.333 -213 112c-39.333 59.333 -59 131 -59 215c0 98 26 178.333 78 241c50 59.333 114.667 89 194 89c91.333 0 162.333 -38.333 213 -115c39.333 -60 59 -131.667 59 -215
c0 -66.667 -12.833 -126.167 -38.5 -178.5s-60.834 -91.166 -105.501 -116.499zM129.001 314.999c0 -84.667 18.333 -150.332 55 -196.999c34 -43.333 80 -65 138 -65c66.667 0 117 27.667 151 83c28 46 42 105.667 42 179c0 84 -18.333 150 -55 198
c-34 45.333 -80 68 -138 68c-66 0 -116.333 -29 -151 -87c-28 -46.667 -42 -106.334 -42 -179.001z" />
    <glyph glyph-name="R" unicode="R" horiz-adv-x="521" 
d="M90 0l0.000976562 633c59.333 8 110.666 12 153.999 12c149.333 0 224 -64 224 -192c0 -87.333 -37.333 -146 -112 -176l127 -277h-75l-117 259l-1 1c-11.333 -1.33301 -25.333 -2 -42 -2c-26 0 -54 2 -84 6v-264h-74zM164.001 579l0.000976562 -255
c24 -4 50.667 -6 80 -6c97.333 0 146 45 146 135c0 88.667 -48.667 133 -146 133c-30.667 0 -57.334 -2.33301 -80.001 -7z" />
    <glyph glyph-name="S" unicode="S" horiz-adv-x="506" 
d="M51 52l32.001 45.002c48.667 -28 100.334 -42 155.001 -42c42 0 75 9.83301 99 29.5s36 47.5 36 83.5c0 61.333 -40.333 106 -121 134c-68.667 23.333 -118.334 49.333 -149.001 78s-46 63.667 -46 105c0 49.333 19.333 89 58 119c35.333 27.333 81.666 41 138.999 41
c62.667 0 119.667 -17.333 171 -52l-33 -45c-41.333 22 -85.666 33 -132.999 33c-38.667 0 -69.334 -8.33301 -92.001 -25s-34 -39.334 -34 -68.001c0 -44.667 34.667 -80 104 -106c78.667 -30 133.834 -60.833 165.501 -92.5s47.5 -72.834 47.5 -123.501
c0 -58 -22.333 -103.667 -67 -137c-36.667 -27.333 -81.334 -41 -134.001 -41c-66 0 -132 21.333 -198 64z" />
    <glyph glyph-name="T" unicode="T" horiz-adv-x="526" 
d="M25 570v63h476v-63h-209v-570h-74v570h-193z" />
    <glyph glyph-name="U" unicode="U" horiz-adv-x="632" 
d="M90 633h75v-391c0 -126 50.333 -189 151 -189c100 0 150 63 150 189v391h76v-369c0 -184 -75.333 -276 -226 -276s-226 92 -226 276v369z" />
    <glyph glyph-name="V" unicode="V" horiz-adv-x="547" 
d="M95 633l179 -525l177 525h80l-228 -633h-60l-228 633h80z" />
    <glyph glyph-name="W" unicode="W" horiz-adv-x="872" 
d="M395 633h82l146 -525l154 525h80l-199 -633h-68c-46 148 -97.333 323.667 -154 527l-153 -527h-67l-201 633h80l155 -525z" />
    <glyph glyph-name="X" unicode="X" horiz-adv-x="564" 
d="M541 633l-208 -304l216 -329h-86l-175 278l-188 -278h-85l232 328l-198 305h85l159 -247l163 247h85z" />
    <glyph glyph-name="Y" unicode="Y" horiz-adv-x="530" 
d="M15 633h78l172 -320l172 320h78l-213 -385v-248h-73v248z" />
    <glyph glyph-name="Z" unicode="Z" horiz-adv-x="465" 
d="M433 566l-322 -503h329v-63h-415v60l329 510h-320v63h399v-67z" />
    <glyph glyph-name="bracketleft" unicode="[" horiz-adv-x="349" 
d="M277 -140h-186v785h186v-57h-120v-670h120v-58z" />
    <glyph glyph-name="backslash" unicode="\" horiz-adv-x="327" 
d="M279 -30l-317 663h62l317 -663h-62z" />
    <glyph glyph-name="bracketright" unicode="]" horiz-adv-x="349" 
d="M72 645h186v-785h-186v58h121v670h-121v57z" />
    <glyph glyph-name="asciicircum" unicode="^" horiz-adv-x="407" 
d="M175 609h57l140 -291h-61l-108 227l-1 -1l-103 -226h-64z" />
    <glyph glyph-name="underscore" unicode="_" horiz-adv-x="394" 
d="M389 -85h-384v55h384v-55z" />
    <glyph glyph-name="grave" unicode="`" horiz-adv-x="177" 
d="M110 543l-85 112h73l54 -112h-42z" />
    <glyph glyph-name="a" unicode="a" horiz-adv-x="487" 
d="M411 0l-49.999 -0.000976562l-10 49c-40.667 -40.667 -91.334 -61 -152.001 -61c-46 0 -82.667 12.833 -110 38.5s-41 59.834 -41 102.501c0 104 76 156 228 156h69v6c0 79.333 -38.667 119 -116 119c-44 0 -86.333 -14.667 -127 -44l-22 37c46 42 102 63 168 63
c52.667 0 93 -16.333 121 -49s42 -79.667 42 -141v-276zM345.001 235.999h-61.001c-109.333 0 -164 -33.667 -164 -101c0 -28.667 8.5 -51.167 25.5 -67.5s40.833 -24.5 71.5 -24.5c26.667 0 52.334 6.66699 77.001 20s41.667 30 51 50v123z" />
    <glyph glyph-name="b" unicode="b" horiz-adv-x="533" 
d="M129 0h-51v609l67 36v-238c31.333 39.333 75 59 131 59c68.667 0 122 -24.667 160 -74c32.667 -41.333 49 -93.333 49 -156c0 -82.667 -23.667 -146.667 -71 -192c-38 -37.333 -85 -56 -141 -56c-58.667 0 -103.667 20 -135 60zM145 332v-217.001
c8.66699 -21.333 24.167 -38.666 46.5 -51.999s46.833 -20 73.5 -20c43.333 0 78.833 16.833 106.5 50.5s41.5 77.834 41.5 132.501c0 61.333 -15.333 108.666 -46 141.999c-26 28.667 -59.333 43 -100 43c-26 0 -50.5 -7.5 -73.5 -22.5s-39.167 -33.833 -48.5 -56.5z" />
    <glyph glyph-name="c" unicode="c" horiz-adv-x="471" 
d="M421 418l-22.001 -38c-34 21.333 -71 32 -111 32c-54.667 0 -97.334 -20 -128.001 -60c-26.667 -34.667 -40 -78 -40 -130c0 -55.333 17 -99.666 51 -132.999c31.333 -30.667 72.333 -46 123 -46c42.667 0 80.334 12.333 113.001 37l22 -40
c-37.333 -34.667 -87.333 -52 -150 -52c-73.333 0 -131.666 24.667 -174.999 74c-37.333 43.333 -56 97.666 -56 162.999c0 73.333 24.333 133.333 73 180c42 40.667 92.667 61 152 61c58 0 107.333 -16 148 -48z" />
    <glyph glyph-name="d" unicode="d" horiz-adv-x="533" 
d="M405 0l-11.001 48c-32 -40 -78.333 -60 -139 -60c-66 0 -118.333 24.667 -157 74c-33.333 42.667 -50 95.667 -50 159c0 80 23.333 142.667 70 188c38.667 38 86.334 57 143.001 57c53.333 0 96 -17.667 128 -53v194l66 37v-644h-50zM388.999 121l0.000976562 217.001
c-8.66699 20.667 -24.334 38.167 -47.001 52.5s-46.667 21.5 -72 21.5c-44 0 -80 -17.167 -108 -51.5s-42 -78.5 -42 -132.5c0 -61.333 15.333 -109 46 -143c26.667 -28 60 -42 100 -42c26.667 0 51.167 7.16699 73.5 21.5s38.833 33.166 49.5 56.499z" />
    <glyph glyph-name="e" unicode="e" horiz-adv-x="495" 
d="M447 204l-323.998 0.000976562c2.66699 -48.667 19.5 -87.667 50.5 -117s71.167 -44 120.5 -44c41.333 0 81.666 12.333 120.999 37l23 -40c-44 -34.667 -97 -52 -159 -52c-72 0 -129.333 23.667 -172 71c-39.333 42.667 -59 98 -59 166c0 70.667 21 129.667 63 177
c38 42.667 85 64 141 64c67.333 0 118.666 -27.333 153.999 -82c27.333 -42.667 41 -95.334 41 -158.001v-22zM122.002 258.001h256c-2 48.667 -13.833 86.667 -35.5 114s-51.5 41 -89.5 41c-36 0 -66.167 -14.333 -90.5 -43s-37.833 -66 -40.5 -112z" />
    <glyph glyph-name="f" unicode="f" horiz-adv-x="336" 
d="M42 454h65.001v66c0 39.333 9.66699 70 29 92s46.666 33 81.999 33c36 0 70.333 -11.333 103 -34l-24 -37c-22 11.333 -43.667 17 -65 17c-39.333 0 -59 -24.667 -59 -74v-63h114v-54h-114v-400h-66v400h-65v54z" />
    <glyph glyph-name="g" unicode="g" horiz-adv-x="538" 
d="M398 408l10.001 46.001h52v-417c0 -152 -66.333 -228 -199 -228c-62.667 0 -118 21 -166 63l23 37c41.333 -28.667 85.333 -43 132 -43c49.333 0 85.666 13.667 108.999 41s35 70.666 35 129.999v9c-32.667 -38.667 -77.334 -58 -134.001 -58
c-66 0 -118.333 24.667 -157 74c-33.333 42.667 -50 95.667 -50 159c0 80 23.333 142.667 70 188c38.667 38 86.334 57 143.001 57c25.333 0 50.5 -5.5 75.5 -16.5s43.833 -24.833 56.5 -41.5zM394.001 121.001l0.000976562 217.001
c-8.66699 20.667 -24.334 38.167 -47.001 52.5s-46.667 21.5 -72 21.5c-44 0 -80 -17.167 -108 -51.5s-42 -78.5 -42 -132.5c0 -61.333 15.333 -109 46 -143c26.667 -28 60 -42 100 -42c26.667 0 51.167 7.16699 73.5 21.5s38.833 33.166 49.5 56.499z" />
    <glyph glyph-name="h" unicode="h" horiz-adv-x="533" 
d="M460 0l-66 0.000976562v266c0 94.667 -42 142 -126 142c-22.667 0 -46 -5.83301 -70 -17.5s-41.667 -25.834 -53 -42.501v-348h-67v610l67 35v-239c41.333 40 89.333 60 144 60c114 0 171 -65 171 -195v-271z" />
    <glyph glyph-name="i" unicode="i" horiz-adv-x="232" 
d="M149 454v-454h-66v454h66zM73 602c0 11.333 4.33301 21.333 13 30s19 13 31 13s22.333 -4.33301 31 -13s13 -18.667 13 -30c0 -12.667 -4.33301 -23.167 -13 -31.5s-19 -12.5 -31 -12.5c-12.667 0 -23.167 4.16699 -31.5 12.5s-12.5 18.833 -12.5 31.5z" />
    <glyph glyph-name="j" unicode="j" horiz-adv-x="235" 
d="M150 454v-520c0 -39.333 -9.83301 -70 -29.5 -92s-46.834 -33 -81.501 -33c-36.667 0 -71 11.667 -103 35l24 37c20.667 -12 42.334 -18 65.001 -18c39.333 0 59 24.667 59 74v517h66zM72 602c0 11.333 4.33301 21.333 13 30s19 13 31 13s22.333 -4.33301 31 -13
s13 -18.667 13 -30c0 -12.667 -4.33301 -23.167 -13 -31.5s-19 -12.5 -31 -12.5c-12.667 0 -23.167 4.16699 -31.5 12.5s-12.5 18.833 -12.5 31.5z" />
    <glyph glyph-name="k" unicode="k" horiz-adv-x="446" 
d="M402 454l-201 -177l225 -277h-81l-200 252v-252h-67v609l67 36v-343l164 152h93z" />
    <glyph glyph-name="l" unicode="l" horiz-adv-x="223" 
d="M145 645v-645h-67v609z" />
    <glyph glyph-name="m" unicode="m" horiz-adv-x="830" 
d="M757 0h-67v260c0 98.667 -41.333 148 -124 148c-44.667 0 -86 -19.333 -124 -58c6.66699 -23.333 10 -49.333 10 -78v-272h-66v264c0 96 -40.333 144 -121 144c-21.333 0 -43.5 -5.83301 -66.5 -17.5s-40.833 -26.167 -53.5 -43.5v-347h-67v454h56l6 -47h3
c42 39.333 90.333 59 145 59c65.333 0 111 -24.333 137 -73c44 48.667 99 73 165 73c54.667 0 96.667 -17.667 126 -53c27.333 -33.333 41 -80.333 41 -141v-272z" />
    <glyph glyph-name="n" unicode="n" horiz-adv-x="533" 
d="M460 0l-65.999 -0.000976562v266c0 94.667 -41.333 142 -124 142c-24 0 -47.667 -5.66699 -71 -17s-41.333 -25.666 -54 -42.999v-348h-67v454h56l6 -48h3c39.333 40 88.666 60 147.999 60c112.667 0 169 -65 169 -195v-271z" />
    <glyph glyph-name="o" unicode="o" horiz-adv-x="533" 
d="M485 226c0 -72 -22.667 -130.999 -68 -176.999c-40.667 -40.667 -90.667 -61 -150 -61c-68.667 0 -124 26 -166 78c-35.333 44 -53 97.333 -53 160c0 73.333 22 132.666 66 177.999c40 41.333 91 62 153 62c70 0 125.667 -26.333 167 -79c34 -44 51 -97.667 51 -161z
M120 226.001c0 -58 14.999 -104.002 44.999 -138.002c26.667 -30 60.334 -45 101.001 -45c44 0 79.5 16.833 106.5 50.5s40.5 77.834 40.5 132.501c0 57.333 -14.667 103.333 -44 138c-26.667 32 -60.667 48 -102 48c-44 0 -79.5 -17.167 -106.5 -51.5
s-40.5 -79.166 -40.5 -134.499z" />
    <glyph glyph-name="p" unicode="p" horiz-adv-x="539" 
d="M78 454h53.001l9 -49c37.333 40.667 86.666 61 147.999 61c65.333 0 117 -24.667 155 -74c32 -42 48 -94 48 -156c0 -82 -23.333 -146 -70 -192c-38 -37.333 -84 -56 -138 -56c-58.667 0 -104.667 18 -138 54v-224h-67v636zM145.001 331l-0.000976562 -214.999
c8 -20.667 23.833 -38 47.5 -52s48.167 -21 73.5 -21c46 0 83 16.667 111 50s42 77.666 42 132.999c0 62 -15.333 109.667 -46 143c-25.333 28 -58.666 42 -99.999 42c-26 0 -51.333 -7.66699 -76 -23s-42 -34.333 -52 -57z" />
    <glyph glyph-name="q" unicode="q" horiz-adv-x="538" 
d="M409 454l51 0.000976562v-639h-66v233c-36.667 -40 -84 -60 -142 -60c-64 0 -115.333 24.667 -154 74c-33.333 42 -50 94.667 -50 158c0 81.333 23.667 144.666 71 189.999c38 37.333 85 56 141 56c61.333 0 107.333 -19.333 138 -58zM394 123.001l0.000976562 214.001
c-9.33301 21.333 -25.666 39.166 -48.999 53.499s-48 21.5 -74 21.5c-44.667 0 -80.834 -17.167 -108.501 -51.5s-41.5 -78.5 -41.5 -132.5c0 -62 15.333 -109.667 46 -143c25.333 -28 57.666 -42 96.999 -42c27.333 0 53.333 7.5 78 22.5s42 34.167 52 57.5z" />
    <glyph glyph-name="r" unicode="r" horiz-adv-x="392" 
d="M374 415l-55 -38c-22.667 20 -47 30 -73 30c-38 0 -71.667 -19.667 -101 -59v-348h-67v454h57l6 -48h2c39.333 40 79.666 60 120.999 60c48.667 0 85.334 -17 110.001 -51z" />
    <glyph glyph-name="s" unicode="s" horiz-adv-x="415" 
d="M316 386c-33.333 17.333 -69.6689 25.999 -109.002 25.999c-26.667 0 -47.5 -5.83301 -62.5 -17.5s-22.5 -27.5 -22.5 -47.5c0 -21.333 6.83301 -37.833 20.5 -49.5s39.834 -23.167 78.501 -34.5c54.667 -16.667 92.667 -35.334 114 -56.001s32 -49.667 32 -87
c0 -39.333 -14.833 -71.166 -44.5 -95.499s-67.834 -36.5 -114.501 -36.5c-61.333 0 -114.666 16.667 -159.999 50l10 17c4.66699 8.66699 8.66699 15.334 12 20.001c38.667 -21.333 80.334 -32 125.001 -32c70 0 105 26.333 105 79c0 21.333 -7.5 38 -22.5 50
s-42.833 23.333 -83.5 34c-94.667 26.667 -142 73 -142 139c0 35.333 13.833 64.333 41.5 87s63.167 34 106.5 34c51.333 0 97.333 -14.333 138 -43z" />
    <glyph glyph-name="t" unicode="t" horiz-adv-x="367" 
d="M178 399l-1.00098 -284c0 -48.667 19.667 -73 59 -73c22 0 43.667 5.66699 65 17l24 -37c-32.667 -22.667 -67 -34 -103 -34c-35.333 0 -62.666 11 -81.999 33s-29 52.667 -29 92v286h-69v55h70v99l66 34v-133h139v-55h-139z" />
    <glyph glyph-name="u" unicode="u" horiz-adv-x="522" 
d="M444 454v-454h-52l-6 52l-3 -1c-40.667 -42 -90 -63 -148 -63c-48.667 0 -87 17.167 -115 51.5s-42 81.833 -42 142.5v272h67v-260c0 -98 36.667 -147 110 -147c22.667 0 45.5 5.66699 68.5 17s41.167 26 54.5 44v346h66z" />
    <glyph glyph-name="v" unicode="v" horiz-adv-x="441" 
d="M254 0h-68l-171 454h72l134 -375l133 375h72z" />
    <glyph glyph-name="w" unicode="w" horiz-adv-x="692" 
d="M237 0h-72l-150 454h72l114 -376l109 376h77l104 -376l114 376h72l-151 -454h-72l-106 373z" />
    <glyph glyph-name="x" unicode="x" horiz-adv-x="427" 
d="M407 454l-151 -217l158 -237h-74l-124 188l-128 -188h-75l165 234l-141 220h74l106 -169l116 169h74z" />
    <glyph glyph-name="y" unicode="y" horiz-adv-x="457" 
d="M442 454l-198.001 -523c-30 -81.333 -71.333 -122 -124 -122c-33.333 0 -66.666 12 -99.999 36l22 36c22.667 -12 42.667 -18 60 -18c33.333 0 62.333 31 87 93l18 44h-17l-175 454h71l144 -385l140 385h72z" />
    <glyph glyph-name="z" unicode="z" horiz-adv-x="410" 
d="M385 0h-360v58l275 341h-258v55h337v-58l-274 -341h280v-55z" />
    <glyph glyph-name="braceleft" unicode="{" horiz-adv-x="377" 
d="M48 226v58.002c32.667 2 58.5 16 77.5 42s28.5 60.333 28.5 103v48c0 63.333 10.5 107.166 31.5 131.499s59.167 36.5 114.5 36.5h20v-58h-20c-33.333 0 -55 -7 -65 -21s-15 -43.667 -15 -89v-48c0 -84.667 -34.333 -143 -103 -175c36.667 -16.667 63 -38.5 79 -65.5
s24 -63.5 24 -109.5v-50c0 -46 5 -76 15 -90s31.667 -21 65 -21h20v-57h-20c-61.333 0 -102 15.333 -122 46c-16 24 -24 64.667 -24 122v50c0 41.333 -9.66699 75.166 -29 101.499s-45 41.5 -77 45.5z" />
    <glyph glyph-name="bar" unicode="|" horiz-adv-x="242" 
d="M152 662v-841h-62v841h62z" />
    <glyph glyph-name="braceright" unicode="}" horiz-adv-x="377" 
d="M329 284l-0.000976562 -58.001c-32.667 -4 -58.5 -19.167 -77.5 -45.5s-28.5 -60.166 -28.5 -101.499v-50c0 -64 -10.5 -108 -31.5 -132s-59.167 -36 -114.5 -36h-20v57h20c33.333 0 55 7 65 21s15 44 15 90v50c0 46 7.83301 82.5 23.5 109.5s42.167 48.833 79.5 65.5
c-68.667 32 -103 90.333 -103 175v48c0 45.333 -5 75 -15 89s-31.667 21 -65 21h-20v58h20c60.667 0 101.334 -15.333 122.001 -46c16 -24 24 -64.667 24 -122v-48c0 -42.667 9.33301 -77 28 -103s44.667 -40 78 -42z" />
    <glyph glyph-name="asciitilde" unicode="~" horiz-adv-x="483" 
d="M68 199l-26 18c19.333 58.667 52.333 88 99 88c24 0 62 -11.667 114 -35c41.333 -18.667 71 -28 89 -28c31.333 0 54.333 17 69 51l28 -18c-16 -58 -45.333 -87 -88 -87c-22.667 0 -59 10.667 -109 32l-23 10c-31.333 14 -57.333 21 -78 21c-30 0 -55 -17.333 -75 -52z
" />
    <glyph glyph-name="exclamdown" unicode="&#xa1;" horiz-adv-x="216" 
d="M73 315h67v-484h-67v484zM150 428c0 -26.667 -13.668 -40 -41.001 -40s-41.666 13.667 -42.999 41c0 29.333 14.333 44 43 44c27.333 0 41 -14.333 41 -43v-2z" />
    <glyph glyph-name="cent" unicode="&#xa2;" horiz-adv-x="474" 
d="M294 -11l0.000976562 -40.999h-36v41c-67.333 4.66699 -120.333 31 -159 79c-34 42.667 -51 95 -51 157c0 70 22.333 128.333 67 175c39.333 40 87 62 143 66v46h36v-47c47.333 -2.66699 89.666 -18.334 126.999 -47.001l-22 -38c-32.667 20 -67.667 30.667 -105 32v-369
h1c42 0 79.333 12.333 112 37l22 -40c-33.333 -31.333 -78.333 -48.333 -135 -51zM258.001 47.001l-0.000976562 361.003c-42 -6.66699 -75.5 -26.834 -100.5 -60.501s-37.5 -75.5 -37.5 -125.5c0 -46.667 12.333 -85.834 37 -117.501s58.334 -50.834 101.001 -57.501z" />
    <glyph glyph-name="sterling" unicode="&#xa3;" horiz-adv-x="474" 
d="M349 313h-160.999v-250h242v-63h-386v63h70v250h-72v57h72v59c0 144 58.667 216 176 216c54.667 0 106.667 -20.333 156 -61l-31 -45c-40.667 27.333 -79.334 41 -116.001 41c-74 0 -111 -47.667 -111 -143v-67h161v-57z" />
    <glyph glyph-name="currency" unicode="&#xa4;" horiz-adv-x="482" 
d="M431 96l-82 79.999c-27.333 -19.333 -61 -29 -101 -29c-40.667 0 -74.334 9.66699 -101.001 29l-79 -78c-1.33301 -0.666992 -2.66602 -1 -3.99902 -1c-5.33301 0 -12.5 4.66699 -21.5 14s-13.5 17 -13.5 23c0 1.33301 0.333008 2 1 2l77 75
c-22.667 30 -34 64.667 -34 104c0 38.667 12 73.334 36 104.001l-79 78c-1.33301 0.666992 -2 2 -2 4c0 6 4.33301 13.333 13 22s16 13 22 13c1.33301 0 2.66602 -0.666992 3.99902 -2l80 -80c29.333 19.333 63 29 101 29c37.333 0 71 -9.66699 101 -29l81 79
c0.666992 1.33301 2.33398 2 5.00098 2c6 0 13 -3.83301 21 -11.5s12 -14.5 12 -20.5c0 -2 -0.666992 -3.66699 -2 -5l-78 -78c22 -30 33 -65 33 -105c0 -38.667 -11 -73 -33 -103l79 -77c1.33301 -0.666992 2 -2 2 -4c0 -6.66699 -4.16699 -14.5 -12.5 -23.5
s-15.5 -13.5 -21.5 -13.5c-2 0 -3.33301 0.666992 -4 2zM249 202.999c33.333 0 59.501 10 78.501 30s28.5 47.667 28.5 83c0 34.667 -9.5 62 -28.5 82s-45.167 30 -78.5 30c-32.667 0 -59.167 -10.333 -79.5 -31s-30.833 -47.667 -31.5 -81c0 -34 10.167 -61.333 30.5 -82
s47.166 -31 80.499 -31z" />
    <glyph glyph-name="yen" unicode="&#xa5;" horiz-adv-x="530" 
d="M302 0h-73v132h-178v55h178v61l-10 18h-168v55h137l-173 312h78l168 -312h8l168 312h78l-173 -312h133v-55h-164l-9 -18v-61h173v-55h-173v-132z" />
    <glyph glyph-name="brokenbar" unicode="&#xa6;" horiz-adv-x="230" 
d="M84 222h62v-408h-62v408zM146 669v-373h-62v373h62z" />
    <glyph glyph-name="section" unicode="&#xa7;" horiz-adv-x="449" 
d="M67 -93l20.998 34.998c35.333 -16.667 73.333 -25 114 -25c77.333 0 116 31 116 93c0 46 -35.333 80.333 -106 103c-108 33.333 -162 85 -162 155c0 57.333 28.667 99.333 86 126c-44 30.667 -66 69.334 -66 116.001c0 40.667 14 73.334 42 98.001s65.667 37 113 37
c52.667 0 99.667 -14.333 141 -43l-23 -35c-33.333 16.667 -69.333 25 -108 25c-29.333 0 -52.666 -6.83301 -69.999 -20.5s-26 -32.167 -26 -55.5c0 -46 39.667 -83.333 119 -112c50.667 -18.667 86.834 -40.167 108.501 -64.5s32.5 -56.166 32.5 -95.499
c0 -50 -24.667 -88 -74 -114c41.333 -26.667 62 -66.334 62 -119.001c0 -44.667 -15.667 -81 -47 -109s-71.333 -42 -120 -42c-57.333 0 -108.333 15.667 -153 47zM167.998 373.998c-34 -23.333 -51.001 -53.6699 -51.001 -91.0029c1.33301 -29.333 11 -52.666 29 -69.999
s48.667 -33 92 -47c12.667 -4 28.667 -9.66699 48 -17c1.33301 0 2.33301 0.333008 3 1c30.667 20.667 46 49.334 46 86.001c0 48.667 -30.333 84 -91 106c-35.333 12.667 -60.666 23.334 -75.999 32.001z" />
    <glyph glyph-name="dieresis" unicode="&#xa8;" horiz-adv-x="308" 
d="M34 602c0 12 4.33301 22.167 13 30.5s19 12.5 31 12.5s22.333 -4.33301 31 -13s13 -18.667 13 -30c0 -12.667 -4.33301 -23.167 -13 -31.5s-19 -12.5 -31 -12.5c-12.667 0 -23.167 4.16699 -31.5 12.5s-12.5 18.833 -12.5 31.5zM185 602c0 11.333 4.33301 21.333 13 30
s19 13 31 13s22.333 -4.33301 31 -13s13 -18.667 13 -30c0 -12.667 -4.33301 -23.167 -13 -31.5s-19 -12.5 -31 -12.5c-12.667 0 -23.167 4.16699 -31.5 12.5s-12.5 18.833 -12.5 31.5z" />
    <glyph glyph-name="copyright" unicode="&#xa9;" horiz-adv-x="699" 
d="M481 459l-14.999 -32c-30 18.667 -63 28 -99 28c-38 0 -68.833 -13.5 -92.5 -40.5s-35.5 -62.5 -35.5 -106.5c0 -40 12.5 -72.833 37.5 -98.5s57.167 -38.5 96.5 -38.5c36.667 0 68.667 10.333 96 31l18 -35c-34 -29.333 -76.667 -44 -128 -44
c-56.667 0 -102.334 20 -137.001 60c-29.333 34.667 -44 77.334 -44 128.001c0 57.333 19 104.666 57 141.999c34 32.667 75 49 123 49c47.333 0 88.333 -14.333 123 -43zM48.001 315c0 88.667 33.332 163.332 99.999 223.999c57.333 52 124.333 78 201 78
c88.667 0 163.334 -33.333 224.001 -100c52 -57.333 78 -124.666 78 -201.999c0 -88.667 -33.333 -163 -100 -223c-58 -52 -125.333 -78 -202 -78c-88.667 0 -163 33.333 -223 100c-52 57.333 -78 124.333 -78 201zM102 314.998c0 -75.333 26.998 -137.666 80.998 -186.999
c46.667 -42.667 102.667 -64 168 -64c74.667 0 136.334 27.333 185.001 82c42.667 47.333 64 103.666 64 168.999c0 74.667 -27.333 136.667 -82 186c-47.333 42.667 -103.666 64 -168.999 64c-75.333 0 -137 -27.333 -185 -82c-41.333 -46.667 -62 -102.667 -62 -168z" />
    <glyph glyph-name="ordfeminine" unicode="&#xaa;" horiz-adv-x="268" 
d="M231 406h-40.001l-5 35c-16.667 -27.333 -41 -41 -73 -41c-23.333 0 -42.5 6.83301 -57.5 20.5s-22.5 31.167 -22.5 52.5c0 52.667 40.667 79 122 79h27v2c0 35.333 -17.667 53 -53 53c-20.667 0 -43 -8.66699 -67 -26l-16 30c28.667 22.667 59.334 34 92.001 34
c62 0 93 -33.667 93 -101v-138zM180.999 521h-20c-52 0 -78 -15 -78 -45c0 -24 13.333 -36 40 -36c30 0 49.333 15 58 45v36z" />
    <glyph glyph-name="guillemotleft" unicode="&#xab;" horiz-adv-x="502" 
d="M260 18c-39.333 9.33301 -78.333 33.333 -117 72s-69.667 85.334 -93 140.001c23.333 54 54.333 100.333 93 139s77.667 63 117 73v-60c-62 -30.667 -109.333 -81.334 -142 -152.001c32.667 -71.333 80 -122.333 142 -153v-59zM462 18
c-39.333 9.33301 -78.166 33.501 -116.499 72.501s-69.166 85.5 -92.499 139.5c23.333 54 54.166 100.333 92.499 139s77.166 63 116.499 73v-60c-60.667 -30.667 -108 -81.334 -142 -152.001c34 -72 81.333 -122.667 142 -152v-60z" />
    <glyph glyph-name="logicalnot" unicode="&#xac;" horiz-adv-x="467" 
d="M42 158v66h383v-224h-75v158h-308z" />
    <glyph glyph-name="registered" unicode="&#xae;" horiz-adv-x="414" 
d="M204 470h-19v-60h-33v157h56c38 0 57 -15.667 57 -47c0 -21.333 -9.33301 -36 -28 -44l35 -66h-39zM185 541v-44h19c18.667 0 28 7 28 21c0 15.333 -9.33301 23 -28 23h-19zM207 322c-48 0 -88 18 -120 54c-28 30.667 -42 66.667 -42 108c0 47.333 18 87.333 54 120
c30.667 27.333 66.667 41 108 41c48 0 88 -17.667 120 -53c28 -30.667 42 -66.667 42 -108c0 -48 -18 -88 -54 -120c-30.667 -28 -66.667 -42 -108 -42zM207 611c-35.333 0 -65.166 -12.333 -89.499 -37s-36.5 -54.667 -36.5 -90c0 -36 12.167 -66.333 36.5 -91
s54.166 -37 89.499 -37s65.333 12.333 90 37s37 55 37 91c0 34.667 -12.333 64.5 -37 89.5s-54.667 37.5 -90 37.5z" />
    <glyph glyph-name="macron" unicode="&#xaf;" horiz-adv-x="231" 
d="M215 581h-199v52h199v-52z" />
    <glyph glyph-name="degree" unicode="&#xb0;" horiz-adv-x="278" 
d="M25 538c0 32.667 10.833 59.834 32.5 81.501s48.834 32.5 81.501 32.5s59.834 -10.833 81.501 -32.5s32.5 -48.834 32.5 -81.501s-10.833 -59.834 -32.5 -81.501s-48.834 -32.5 -81.501 -32.5s-59.834 10.833 -81.501 32.5s-32.5 48.834 -32.5 81.501zM61 538
c0 -22.667 7.16699 -41.332 21.5 -55.999s33.166 -22 56.499 -22s42.333 7.16699 57 21.5s22 33.166 22 56.499s-7.5 42.333 -22.5 57s-33.833 22 -56.5 22c-23.333 0 -42.166 -7.33301 -56.499 -22s-21.5 -33.667 -21.5 -57z" />
    <glyph glyph-name="plusminus" unicode="&#xb1;" horiz-adv-x="509" 
d="M223 251h-181v55h181v148h62v-148h182v-55h-182v-148h-62v148zM467 0h-425v55h425v-55z" />
    <glyph glyph-name="twosuperior" unicode="&#xb2;" horiz-adv-x="354" 
d="M62 316v52l104 88c40.667 34 61 62.333 61 85c0 35.333 -21 53 -63 53c-25.333 0 -52 -9.66699 -80 -29l-26 31c36.667 32.667 75 49 115 49c33.333 0 60.333 -9.16699 81 -27.5s31 -42.5 31 -72.5c0 -38.667 -23.333 -78.667 -70 -120l-66 -57h135v-52h-222z" />
    <glyph glyph-name="threesuperior" unicode="&#xb3;" horiz-adv-x="371" 
d="M141 463l0.000976562 50.999h40c38 0 57 13 57 39c0 27.333 -19 41 -57 41c-25.333 0 -52 -7.66699 -80 -23l-25 28c34.667 30.667 72.667 46 114 46c33.333 0 59.5 -7.66699 78.5 -23s28.5 -36.333 28.5 -63c0 -15.333 -5 -29.5 -15 -42.5s-22.667 -21.5 -38 -25.5
c39.333 -11.333 59 -38.666 59 -81.999c0 -28 -11.333 -50.833 -34 -68.5s-51.334 -26.5 -86.001 -26.5c-37.333 0 -73 15 -107 45l27 30c24.667 -15.333 49.667 -23 75 -23c43.333 0 65 15.667 65 47c0 33.333 -21 50 -63 50h-39z" />
    <glyph glyph-name="acute" unicode="&#xb4;" horiz-adv-x="177" 
d="M152 655l-85 -112h-42l54 112h73z" />
    <glyph glyph-name="mu" unicode="&#xb5;" horiz-adv-x="557" 
d="M146 -178h-68.001v632h68v-268c0 -90.667 35 -136 105 -136c23.333 0 45.666 5.83301 66.999 17.5s38 27.167 50 46.5v340h67v-353c0 -38.667 13 -58 39 -58c11.333 0 24 4.66699 38 14l21 -34c-23.333 -24 -49 -36 -77 -36c-49.333 0 -78 23.667 -86 71
c-15.333 -20.667 -35.666 -37.5 -60.999 -50.5s-50.666 -19.5 -75.999 -19.5c-36.667 0 -65.667 9.66699 -87 29v-195z" />
    <glyph glyph-name="paragraph" unicode="&#xb6;" horiz-adv-x="445" 
d="M355 0h-37v633h37v-633zM250 0l0.000976562 365h-43c-107.333 0 -161 43.667 -161 131c0 41.333 14.167 74.5 42.5 99.5s66.166 37.5 113.499 37.5h86v-633h-38z" />
    <glyph glyph-name="periodcentered" unicode="&#xb7;" horiz-adv-x="175" 
d="M86 308c-13.333 0 -24.5 4.66699 -33.5 14s-13.5 21.333 -13.5 36c0 12.667 4.66699 23.667 14 33s20.333 14 33 14c14 0 25.833 -4.66699 35.5 -14s14.5 -20.333 14.5 -33c0 -14.667 -4.66699 -26.667 -14 -36s-21.333 -14 -36 -14z" />
    <glyph glyph-name="cedilla" unicode="&#xb8;" horiz-adv-x="213" 
d="M72 10h46l-12 -40c6 1.33301 12.667 2 20 2c41.333 0 62 -19.333 62 -58c0 -21.333 -8.5 -39 -25.5 -53s-38.833 -21 -65.5 -21c-24 0 -48 5.33301 -72 16l12 36c19.333 -8.66699 38 -13 56 -13c30 0 45 11.333 45 34s-15.667 34 -47 34c-11.333 0 -23 -0.666992 -35 -2z
" />
    <glyph glyph-name="onesuperior" unicode="&#xb9;" horiz-adv-x="280" 
d="M191 633v-315h-55v245l-67 -58l-37 38l100 90h59z" />
    <glyph glyph-name="ordmasculine" unicode="&#xba;" horiz-adv-x="290" 
d="M145 400c-32 0 -58.667 11.666 -80 34.999s-32 52.333 -32 87c0 36.667 10.333 66.334 31 89.001s47.667 34 81 34c32.667 0 59.5 -11.5 80.5 -34.5s31.5 -52.5 31.5 -88.5c0 -34.667 -10.667 -63.667 -32 -87s-48 -35 -80 -35zM145 608.999c-40 0 -60 -29 -60 -87
c0 -25.333 5.5 -45.833 16.5 -61.5s25.5 -23.5 43.5 -23.5c40.667 0 61 28.333 61 85c0 26 -5.5 47 -16.5 63s-25.833 24 -44.5 24z" />
    <glyph glyph-name="guillemotright" unicode="&#xbb;" horiz-adv-x="502" 
d="M40 18v60c62 30 109.333 80.667 142 152c-32.667 70 -80 120.667 -142 152v60c39.333 -10 78.333 -34.5 117 -73.5s69.667 -85.167 93 -138.5c-23.333 -54 -54.333 -100.5 -93 -139.5s-77.667 -63.167 -117 -72.5zM243 18v59.999c60.667 29.333 108 80 142 152
c-34 70.667 -81.333 121.334 -142 152.001v60c39.333 -10 78.166 -34.333 116.499 -73s69.166 -85 92.499 -139c-23.333 -54 -54.166 -100.5 -92.499 -139.5s-77.166 -63.167 -116.499 -72.5z" />
    <glyph glyph-name="onequarter" unicode="&#xbc;" horiz-adv-x="820" 
d="M474 119l166 199h56v-202h60v-51h-60v-65h-55v65h-167v54zM540 116h101v127zM235 633v-315h-55v245l-67 -58l-37 38l100 90h59zM617 633l-384 -663h-53l384 663h53z" />
    <glyph glyph-name="onehalf" unicode="&#xbd;" horiz-adv-x="831" 
d="M235 633v-315h-55v245l-67 -58l-37 38l100 90h59zM529 0v52l104 88c40.667 34 61 62.333 61 85c0 35.333 -21 53 -63 53c-25.333 0 -52 -9.66699 -80 -29l-26 31c36.667 32.667 75 49 115 49c33.333 0 60.333 -9.16699 81 -27.5s31 -42.5 31 -72.5
c0 -38.667 -23.333 -78.667 -70 -120l-66 -57h135v-52h-222zM610 633l-384 -663h-53l384 663h53z" />
    <glyph glyph-name="threequarters" unicode="&#xbe;" horiz-adv-x="858" 
d="M502 119l167 199h55v-202h60v-51h-60v-65h-55v65h-167v54zM568 116h101v127zM141 463l0.000976562 50.999h40c38 0 57 13 57 39c0 27.333 -19 41 -57 41c-25.333 0 -52 -7.66699 -80 -23l-25 28c34.667 30.667 72.667 46 114 46c33.333 0 59.5 -7.66699 78.5 -23
s28.5 -36.333 28.5 -63c0 -15.333 -5 -29.5 -15 -42.5s-22.667 -21.5 -38 -25.5c39.333 -11.333 59 -38.666 59 -81.999c0 -28 -11.333 -50.833 -34 -68.5s-51.334 -26.5 -86.001 -26.5c-37.333 0 -73 15 -107 45l27 30c24.667 -15.333 49.667 -23 75 -23
c43.333 0 65 15.667 65 47c0 33.333 -21 50 -63 50h-39zM643.001 632.999l-384 -663h-53l384 663h53z" />
    <glyph glyph-name="questiondown" unicode="&#xbf;" horiz-adv-x="392" 
d="M203 309l67.9971 0.000976562v-87c0 -26.667 -3.66699 -46.5 -11 -59.5s-24.666 -30.5 -51.999 -52.5c-58.667 -48 -88 -95.333 -88 -142c0 -30.667 9 -54.834 27 -72.501s42.667 -26.5 74 -26.5c34 0 68.333 9.66699 103 29l23 -40
c-45.333 -33.333 -93.666 -50 -144.999 -50c-45.333 0 -82 14 -110 42s-42 64.667 -42 110c0 62 27.667 116.333 83 163c2.66699 2.66699 7.33398 6.66699 14.001 12l2 2c24 19.333 39 34.5 45 45.5s9 28.167 9 51.5v75zM236.997 465.001c13.333 0 24.5 -4.66699 33.5 -14
s13.5 -21 13.5 -35c0 -13.333 -4.66699 -24.5 -14 -33.5s-20.333 -13.5 -33 -13.5c-14 0 -25.667 4.5 -35 13.5s-14 20.167 -14 33.5c0 14 4.5 25.667 13.5 35s20.833 14 35.5 14z" />
    <glyph glyph-name="Agrave" unicode="&#xc0;" horiz-adv-x="576" 
d="M242 633h77l227 -633h-76l-51 148h-275l-52 -148h-77zM280 550l-116 -340h233zM246 711l-84 112h72l54 -112h-42z" />
    <glyph glyph-name="Aacute" unicode="&#xc1;" horiz-adv-x="576" 
d="M242 633h77l227 -633h-76l-51 148h-275l-52 -148h-77zM280 550l-116 -340h233zM388 823l-85 -112h-42l54 112h73z" />
    <glyph glyph-name="Acircumflex" unicode="&#xc2;" horiz-adv-x="576" 
d="M242 633h77l227 -633h-76l-51 148h-275l-52 -148h-77zM280 550l-116 -340h233zM257 823h47l78 -112h-55l-46 68l-2 -1l-47 -67h-54z" />
    <glyph glyph-name="Atilde" unicode="&#xc3;" horiz-adv-x="576" 
d="M242 633h77l227 -633h-76l-51 148h-275l-52 -148h-77zM280 550l-116 -340h233zM174 714l-27.001 17c16 50.667 43.667 76 83 76c18.667 0 41.334 -8.33301 68.001 -25c21.333 -12.667 36.666 -19 45.999 -19c18 0 34.667 15 50 45l27 -18
c-16.667 -50.667 -43 -76 -79 -76c-14 0 -33.333 6.66699 -58 20c-1.33301 0.666992 -3.66602 2 -6.99902 4l-2 1c-20 12 -35 18 -45 18c-11.333 0 -22.5 -4.33301 -33.5 -13s-18.5 -18.667 -22.5 -30z" />
    <glyph glyph-name="Adieresis" unicode="&#xc4;" horiz-adv-x="576" 
d="M242 633h77l227 -633h-76l-51 148h-275l-52 -148h-77zM280 550l-116 -340h233zM161 770c0 12 4.33301 22.167 13 30.5s19 12.5 31 12.5s22.333 -4.33301 31 -13s13 -18.667 13 -30c0 -12.667 -4.33301 -23.167 -13 -31.5s-19 -12.5 -31 -12.5
c-12.667 0 -23.167 4.16699 -31.5 12.5s-12.5 18.833 -12.5 31.5zM312 770c0 11.333 4.33301 21.333 13 30s19 13 31 13s22.333 -4.33301 31 -13s13 -18.667 13 -30c0 -12.667 -4.33301 -23.167 -13 -31.5s-19 -12.5 -31 -12.5c-12.667 0 -23.167 4.16699 -31.5 12.5
s-12.5 18.833 -12.5 31.5z" />
    <glyph glyph-name="Aring" unicode="&#xc5;" horiz-adv-x="576" 
d="M242 633h77l227 -633h-76l-51 148h-275l-52 -148h-77zM280 550l-116 -340h233zM218 763c0 17.333 6 32.166 18 44.499s27 18.5 45 18.5c17.333 0 32.166 -6.16699 44.499 -18.5s18.5 -27.166 18.5 -44.499s-6.16699 -32.166 -18.5 -44.499s-27.166 -18.5 -44.499 -18.5
c-18 0 -33 6.16699 -45 18.5s-18 27.166 -18 44.499zM248 763c0 -21.333 10.667 -32.001 32 -32.001c9.33301 0 17.333 3.16699 24 9.5s10 13.833 10 22.5s-3.33301 16.334 -10 23.001s-14.667 10 -24 10c-21.333 0 -32 -11 -32 -33z" />
    <glyph glyph-name="AE" unicode="&#xc6;" horiz-adv-x="785" 
d="M723 633v-63h-298v-209h251v-63h-251v-235h311v-63h-385v152h-198l-61 -152h-77l275 633h433zM330 569l-151 -355h172v355h-21z" />
    <glyph glyph-name="Ccedilla" unicode="&#xc7;" horiz-adv-x="566" 
d="M496 582l-30 -43.002c-44.667 28 -90.334 42 -137.001 42c-64 0 -114.333 -26.333 -151 -79c-34 -48 -51 -112 -51 -192c0 -83.333 22 -148.333 66 -195c37.333 -40.667 85.333 -61 144 -61c48 0 93.667 15.667 137 47l30 -45
c-47.333 -41.333 -101.666 -63.666 -162.999 -66.999l-5 -19c6 1.33301 12.667 2 20 2c41.333 0 62 -19.333 62 -58c0 -21.333 -8.5 -39 -25.5 -53s-38.833 -21 -65.5 -21c-24 0 -48 5.33301 -72 16l12 36c19.333 -8.66699 38 -13 56 -13c30 0 45 11.333 45 34
s-15.667 34 -47 34c-11.333 0 -23 -0.666992 -35 -2l11 45c-82.667 7.33301 -146.667 45.333 -192 114c-38 56.667 -57 125.334 -57 206.001c0 96 26 176.667 78 242c49.333 62 112.333 93 189 93c68 0 128.333 -21 181 -63z" />
    <glyph glyph-name="Egrave" unicode="&#xc8;" horiz-adv-x="526" 
d="M82 633h372v-63h-298v-209h251v-63h-251v-235h311v-63h-385v633zM262 712l-85 112h73l54 -112h-42z" />
    <glyph glyph-name="Eacute" unicode="&#xc9;" horiz-adv-x="526" 
d="M82 633h372v-63h-298v-209h251v-63h-251v-235h311v-63h-385v633zM348 819l-85 -112h-42l54 112h73z" />
    <glyph glyph-name="Ecircumflex" unicode="&#xca;" horiz-adv-x="526" 
d="M82 633h372v-63h-298v-209h251v-63h-251v-235h311v-63h-385v633zM244 823h48l77 -112h-55l-45 68l-2 -1l-47 -67h-54z" />
    <glyph glyph-name="Edieresis" unicode="&#xcb;" horiz-adv-x="526" 
d="M82 633h372v-63h-298v-209h251v-63h-251v-235h311v-63h-385v633zM150 770c0 12 4.33301 22.167 13 30.5s19 12.5 31 12.5s22.333 -4.33301 31 -13s13 -18.667 13 -30c0 -12.667 -4.33301 -23.167 -13 -31.5s-19 -12.5 -31 -12.5c-12.667 0 -23.167 4.16699 -31.5 12.5
s-12.5 18.833 -12.5 31.5zM301 770c0 11.333 4.33301 21.333 13 30s19 13 31 13s22.333 -4.33301 31 -13s13 -18.667 13 -30c0 -12.667 -4.33301 -23.167 -13 -31.5s-19 -12.5 -31 -12.5c-12.667 0 -23.167 4.16699 -31.5 12.5s-12.5 18.833 -12.5 31.5z" />
    <glyph glyph-name="Igrave" unicode="&#xcc;" horiz-adv-x="272" 
d="M164 633v-633h-73v633h73zM106 711l-85 112h73l54 -112h-42z" />
    <glyph glyph-name="Iacute" unicode="&#xcd;" horiz-adv-x="272" 
d="M164 633v-633h-74v633h74zM235 823l-84 -112h-42l54 112h72z" />
    <glyph glyph-name="Icircumflex" unicode="&#xce;" horiz-adv-x="272" 
d="M164 633v-633h-73v633h73zM106 834h47l78 -112h-55l-46 68l-2 -1l-47 -67h-54z" />
    <glyph glyph-name="Idieresis" unicode="&#xcf;" horiz-adv-x="272" 
d="M164 633v-633h-73v633h73zM8 770c0 12 4.33301 22.167 13 30.5s19 12.5 31 12.5s22.333 -4.33301 31 -13s13 -18.667 13 -30c0 -12.667 -4.33301 -23.167 -13 -31.5s-19 -12.5 -31 -12.5c-12.667 0 -23.167 4.16699 -31.5 12.5s-12.5 18.833 -12.5 31.5zM159 770
c0 11.333 4.33301 21.333 13 30s19 13 31 13s22.333 -4.33301 31 -13s13 -18.667 13 -30c0 -12.667 -4.33301 -23.167 -13 -31.5s-19 -12.5 -31 -12.5c-12.667 0 -23.167 4.16699 -31.5 12.5s-12.5 18.833 -12.5 31.5z" />
    <glyph glyph-name="Eth" unicode="&#xd0;" horiz-adv-x="655" 
d="M119 299l-77.999 0.00195312v57h78v278c57.333 7.33301 108 11 152 11c108.667 0 191.667 -32.667 249 -98c49.333 -56.667 74 -131.334 74 -224.001c0 -112.667 -31 -198.334 -93 -257.001c-54.667 -52 -129.334 -78 -224.001 -78c-45.333 0 -98 4 -158 12v299z
M193.001 575.002l0.000976562 -219h152v-57h-152v-241c28 -6 56 -9 84 -9c79.333 0 139.666 25.333 180.999 76c38 46 57 110.667 57 194c0 90 -26.333 159 -79 207c-42.667 38.667 -96.667 58 -162 58c-28 0 -55 -3 -81 -9z" />
    <glyph glyph-name="Ntilde" unicode="&#xd1;" horiz-adv-x="675" 
d="M164 0h-74.001v633h67c60.667 -91.333 166.334 -263.333 317.001 -516v516h74v-633h-69c-36 54 -109.333 170.667 -220 350l-95 156v-506zM209.999 705l-27.001 16.999c16.667 50.667 44.334 76 83.001 76c18.667 0 41.667 -8.33301 69 -25
c21.333 -12.667 36.666 -19 45.999 -19c18 0 34.333 15 49 45l28 -18c-17.333 -50.667 -43.666 -76 -78.999 -76c-14.667 0 -34 6.66699 -58 20c-2 0.666992 -5 2.33398 -9 5.00098c-20 12 -35.333 18 -46 18s-21.667 -4.33301 -33 -13s-19 -18.667 -23 -30z" />
    <glyph glyph-name="Ograve" unicode="&#xd2;" horiz-adv-x="654" 
d="M322 -12c-91.333 0 -162.333 37.667 -213 113c-39.333 58.667 -59 130 -59 214c0 97.333 26 177.333 78 240c49.333 60 114 90 194 90c91.333 0 162.333 -38 213 -114c39.333 -60 59 -132 59 -216c0 -97.333 -26 -177 -78 -239c-49.333 -58.667 -114 -88 -194 -88z
M129 315c0 -84 18.333 -149.666 55 -196.999c34 -43.333 80 -65 138 -65c66.667 0 117 28 151 84c28 46 42 105.333 42 178c0 84 -18.333 150 -55 198c-34 45.333 -80 68 -138 68c-66 0 -116.333 -29 -151 -87c-28 -46.667 -42 -106.334 -42 -179.001zM310 710.001l-85 112
h73l54 -112h-42z" />
    <glyph glyph-name="Oacute" unicode="&#xd3;" horiz-adv-x="654" 
d="M322 -12c-91.333 0 -162.333 37.667 -213 113c-39.333 58.667 -59 130 -59 214c0 97.333 26 177.333 78 240c49.333 60 114 90 194 90c91.333 0 162.333 -38 213 -114c39.333 -60 59 -132 59 -216c0 -97.333 -26 -177 -78 -239c-49.333 -58.667 -114 -88 -194 -88z
M129 315c0 -84 18.333 -149.666 55 -196.999c34 -43.333 80 -65 138 -65c66.667 0 117 28 151 84c28 46 42 105.333 42 178c0 84 -18.333 150 -55 198c-34 45.333 -80 68 -138 68c-66 0 -116.333 -29 -151 -87c-28 -46.667 -42 -106.334 -42 -179.001zM424 822.001l-84 -112
h-42l54 112h72z" />
    <glyph glyph-name="Ocircumflex" unicode="&#xd4;" horiz-adv-x="654" 
d="M322 -12c-91.333 0 -162.333 37.667 -213 113c-39.333 58.667 -59 130 -59 214c0 97.333 26 177.333 78 240c49.333 60 114 90 194 90c91.333 0 162.333 -38 213 -114c39.333 -60 59 -132 59 -216c0 -97.333 -26 -177 -78 -239c-49.333 -58.667 -114 -88 -194 -88z
M129 315c0 -84 18.333 -149.666 55 -196.999c34 -43.333 80 -65 138 -65c66.667 0 117 28 151 84c28 46 42 105.333 42 178c0 84 -18.333 150 -55 198c-34 45.333 -80 68 -138 68c-66 0 -116.333 -29 -151 -87c-28 -46.667 -42 -106.334 -42 -179.001zM302 822.001h47
l78 -112h-55l-46 68l-2 -1l-47 -67h-54z" />
    <glyph glyph-name="Otilde" unicode="&#xd5;" horiz-adv-x="654" 
d="M322 -12c-91.333 0 -162.333 37.667 -213 113c-39.333 58.667 -59 130 -59 214c0 97.333 26 177.333 78 240c49.333 60 114 90 194 90c91.333 0 162.333 -38 213 -114c39.333 -60 59 -132 59 -216c0 -97.333 -26 -177 -78 -239c-49.333 -58.667 -114 -88 -194 -88z
M129 315c0 -84 18.333 -149.666 55 -196.999c34 -43.333 80 -65 138 -65c66.667 0 117 28 151 84c28 46 42 105.333 42 178c0 84 -18.333 150 -55 198c-34 45.333 -80 68 -138 68c-66 0 -116.333 -29 -151 -87c-28 -46.667 -42 -106.334 -42 -179.001zM214 714.001
l-27.001 16.999c16.667 50.667 44.334 76 83.001 76c18.667 0 41.667 -8.33301 69 -25c21.333 -12.667 36.666 -19 45.999 -19c18 0 34.333 15 49 45l28 -18c-17.333 -50.667 -43.666 -76 -78.999 -76c-14.667 0 -34 6.66699 -58 20c-2 0.666992 -5 2.33398 -9 5.00098
c-20 12 -35.333 18 -46 18s-21.667 -4.33301 -33 -13s-19 -18.667 -23 -30z" />
    <glyph glyph-name="Odieresis" unicode="&#xd6;" horiz-adv-x="654" 
d="M322 -12c-91.333 0 -162.333 37.667 -213 113c-39.333 58.667 -59 130 -59 214c0 97.333 26 177.333 78 240c49.333 60 114 90 194 90c91.333 0 162.333 -38 213 -114c39.333 -60 59 -132 59 -216c0 -97.333 -26 -177 -78 -239c-49.333 -58.667 -114 -88 -194 -88z
M129 315c0 -84 18.333 -149.666 55 -196.999c34 -43.333 80 -65 138 -65c66.667 0 117 28 151 84c28 46 42 105.333 42 178c0 84 -18.333 150 -55 198c-34 45.333 -80 68 -138 68c-66 0 -116.333 -29 -151 -87c-28 -46.667 -42 -106.334 -42 -179.001zM205 770.001
c0 12 4.16699 22.167 12.5 30.5s18.833 12.5 31.5 12.5c11.333 0 21.333 -4.33301 30 -13s13 -18.667 13 -30c0 -12.667 -4.16699 -23.167 -12.5 -31.5s-18.5 -12.5 -30.5 -12.5c-12.667 0 -23.167 4.16699 -31.5 12.5s-12.5 18.833 -12.5 31.5zM356 770.001
c0 11.333 4.16699 21.333 12.5 30s18.5 13 30.5 13s22.333 -4.33301 31 -13s13 -18.667 13 -30c0 -12.667 -4.16699 -23.167 -12.5 -31.5s-18.833 -12.5 -31.5 -12.5c-12 0 -22.167 4.16699 -30.5 12.5s-12.5 18.833 -12.5 31.5z" />
    <glyph glyph-name="multiply" unicode="&#xd7;" horiz-adv-x="501" 
d="M81 5c-8 7.33301 -18.333 17.333 -31 30c-6 6 -10.667 11 -14 15l180 182l-112 119l-56 59l15 15c11.333 10.667 20.333 19.667 27 27l164 -179l78 83l12 13l79 84l43 -43l-171 -179l74 -82l94 -103l-41 -41l-165 185z" />
    <glyph glyph-name="Oslash" unicode="&#xd8;" horiz-adv-x="644" 
d="M216 10l-19 -40h-63l33 68c-78 60 -117 152.333 -117 277c0 97.333 26 177.333 78 240c49.333 60 114 90 194 90c46.667 0 89 -11 127 -33l16 33h62l-33 -66c66.667 -62.667 100 -150.667 100 -264c0 -97.333 -26 -177 -78 -239c-49.333 -58.667 -114 -88 -194 -88
c-38 0 -73.333 7.33301 -106 22zM198 102l221 450.001c-28 19.333 -60.333 29 -97 29c-66 0 -116.333 -29 -151 -87c-28 -46.667 -42 -106.334 -42 -179.001c0 -96 23 -167 69 -213zM245 69.001c23.333 -10.667 49 -16 77 -16c66.667 0 117 28 151 84
c28 46 42 105.333 42 178c0 82.667 -18 148 -54 196z" />
    <glyph glyph-name="Ugrave" unicode="&#xd9;" horiz-adv-x="644" 
d="M90 633h75v-391c0 -126 50.333 -189 151 -189c100 0 150 63 150 189v391h76v-369c0 -184 -75.333 -276 -226 -276s-226 92 -226 276v369zM301 710l-85 112h73l54 -112h-42z" />
    <glyph glyph-name="Uacute" unicode="&#xda;" horiz-adv-x="644" 
d="M90 633h75v-391c0 -126 50.333 -189 151 -189c100 0 150 63 150 189v391h76v-369c0 -184 -75.333 -276 -226 -276s-226 92 -226 276v369zM405 822l-85 -112h-42l54 112h73z" />
    <glyph glyph-name="Ucircumflex" unicode="&#xdb;" horiz-adv-x="644" 
d="M90 633h75v-391c0 -126 50.333 -189 151 -189c100 0 150 63 150 189v391h76v-369c0 -184 -75.333 -276 -226 -276s-226 92 -226 276v369zM292 822h48l77 -112h-55l-45 68l-2 -1l-47 -67h-54z" />
    <glyph glyph-name="Udieresis" unicode="&#xdc;" horiz-adv-x="644" 
d="M90 633h75v-391c0 -126 50.333 -189 151 -189c100 0 150 63 150 189v391h76v-369c0 -184 -75.333 -276 -226 -276s-226 92 -226 276v369zM197 771c0 12 4.33301 22.167 13 30.5s19 12.5 31 12.5s22.333 -4.33301 31 -13s13 -18.667 13 -30
c0 -12.667 -4.33301 -23.167 -13 -31.5s-19 -12.5 -31 -12.5c-12.667 0 -23.167 4.16699 -31.5 12.5s-12.5 18.833 -12.5 31.5zM348 771c0 11.333 4.33301 21.333 13 30s19 13 31 13s22.333 -4.33301 31 -13s13 -18.667 13 -30c0 -12.667 -4.33301 -23.167 -13 -31.5
s-19 -12.5 -31 -12.5c-12.667 0 -23.167 4.16699 -31.5 12.5s-12.5 18.833 -12.5 31.5z" />
    <glyph glyph-name="Yacute" unicode="&#xdd;" horiz-adv-x="530" 
d="M15 633h78l172 -320l172 320h78l-213 -385v-248h-73v248zM366 818l-85 -112h-42l54 112h73z" />
    <glyph glyph-name="Thorn" unicode="&#xde;" horiz-adv-x="533" 
d="M90 0v632.999h73v-113c27.333 7.33301 54.333 11 81 11c150 0 225 -63.667 225 -191c0 -69.333 -23 -121.666 -69 -156.999c-37.333 -29.333 -85.333 -44 -144 -44c-27.333 0 -58 3 -92 9v-148h-74zM164 459.999v-250c28 -6 58.667 -9 92 -9c89.333 0 134 46.333 134 139
c0 86.667 -47.667 130 -143 130c-33.333 0 -61 -3.33301 -83 -10z" />
    <glyph glyph-name="germandbls" unicode="&#xdf;" horiz-adv-x="500" 
d="M189 9l15.998 45.999c24 -8 45.667 -12 65 -12c30.667 0 55.834 11.667 75.501 35s29.5 53.333 29.5 90c0 90 -42 135 -126 135h-25v58h22c32 0 57.833 11 77.5 33s29.5 51.667 29.5 89c0 32 -10 58.167 -30 78.5s-46 30.5 -78 30.5c-30.667 0 -55 -9.83301 -73 -29.5
s-27 -46.167 -27 -79.5v-483h-67v469c0 118 56 177 168 177c58 0 104 -18 138 -54c28 -30 42 -66 42 -108c0 -36.667 -10.667 -68.167 -32 -94.5s-49.666 -43.5 -84.999 -51.5c94.667 -21.333 142 -78.666 142 -171.999c0 -62.667 -22 -110.667 -66 -144
c-30.667 -22.667 -64.667 -34 -102 -34c-32.667 0 -64 7 -94 21z" />
    <glyph glyph-name="agrave" unicode="&#xe0;" horiz-adv-x="495" 
d="M411 0l-49.999 -0.000976562l-10 49c-40.667 -40.667 -91.334 -61 -152.001 -61c-46 0 -82.667 12.833 -110 38.5s-41 59.834 -41 102.501c0 104 76 156 228 156h69v6c0 79.333 -38.667 119 -116 119c-44 0 -86.333 -14.667 -127 -44l-22 37c46 42 102 63 168 63
c52.667 0 93 -16.333 121 -49s42 -79.667 42 -141v-276zM345.001 235.999h-61.001c-109.333 0 -164 -33.667 -164 -101c0 -28.667 8.5 -51.167 25.5 -67.5s40.833 -24.5 71.5 -24.5c26.667 0 52.334 6.66699 77.001 20s41.667 30 51 50v123zM235 537.999l-84 112h72l54 -112
h-42z" />
    <glyph glyph-name="aacute" unicode="&#xe1;" horiz-adv-x="495" 
d="M411 0l-49.999 -0.000976562l-10 49c-40.667 -40.667 -91.334 -61 -152.001 -61c-46 0 -82.667 12.833 -110 38.5s-41 59.834 -41 102.501c0 104 76 156 228 156h69v6c0 79.333 -38.667 119 -116 119c-44 0 -86.333 -14.667 -127 -44l-22 37c46 42 102 63 168 63
c52.667 0 93 -16.333 121 -49s42 -79.667 42 -141v-276zM345.001 235.999h-61.001c-109.333 0 -164 -33.667 -164 -101c0 -28.667 8.5 -51.167 25.5 -67.5s40.833 -24.5 71.5 -24.5c26.667 0 52.334 6.66699 77.001 20s41.667 30 51 50v123zM335 649.999l-85 -112h-42
l54 112h73z" />
    <glyph glyph-name="acircumflex" unicode="&#xe2;" horiz-adv-x="495" 
d="M411 0l-49.999 -0.000976562l-10 49c-40.667 -40.667 -91.334 -61 -152.001 -61c-46 0 -82.667 12.833 -110 38.5s-41 59.834 -41 102.501c0 104 76 156 228 156h69v6c0 79.333 -38.667 119 -116 119c-44 0 -86.333 -14.667 -127 -44l-22 37c46 42 102 63 168 63
c52.667 0 93 -16.333 121 -49s42 -79.667 42 -141v-276zM345.001 235.999h-61.001c-109.333 0 -164 -33.667 -164 -101c0 -28.667 8.5 -51.167 25.5 -67.5s40.833 -24.5 71.5 -24.5c26.667 0 52.334 6.66699 77.001 20s41.667 30 51 50v123zM221 654.999h48l77 -112h-55
l-45 68l-2 -1l-47 -67h-54z" />
    <glyph glyph-name="atilde" unicode="&#xe3;" horiz-adv-x="495" 
d="M411 0l-49.999 -0.000976562l-10 49c-40.667 -40.667 -91.334 -61 -152.001 -61c-46 0 -82.667 12.833 -110 38.5s-41 59.834 -41 102.501c0 104 76 156 228 156h69v6c0 79.333 -38.667 119 -116 119c-44 0 -86.333 -14.667 -127 -44l-22 37c46 42 102 63 168 63
c52.667 0 93 -16.333 121 -49s42 -79.667 42 -141v-276zM345.001 235.999h-61.001c-109.333 0 -164 -33.667 -164 -101c0 -28.667 8.5 -51.167 25.5 -67.5s40.833 -24.5 71.5 -24.5c26.667 0 52.334 6.66699 77.001 20s41.667 30 51 50v123zM136 547.999l-27.001 16.999
c16.667 50.667 44.334 76 83.001 76c18.667 0 41.667 -8.33301 69 -25c21.333 -12.667 36.666 -19 45.999 -19c18 0 34.333 15 49 45l28 -18c-17.333 -50.667 -43.666 -76 -78.999 -76c-14.667 0 -34 6.66699 -58 20c-2 0.666992 -5 2.33398 -9 5.00098
c-20 12 -35.333 18 -46 18s-21.667 -4.33301 -33 -13s-19 -18.667 -23 -30z" />
    <glyph glyph-name="adieresis" unicode="&#xe4;" horiz-adv-x="495" 
d="M411 0l-49.999 -0.000976562l-10 49c-40.667 -40.667 -91.334 -61 -152.001 -61c-46 0 -82.667 12.833 -110 38.5s-41 59.834 -41 102.501c0 104 76 156 228 156h69v6c0 79.333 -38.667 119 -116 119c-44 0 -86.333 -14.667 -127 -44l-22 37c46 42 102 63 168 63
c52.667 0 93 -16.333 121 -49s42 -79.667 42 -141v-276zM345.001 235.999h-61.001c-109.333 0 -164 -33.667 -164 -101c0 -28.667 8.5 -51.167 25.5 -67.5s40.833 -24.5 71.5 -24.5c26.667 0 52.334 6.66699 77.001 20s41.667 30 51 50v123zM130 601.999
c0 12 4.16699 22.167 12.5 30.5s18.833 12.5 31.5 12.5c11.333 0 21.333 -4.33301 30 -13s13 -18.667 13 -30c0 -12.667 -4.16699 -23.167 -12.5 -31.5s-18.5 -12.5 -30.5 -12.5c-12.667 0 -23.167 4.16699 -31.5 12.5s-12.5 18.833 -12.5 31.5zM281 601.999
c0 11.333 4.16699 21.333 12.5 30s18.5 13 30.5 13s22.333 -4.33301 31 -13s13 -18.667 13 -30c0 -12.667 -4.16699 -23.167 -12.5 -31.5s-18.833 -12.5 -31.5 -12.5c-12 0 -22.167 4.16699 -30.5 12.5s-12.5 18.833 -12.5 31.5z" />
    <glyph glyph-name="aring" unicode="&#xe5;" horiz-adv-x="495" 
d="M411 0l-49.999 -0.000976562l-10 49c-40.667 -40.667 -91.334 -61 -152.001 -61c-46 0 -82.667 12.833 -110 38.5s-41 59.834 -41 102.501c0 104 76 156 228 156h69v6c0 79.333 -38.667 119 -116 119c-44 0 -86.333 -14.667 -127 -44l-22 37c46 42 102 63 168 63
c52.667 0 93 -16.333 121 -49s42 -79.667 42 -141v-276zM345.001 235.999h-61.001c-109.333 0 -164 -33.667 -164 -101c0 -28.667 8.5 -51.167 25.5 -67.5s40.833 -24.5 71.5 -24.5c26.667 0 52.334 6.66699 77.001 20s41.667 30 51 50v123zM182 593.999
c0 17.333 6 32.166 18 44.499s27 18.5 45 18.5c17.333 0 32.166 -6.16699 44.499 -18.5s18.5 -27.166 18.5 -44.499s-6.16699 -32.166 -18.5 -44.499s-27.166 -18.5 -44.499 -18.5c-18 0 -33 6.16699 -45 18.5s-18 27.166 -18 44.499zM212 593.999
c0 -21.333 10.667 -32.001 32 -32.001c9.33301 0 17.333 3.16699 24 9.5s10 13.833 10 22.5s-3.33301 16.334 -10 23.001s-14.667 10 -24 10c-21.333 0 -32 -11 -32 -33z" />
    <glyph glyph-name="ae" unicode="&#xe6;" horiz-adv-x="795" 
d="M741 204h-322.999l2 -16c5.33301 -44 23.166 -79.167 53.499 -105.5s68.5 -39.5 114.5 -39.5c42 0 82.667 12.333 122 37l22 -40c-43.333 -34.667 -96.333 -52 -159 -52c-85.333 0 -148.333 31 -189 93h-1c-30 -34 -58.833 -58 -86.5 -72s-60.167 -21 -97.5 -21
c-46 0 -82.667 12.833 -110 38.5s-41 59.834 -41 102.501c0 104 76 156 228 156h69v6c0 79.333 -38.667 119 -116 119c-44 0 -86.333 -14.667 -127 -44l-22 37c46 42 102 63 168 63c70 0 117.667 -29 143 -87c38 58 90 87 156 87c67.333 0 118.333 -27.333 153 -82
c27.333 -42.667 41 -95.334 41 -158.001v-22zM345.001 236h-61.001c-109.333 0 -164 -33.667 -164 -101c0 -28.667 8.5 -51.167 25.5 -67.5s40.833 -24.5 71.5 -24.5c26.667 0 52.334 6.66699 77.001 20s41.667 30 51 50v123zM416 258h256
c-1.33301 48.667 -12.833 86.667 -34.5 114s-51.5 41 -89.5 41c-36.667 0 -67 -14.333 -91 -43s-37.667 -66 -41 -112z" />
    <glyph glyph-name="ccedilla" unicode="&#xe7;" horiz-adv-x="481" 
d="M230 -55l11.001 45.999c-62.667 8.66699 -111.667 36.334 -147 83.001c-30.667 41.333 -46 91.666 -46 150.999c0 73.333 24.333 133.333 73 180c42 40.667 92.667 61 152 61c58 0 107.333 -16 148 -48l-22 -38c-34 21.333 -71 32 -111 32
c-54.667 0 -97.334 -20 -128.001 -60c-26.667 -34.667 -40 -78 -40 -130c0 -55.333 17 -99.666 51 -132.999c31.333 -30.667 72.333 -46 123 -46c42.667 0 80.334 12.333 113.001 37l22 -40c-34.667 -32 -80.334 -49 -137.001 -51h-7l-5 -19c6 1.33301 12.667 2 20 2
c41.333 0 62 -19.333 62 -58c0 -21.333 -8.5 -39 -25.5 -53s-38.833 -21 -65.5 -21c-24 0 -48 5.33301 -72 16l12 36c19.333 -8.66699 38 -13 56 -13c30 0 45 11.333 45 34s-15.667 34 -47 34c-11.333 0 -23 -0.666992 -35 -2z" />
    <glyph glyph-name="egrave" unicode="&#xe8;" horiz-adv-x="512" 
d="M447 204l-323.998 0.000976562c2.66699 -48.667 19.5 -87.667 50.5 -117s71.167 -44 120.5 -44c41.333 0 81.666 12.333 120.999 37l23 -40c-44 -34.667 -97 -52 -159 -52c-72 0 -129.333 23.667 -172 71c-39.333 42.667 -59 98 -59 166c0 70.667 21 129.667 63 177
c38 42.667 85 64 141 64c67.333 0 118.666 -27.333 153.999 -82c27.333 -42.667 41 -95.334 41 -158.001v-22zM122.002 258.001h256c-2 48.667 -13.833 86.667 -35.5 114s-51.5 41 -89.5 41c-36 0 -66.167 -14.333 -90.5 -43s-37.833 -66 -40.5 -112zM233.002 543.001
l-85 112h73l54 -112h-42z" />
    <glyph glyph-name="eacute" unicode="&#xe9;" horiz-adv-x="512" 
d="M447 204l-323.998 0.000976562c2.66699 -48.667 19.5 -87.667 50.5 -117s71.167 -44 120.5 -44c41.333 0 81.666 12.333 120.999 37l23 -40c-44 -34.667 -97 -52 -159 -52c-72 0 -129.333 23.667 -172 71c-39.333 42.667 -59 98 -59 166c0 70.667 21 129.667 63 177
c38 42.667 85 64 141 64c67.333 0 118.666 -27.333 153.999 -82c27.333 -42.667 41 -95.334 41 -158.001v-22zM122.002 258.001h256c-2 48.667 -13.833 86.667 -35.5 114s-51.5 41 -89.5 41c-36 0 -66.167 -14.333 -90.5 -43s-37.833 -66 -40.5 -112zM358.002 655.001
l-84 -112h-42l54 112h72z" />
    <glyph glyph-name="ecircumflex" unicode="&#xea;" horiz-adv-x="512" 
d="M447 204l-323.998 0.000976562c2.66699 -48.667 19.5 -87.667 50.5 -117s71.167 -44 120.5 -44c41.333 0 81.666 12.333 120.999 37l23 -40c-44 -34.667 -97 -52 -159 -52c-72 0 -129.333 23.667 -172 71c-39.333 42.667 -59 98 -59 166c0 70.667 21 129.667 63 177
c38 42.667 85 64 141 64c67.333 0 118.666 -27.333 153.999 -82c27.333 -42.667 41 -95.334 41 -158.001v-22zM122.002 258.001h256c-2 48.667 -13.833 86.667 -35.5 114s-51.5 41 -89.5 41c-36 0 -66.167 -14.333 -90.5 -43s-37.833 -66 -40.5 -112zM228.002 655.001h47
l78 -112h-55l-46 68l-2 -1l-47 -67h-54z" />
    <glyph glyph-name="edieresis" unicode="&#xeb;" horiz-adv-x="512" 
d="M447 204l-323.998 0.000976562c2.66699 -48.667 19.5 -87.667 50.5 -117s71.167 -44 120.5 -44c41.333 0 81.666 12.333 120.999 37l23 -40c-44 -34.667 -97 -52 -159 -52c-72 0 -129.333 23.667 -172 71c-39.333 42.667 -59 98 -59 166c0 70.667 21 129.667 63 177
c38 42.667 85 64 141 64c67.333 0 118.666 -27.333 153.999 -82c27.333 -42.667 41 -95.334 41 -158.001v-22zM122.002 258.001h256c-2 48.667 -13.833 86.667 -35.5 114s-51.5 41 -89.5 41c-36 0 -66.167 -14.333 -90.5 -43s-37.833 -66 -40.5 -112zM134.002 602.001
c0 12 4.33301 22.167 13 30.5s19 12.5 31 12.5s22.333 -4.33301 31 -13s13 -18.667 13 -30c0 -12.667 -4.33301 -23.167 -13 -31.5s-19 -12.5 -31 -12.5c-12.667 0 -23.167 4.16699 -31.5 12.5s-12.5 18.833 -12.5 31.5zM285.002 602.001c0 11.333 4.33301 21.333 13 30
s19 13 31 13s22.333 -4.33301 31 -13s13 -18.667 13 -30c0 -12.667 -4.33301 -23.167 -13 -31.5s-19 -12.5 -31 -12.5c-12.667 0 -23.167 4.16699 -31.5 12.5s-12.5 18.833 -12.5 31.5z" />
    <glyph glyph-name="igrave" unicode="&#xec;" horiz-adv-x="281" 
d="M169 454v-454h-67v454h67zM112 543l-85 112h73l54 -112h-42z" />
    <glyph glyph-name="iacute" unicode="&#xed;" horiz-adv-x="273" 
d="M243 655l-85 -112h-42l54 112h73zM171 454v-454h-67v454h67z" />
    <glyph glyph-name="icircumflex" unicode="&#xee;" horiz-adv-x="281" 
d="M175 454v-454h-67v454h67zM119 655h47l78 -112h-55l-46 68l-2 -1l-47 -67h-54z" />
    <glyph glyph-name="idieresis" unicode="&#xef;" horiz-adv-x="281" 
d="M168 454v-454h-67v454h67zM16 602c0 12 4.33301 22.167 13 30.5s19 12.5 31 12.5s22.333 -4.33301 31 -13s13 -18.667 13 -30c0 -12.667 -4.33301 -23.167 -13 -31.5s-19 -12.5 -31 -12.5c-12.667 0 -23.167 4.16699 -31.5 12.5s-12.5 18.833 -12.5 31.5zM167 602
c0 11.333 4.33301 21.333 13 30s19 13 31 13s22.333 -4.33301 31 -13s13 -18.667 13 -30c0 -12.667 -4.33301 -23.167 -13 -31.5s-19 -12.5 -31 -12.5c-12.667 0 -23.167 4.16699 -31.5 12.5s-12.5 18.833 -12.5 31.5z" />
    <glyph glyph-name="eth" unicode="&#xf0;" horiz-adv-x="503" 
d="M153 621l36.001 23.999c45.333 -8 87.666 -26.667 126.999 -56l105 55l10 -10l24 -22l-102 -53c67.333 -68 101 -159.333 101 -274c0 -87.333 -18 -158 -54 -212c-38 -56.667 -91.333 -85 -160 -85c-64 0 -114.333 26.333 -151 79c-27.333 39.333 -41 82.333 -41 129
c0 80 24 138.667 72 176c34 26 75 39 123 39c54 0 98.333 -18.333 133 -55c-9.33301 74.667 -35 133.334 -77 176.001l-120 -61l-33 34l118 60c-26.667 22 -63.667 40.667 -111 56zM377.001 295.999c-30 39.333 -71 59 -123 59c-40.667 0 -72.5 -13.333 -95.5 -40
s-34.5 -64 -34.5 -112c0 -49.333 9.83301 -88 29.5 -116s47.167 -42 82.5 -42c45.333 0 80.333 19 105 57s37 91.333 37 160c0 10.667 -0.333008 22 -1 34z" />
    <glyph glyph-name="ntilde" unicode="&#xf1;" horiz-adv-x="545" 
d="M460 0l-65.999 -0.000976562v266c0 94.667 -41.333 142 -124 142c-24 0 -47.667 -5.66699 -71 -17s-41.333 -25.666 -54 -42.999v-348h-67v454h56l6 -48h3c39.333 40 88.666 60 147.999 60c112.667 0 169 -65 169 -195v-271zM163.001 561.999l-27.001 17
c16 50.667 43.667 76 83 76c18.667 0 41.334 -8.33301 68.001 -25c21.333 -12.667 36.666 -19 45.999 -19c18 0 34.667 15 50 45l27 -18c-16.667 -50.667 -43 -76 -79 -76c-14 0 -33.333 6.66699 -58 20c-1.33301 0.666992 -3.66602 2 -6.99902 4l-2 1c-20 12 -35 18 -45 18
c-11.333 0 -22.5 -4.33301 -33.5 -13s-18.5 -18.667 -22.5 -30z" />
    <glyph glyph-name="ograve" unicode="&#xf2;" horiz-adv-x="538" 
d="M485 226c0 -72 -22.667 -130.999 -68 -176.999c-40.667 -40.667 -90.667 -61 -150 -61c-68.667 0 -124 26 -166 78c-35.333 44 -53 97.333 -53 160c0 73.333 22 132.666 66 177.999c40 41.333 91 62 153 62c70 0 125.667 -26.333 167 -79c34 -44 51 -97.667 51 -161z
M120 226.001c0 -58 14.999 -104.002 44.999 -138.002c26.667 -30 60.334 -45 101.001 -45c44 0 79.5 16.833 106.5 50.5s40.5 77.834 40.5 132.501c0 57.333 -14.667 103.333 -44 138c-26.667 32 -60.667 48 -102 48c-44 0 -79.5 -17.167 -106.5 -51.5
s-40.5 -79.166 -40.5 -134.499zM249.999 542.999l-85 112h73l54 -112h-42z" />
    <glyph glyph-name="oacute" unicode="&#xf3;" horiz-adv-x="538" 
d="M485 226c0 -72 -22.667 -130.999 -68 -176.999c-40.667 -40.667 -90.667 -61 -150 -61c-68.667 0 -124 26 -166 78c-35.333 44 -53 97.333 -53 160c0 73.333 22 132.666 66 177.999c40 41.333 91 62 153 62c70 0 125.667 -26.333 167 -79c34 -44 51 -97.667 51 -161z
M120 226.001c0 -58 14.999 -104.002 44.999 -138.002c26.667 -30 60.334 -45 101.001 -45c44 0 79.5 16.833 106.5 50.5s40.5 77.834 40.5 132.501c0 57.333 -14.667 103.333 -44 138c-26.667 32 -60.667 48 -102 48c-44 0 -79.5 -17.167 -106.5 -51.5
s-40.5 -79.166 -40.5 -134.499zM366.999 654.999l-85 -112h-42l54 112h73z" />
    <glyph glyph-name="ocircumflex" unicode="&#xf4;" horiz-adv-x="538" 
d="M485 226c0 -72 -22.667 -130.999 -68 -176.999c-40.667 -40.667 -90.667 -61 -150 -61c-68.667 0 -124 26 -166 78c-35.333 44 -53 97.333 -53 160c0 73.333 22 132.666 66 177.999c40 41.333 91 62 153 62c70 0 125.667 -26.333 167 -79c34 -44 51 -97.667 51 -161z
M120 226.001c0 -58 14.999 -104.002 44.999 -138.002c26.667 -30 60.334 -45 101.001 -45c44 0 79.5 16.833 106.5 50.5s40.5 77.834 40.5 132.501c0 57.333 -14.667 103.333 -44 138c-26.667 32 -60.667 48 -102 48c-44 0 -79.5 -17.167 -106.5 -51.5
s-40.5 -79.166 -40.5 -134.499zM244.999 654.999h48l77 -112h-55l-45 68l-2 -1l-47 -67h-54z" />
    <glyph glyph-name="otilde" unicode="&#xf5;" horiz-adv-x="538" 
d="M485 226c0 -72 -22.667 -130.999 -68 -176.999c-40.667 -40.667 -90.667 -61 -150 -61c-68.667 0 -124 26 -166 78c-35.333 44 -53 97.333 -53 160c0 73.333 22 132.666 66 177.999c40 41.333 91 62 153 62c70 0 125.667 -26.333 167 -79c34 -44 51 -97.667 51 -161z
M120 226.001c0 -58 14.999 -104.002 44.999 -138.002c26.667 -30 60.334 -45 101.001 -45c44 0 79.5 16.833 106.5 50.5s40.5 77.834 40.5 132.501c0 57.333 -14.667 103.333 -44 138c-26.667 32 -60.667 48 -102 48c-44 0 -79.5 -17.167 -106.5 -51.5
s-40.5 -79.166 -40.5 -134.499zM153.999 561.999l-27.001 16.999c16.667 50.667 44.334 76 83.001 76c18.667 0 41.667 -8.33301 69 -25c21.333 -12.667 36.666 -19 45.999 -19c18 0 34.333 15 49 45l28 -18c-17.333 -50.667 -43.666 -76 -78.999 -76
c-14.667 0 -34 6.66699 -58 20c-2 0.666992 -5 2.33398 -9 5.00098c-20 12 -35.333 18 -46 18s-21.667 -4.33301 -33 -13s-19 -18.667 -23 -30z" />
    <glyph glyph-name="odieresis" unicode="&#xf6;" horiz-adv-x="538" 
d="M485 226c0 -72 -22.667 -130.999 -68 -176.999c-40.667 -40.667 -90.667 -61 -150 -61c-68.667 0 -124 26 -166 78c-35.333 44 -53 97.333 -53 160c0 73.333 22 132.666 66 177.999c40 41.333 91 62 153 62c70 0 125.667 -26.333 167 -79c34 -44 51 -97.667 51 -161z
M120 226.001c0 -58 14.999 -104.002 44.999 -138.002c26.667 -30 60.334 -45 101.001 -45c44 0 79.5 16.833 106.5 50.5s40.5 77.834 40.5 132.501c0 57.333 -14.667 103.333 -44 138c-26.667 32 -60.667 48 -102 48c-44 0 -79.5 -17.167 -106.5 -51.5
s-40.5 -79.166 -40.5 -134.499zM149.999 601.999c0 12 4.33301 22.167 13 30.5s19 12.5 31 12.5s22.333 -4.33301 31 -13s13 -18.667 13 -30c0 -12.667 -4.33301 -23.167 -13 -31.5s-19 -12.5 -31 -12.5c-12.667 0 -23.167 4.16699 -31.5 12.5s-12.5 18.833 -12.5 31.5z
M300.999 601.999c0 11.333 4.33301 21.333 13 30s19 13 31 13s22.333 -4.33301 31 -13s13 -18.667 13 -30c0 -12.667 -4.33301 -23.167 -13 -31.5s-19 -12.5 -31 -12.5c-12.667 0 -23.167 4.16699 -31.5 12.5s-12.5 18.833 -12.5 31.5z" />
    <glyph glyph-name="divide" unicode="&#xf7;" horiz-adv-x="390" 
d="M195 286c-26.667 0 -40 13.667 -40 41s13.333 41 40 41s40 -13.667 40 -41s-13.333 -41 -40 -41zM45 181v62h300v-62h-300zM195 48c-26.667 0 -40 13.667 -40 41c0 26.667 13.333 40 40 40s40 -13.333 40 -40c0 -27.333 -13.333 -41 -40 -41z" />
    <glyph glyph-name="oslash" unicode="&#xf8;" horiz-adv-x="533" 
d="M189 2l-14 -31.999h-58l25 57c-62.667 44.667 -94 111 -94 199c0 73.333 22 132.666 66 177.999c40 41.333 91 62 153 62c22.667 0 45.667 -3.66699 69 -11l16 35h59l-27 -58c67.333 -44 101 -112.667 101 -206c0 -72 -22.667 -131 -68 -177
c-40.667 -40.667 -90.667 -61 -150 -61c-25.333 0 -51.333 4.66699 -78 14zM358 375.001l-145 -321.002c16 -7.33301 33.667 -11 53 -11c44 0 79.5 16.833 106.5 50.5s40.5 77.834 40.5 132.501c0 64.667 -18.333 114.334 -55 149.001zM312 403.999
c-14.667 5.33301 -29.667 7.99902 -45 7.99902c-44 0 -79.5 -17.167 -106.5 -51.5s-40.5 -79.166 -40.5 -134.499c0 -60 16.333 -106.667 49 -140z" />
    <glyph glyph-name="ugrave" unicode="&#xf9;" horiz-adv-x="534" 
d="M444 454v-454h-52l-6 52l-3 -1c-40.667 -42 -90 -63 -148 -63c-48.667 0 -87 17.167 -115 51.5s-42 81.833 -42 142.5v272h67v-260c0 -98 36.667 -147 110 -147c22.667 0 45.5 5.66699 68.5 17s41.167 26 54.5 44v346h66zM240 543l-85 112h73l54 -112h-42z" />
    <glyph glyph-name="uacute" unicode="&#xfa;" horiz-adv-x="534" 
d="M444 454v-454h-52l-6 52l-3 -1c-40.667 -42 -90 -63 -148 -63c-48.667 0 -87 17.167 -115 51.5s-42 81.833 -42 142.5v272h67v-260c0 -98 36.667 -147 110 -147c22.667 0 45.5 5.66699 68.5 17s41.167 26 54.5 44v346h66zM357 655l-85 -112h-42l54 112h73z" />
    <glyph glyph-name="ucircumflex" unicode="&#xfb;" horiz-adv-x="534" 
d="M444 454v-454h-52l-6 52l-3 -1c-40.667 -42 -90 -63 -148 -63c-48.667 0 -87 17.167 -115 51.5s-42 81.833 -42 142.5v272h67v-260c0 -98 36.667 -147 110 -147c22.667 0 45.5 5.66699 68.5 17s41.167 26 54.5 44v346h66zM238 655h48l77 -112h-55l-45 68l-2 -1l-47 -67
h-54z" />
    <glyph glyph-name="udieresis" unicode="&#xfc;" horiz-adv-x="534" 
d="M444 454v-454h-52l-6 52l-3 -1c-40.667 -42 -90 -63 -148 -63c-48.667 0 -87 17.167 -115 51.5s-42 81.833 -42 142.5v272h67v-260c0 -98 36.667 -147 110 -147c22.667 0 45.5 5.66699 68.5 17s41.167 26 54.5 44v346h66zM143 602c0 12 4.16699 22.167 12.5 30.5
s18.833 12.5 31.5 12.5c11.333 0 21.333 -4.33301 30 -13s13 -18.667 13 -30c0 -12.667 -4.16699 -23.167 -12.5 -31.5s-18.5 -12.5 -30.5 -12.5c-12.667 0 -23.167 4.16699 -31.5 12.5s-12.5 18.833 -12.5 31.5zM294 602c0 11.333 4.16699 21.333 12.5 30s18.5 13 30.5 13
s22.333 -4.33301 31 -13s13 -18.667 13 -30c0 -12.667 -4.16699 -23.167 -12.5 -31.5s-18.833 -12.5 -31.5 -12.5c-12 0 -22.167 4.16699 -30.5 12.5s-12.5 18.833 -12.5 31.5z" />
    <glyph glyph-name="yacute" unicode="&#xfd;" horiz-adv-x="457" 
d="M442 454l-198.001 -523c-30 -81.333 -71.333 -122 -124 -122c-33.333 0 -66.666 12 -99.999 36l22 36c22.667 -12 42.667 -18 60 -18c33.333 0 62.333 31 87 93l18 44h-17l-175 454h71l144 -385l140 385h72zM325.999 650l-85 -112h-42l54 112h73z" />
    <glyph glyph-name="thorn" unicode="&#xfe;" horiz-adv-x="541" 
d="M78 609l68 35v-247c35.333 46 83 69 143 69c66 0 117.667 -24.667 155 -74c32 -41.333 48 -93.333 48 -156c0 -82.667 -23.333 -146.667 -70 -192c-37.333 -37.333 -83.333 -56 -138 -56c-56 0 -102 18.667 -138 56v-229h-68v794zM146 318l0.000976562 -191.003
c6 -23.333 21 -43.166 45 -59.499s49.333 -24.5 76 -24.5c45.333 0 82 16.833 110 50.5s42 77.834 42 132.501c0 62 -15 109.667 -45 143c-26 28 -59.333 42 -100 42c-27.333 0 -54.333 -9.66699 -81 -29s-42.334 -40.666 -47.001 -63.999z" />
    <glyph glyph-name="ydieresis" unicode="&#xff;" horiz-adv-x="457" 
d="M442 454l-198.001 -523c-30 -81.333 -71.333 -122 -124 -122c-33.333 0 -66.666 12 -99.999 36l22 36c22.667 -12 42.667 -18 60 -18c33.333 0 62.333 31 87 93l18 44h-17l-175 454h71l144 -385l140 385h72zM110.999 602c0 12 4.16699 22.167 12.5 30.5
s18.833 12.5 31.5 12.5c11.333 0 21.333 -4.33301 30 -13s13 -18.667 13 -30c0 -12.667 -4.16699 -23.167 -12.5 -31.5s-18.5 -12.5 -30.5 -12.5c-12.667 0 -23.167 4.16699 -31.5 12.5s-12.5 18.833 -12.5 31.5zM261.999 602c0 11.333 4.16699 21.333 12.5 30
s18.5 13 30.5 13s22.333 -4.33301 31 -13s13 -18.667 13 -30c0 -12.667 -4.16699 -23.167 -12.5 -31.5s-18.833 -12.5 -31.5 -12.5c-12 0 -22.167 4.16699 -30.5 12.5s-12.5 18.833 -12.5 31.5z" />
    <glyph glyph-name="dotlessi" unicode="&#x131;" horiz-adv-x="281" 
d="M165 454v-454h-67v454h67z" />
    <glyph glyph-name="Lslash" unicode="&#x141;" horiz-adv-x="460" 
d="M329 373l-162.999 -69v-240h250v-64h-323v273c-4.66699 -2 -13.334 -5.33301 -26.001 -10l-42 -17v55l68 27v305h73v-274l19 8c36 15.333 62.667 26.333 80 33l13 6c22 9.33301 39 16.333 51 21v-54z" />
    <glyph glyph-name="lslash" unicode="&#x142;" horiz-adv-x="263" 
d="M92 0v306.002c-19.333 -8.66699 -37 -17.334 -53 -26.001c-1.33301 -0.666992 -3 -1.33398 -5 -2.00098c-4 -2 -7 -3.33301 -9 -4v53l67 33v248c22.667 11.333 44.667 23 66 35l1 1v-250l44 22l9 4l26 13v-52l-79 -40v-341h-67z" />
    <glyph glyph-name="OE" unicode="&#x152;" horiz-adv-x="853" 
d="M417 633h370v-64h-299v-208h251v-64h-251v-233h312v-64h-384c-32 -8 -63.667 -12 -95 -12c-90 0 -160.333 37 -211 111c-40 59.333 -60 130.666 -60 213.999c0 98.667 25.667 179.334 77 242.001c49.333 60 114 90 194 90c33.333 0 65.333 -4 96 -12zM415 70
l0.000976562 498c-30 8.66699 -61.333 13 -94 13c-66 0 -116.333 -29 -151 -87c-27.333 -46.667 -41 -107 -41 -181c0 -84 18.667 -149.333 56 -196c34 -42.667 79.333 -64 136 -64c39.333 0 70.666 5.66699 93.999 17z" />
    <glyph glyph-name="oe" unicode="&#x153;" horiz-adv-x="863" 
d="M812 204l-324 0.00195312c2.66699 -48.667 19.667 -87.667 51 -117s71.333 -44 120 -44c42 0 82.667 12.333 122 37l22 -40c-43.333 -34.667 -96.333 -52 -159 -52c-89.333 0 -154.333 34.333 -195 103c-41.333 -68.667 -102 -103 -182 -103c-68.667 0 -124 26 -166 78
c-35.333 44 -53 97.333 -53 160c0 73.333 22 132.666 66 177.999c40 41.333 91 62 153 62c81.333 0 142 -34.667 182 -104c38.667 69.333 95 104 169 104c67.333 0 118.333 -27.333 153 -82c27.333 -42.667 41 -95.334 41 -158.001v-22zM413 226.002l-0.000976562 0.99707
c0 56.667 -14.667 102.334 -44 137.001c-26.667 32 -60.667 48 -102 48c-44 0 -79.5 -17.167 -106.5 -51.5s-40.5 -79.166 -40.5 -134.499c0 -58 15 -104 45 -138c26.667 -30 60.334 -45 101.001 -45c44 0 79.5 16.833 106.5 50.5s40.5 77.834 40.5 132.501z
M486.999 257.999h256c-1.33301 48.667 -12.833 86.667 -34.5 114s-51.5 41 -89.5 41c-36.667 0 -67 -14.333 -91 -43s-37.667 -66 -41 -112z" />
    <glyph glyph-name="Scaron" unicode="&#x160;" horiz-adv-x="517" 
d="M58 52l32.001 45.002c48.667 -28 100.334 -42 155.001 -42c42 0 75 9.83301 99 29.5s36 47.5 36 83.5c0 61.333 -40.333 106 -121 134c-68.667 23.333 -118.334 49.333 -149.001 78s-46 63.667 -46 105c0 49.333 19.333 89 58 119c35.333 27.333 81.666 41 138.999 41
c62.667 0 119.667 -17.333 171 -52l-33 -45c-41.333 22 -85.666 33 -132.999 33c-38.667 0 -69.334 -8.33301 -92.001 -25s-34 -39.334 -34 -68.001c0 -44.667 34.667 -80 104 -106c78.667 -30 133.834 -60.833 165.501 -92.5s47.5 -72.834 47.5 -123.501
c0 -58 -22.333 -103.667 -67 -137c-36.667 -27.333 -81.334 -41 -134.001 -41c-66 0 -132 21.333 -198 64zM234.001 721.002l-78 112h54l47 -68h2l45 68h55l-77 -112h-48z" />
    <glyph glyph-name="scaron" unicode="&#x161;" horiz-adv-x="415" 
d="M316 386c-33.333 17.333 -69.6689 25.999 -109.002 25.999c-26.667 0 -47.5 -5.83301 -62.5 -17.5s-22.5 -27.5 -22.5 -47.5c0 -21.333 6.83301 -37.833 20.5 -49.5s39.834 -23.167 78.501 -34.5c54.667 -16.667 92.667 -35.334 114 -56.001s32 -49.667 32 -87
c0 -39.333 -14.833 -71.166 -44.5 -95.499s-67.834 -36.5 -114.501 -36.5c-61.333 0 -114.666 16.667 -159.999 50l10 17c4.66699 8.66699 8.66699 15.334 12 20.001c38.667 -21.333 80.334 -32 125.001 -32c70 0 105 26.333 105 79c0 21.333 -7.5 38 -22.5 50
s-42.833 23.333 -83.5 34c-94.667 26.667 -142 73 -142 139c0 35.333 13.833 64.333 41.5 87s63.167 34 106.5 34c51.333 0 97.333 -14.333 138 -43zM216.997 542.999h-47l-79 112h52l49 -71h2l48 71h53z" />
    <glyph glyph-name="Ydieresis" unicode="&#x178;" horiz-adv-x="530" 
d="M15 633h78l172 -320l172 320h78l-213 -385v-248h-73v248zM146 770c0 12 4.16699 22.167 12.5 30.5s18.833 12.5 31.5 12.5c11.333 0 21.333 -4.33301 30 -13s13 -18.667 13 -30c0 -12.667 -4.16699 -23.167 -12.5 -31.5s-18.5 -12.5 -30.5 -12.5
c-12.667 0 -23.167 4.16699 -31.5 12.5s-12.5 18.833 -12.5 31.5zM297 770c0 11.333 4.16699 21.333 12.5 30s18.5 13 30.5 13s22.333 -4.33301 31 -13s13 -18.667 13 -30c0 -12.667 -4.16699 -23.167 -12.5 -31.5s-18.833 -12.5 -31.5 -12.5
c-12 0 -22.167 4.16699 -30.5 12.5s-12.5 18.833 -12.5 31.5z" />
    <glyph glyph-name="Zcaron" unicode="&#x17d;" horiz-adv-x="465" 
d="M433 566l-322 -503h329v-63h-415v60l329 510h-320v63h399v-67zM251 716h-48l-78 112h52l49 -71h2l48 71h52z" />
    <glyph glyph-name="zcaron" unicode="&#x17e;" horiz-adv-x="410" 
d="M385 0h-360v58l275 341h-258v55h337v-58l-274 -341h280v-55zM227 543h-48l-78 112h52l49 -71h2l48 71h52z" />
    <glyph glyph-name="florin" unicode="&#x192;" horiz-adv-x="390" 
d="M373 609l-23.998 -37c-22 11.333 -43.667 17 -65 17c-39.333 0 -59 -24.667 -59 -74v-61h114v-54h-114v-400c0 -93.333 -33.667 -140 -101 -140c-32.667 0 -63.667 11.667 -93 35l24 37c21.333 -12 39.666 -18 54.999 -18c32.667 0 49 29 49 87v399h-65v54h65v64
c0 39.333 9.66699 70 29 92s46.666 33 81.999 33c36 0 70.333 -11.333 103 -34z" />
    <glyph glyph-name="circumflex" unicode="&#x2c6;" horiz-adv-x="211" 
d="M83 655h47l78 -112h-55l-46 68l-2 -1l-47 -67h-54z" />
    <glyph glyph-name="caron" unicode="&#x2c7;" horiz-adv-x="211" 
d="M130 543h-47l-79 112h52l49 -71h2l48 71h53z" />
    <glyph glyph-name="breve" unicode="&#x2d8;" horiz-adv-x="242" 
d="M222 645v-0.999023c0 -32.667 -9.16699 -58.334 -27.5 -77.001s-42.833 -28 -73.5 -28c-32 0 -56.833 9.33301 -74.5 28s-26.5 44.667 -26.5 78h44c2 -45.333 21 -68 57 -68c38 0 57.333 22.667 58 68h43z" />
    <glyph glyph-name="dotaccent" unicode="&#x2d9;" horiz-adv-x="102" 
d="M5 599c0 12.667 4.5 23.5 13.5 32.5s19.833 13.5 32.5 13.5s23.5 -4.5 32.5 -13.5s13.5 -19.833 13.5 -32.5s-4.5 -23.5 -13.5 -32.5s-19.833 -13.5 -32.5 -13.5s-23.5 4.5 -32.5 13.5s-13.5 19.833 -13.5 32.5z" />
    <glyph glyph-name="ring" unicode="&#x2da;" horiz-adv-x="166" 
d="M20 589c0 17.333 6.16699 32.166 18.5 44.499s27.166 18.5 44.499 18.5s32.166 -6.16699 44.499 -18.5s18.5 -27.166 18.5 -44.499s-6.16699 -32.166 -18.5 -44.499s-27.166 -18.5 -44.499 -18.5s-32.166 6.16699 -44.499 18.5s-18.5 27.166 -18.5 44.499zM50 589
c0 -21.333 11 -32.001 33 -32.001c8.66699 0 16.334 3.16699 23.001 9.5s10 13.833 10 22.5s-3.33301 16.334 -10 23.001s-14.334 10 -23.001 10c-22 0 -33 -11 -33 -33z" />
    <glyph glyph-name="ogonek" unicode="&#x2db;" horiz-adv-x="188" 
d="M62 4l46.999 0.000976562c-27.333 -34.667 -41 -63.334 -41 -86.001c0 -23.333 12 -35 36 -35c14.667 0 31 3.66699 49 11l12 -35c-21.333 -12 -45.666 -18 -72.999 -18c-22 0 -39.833 6.66699 -53.5 20s-20.5 31 -20.5 53c0 25.333 14.667 55.333 44 90z" />
    <glyph glyph-name="tilde" unicode="&#x2dc;" horiz-adv-x="297" 
d="M38 562l-27.001 16.999c16.667 50.667 44.334 76 83.001 76c18.667 0 41.667 -8.33301 69 -25c21.333 -12.667 36.666 -19 45.999 -19c18 0 34.333 15 49 45l28 -18c-17.333 -50.667 -43.666 -76 -78.999 -76c-14.667 0 -34 6.66699 -58 20
c-2 0.666992 -5 2.33398 -9 5.00098c-20 12 -35.333 18 -46 18s-21.667 -4.33301 -33 -13s-19 -18.667 -23 -30z" />
    <glyph glyph-name="hungarumlaut" unicode="&#x2dd;" horiz-adv-x="302" 
d="M152 661l-84 -116h-43l54 116h73zM277 661l-89 -116h-43l59 116h73z" />
    <glyph glyph-name="pi" unicode="&#x3c0;" horiz-adv-x="560" 
d="M385 0v397h-217v-397h-67v398h-59v56h476v-57h-65v-397h-68z" />
    <glyph glyph-name="uni060C" unicode="&#x60c;" horiz-adv-x="219" 
d="M118 91c30 0 45 -15 45 -45v-1v-1c0 -14.667 -4.5 -26.5 -13.5 -35.5s-20.5 -13.5 -34.5 -13.5c-33.333 0 -50 21 -50 63v105l31 12v-84h22z" />
    <glyph glyph-name="uni061B" unicode="&#x61b;" horiz-adv-x="228" 
d="M136 338c30 0 45 -15 45 -45v-1v-1c0 -14.667 -4.5 -26.5 -13.5 -35.5s-20.5 -13.5 -34.5 -13.5c-33.333 0 -50 21 -50 63v105l31 12v-84h22zM174 40l0.000976562 -2c0 -28.667 -13.667 -43 -41 -43c-28.667 0 -43 14.667 -43 44c1.33301 27.333 15.666 41 42.999 41
s41 -13.333 41 -40z" />
    <glyph glyph-name="uni061F" unicode="&#x61f;" horiz-adv-x="429" 
d="M218 123c12 24.667 18 47.333 18 68c0 22 -5.83301 42 -17.5 60s-34.834 42.667 -69.501 74c-18 16 -31.333 28.333 -40 37c-40.667 41.333 -61 88 -61 140c0 45.333 15 82.666 45 111.999s68.667 44 116 44c52 0 98.667 -18 140 -54v-68c-48 40.667 -93.333 61 -136 61
c-29.333 0 -53.166 -8.83301 -71.499 -26.5s-27.5 -40.5 -27.5 -68.5c0 -34 14.333 -65.333 43 -94c6 -6 16.333 -15.667 31 -29c42 -38.667 70.833 -71.167 86.5 -97.5s23.5 -55.166 23.5 -86.499c0 -23.333 -5.66699 -47.333 -17 -72h-63zM290 35.999l0.000976562 -2
c0 -28.667 -13.667 -43 -41 -43c-28.667 0 -43 14.667 -43 44c1.33301 27.333 15.666 41 42.999 41s41 -13.333 41 -40z" />
    <glyph glyph-name="uni0621" unicode="&#x621;" horiz-adv-x="513" 
d="M35 -54l0.00195312 63.999c24.667 18.667 59.667 31.667 105 39c-34 46.667 -51 98 -51 154c0 54 13.167 98.833 39.5 134.5s62.166 57.5 107.499 65.5c10 2 20 3 30 3c58 0 105.667 -23.667 143 -71v-67c-41.333 51.333 -88 77 -140 77c-8 0 -15.667 -0.666992 -23 -2
c-60 -12 -90 -57.333 -90 -136c0 -61.333 21 -110.666 63 -147.999c8.66699 0.666992 20.667 1 36 1c87.333 1.33301 156.666 20.333 207.999 57v-62c-56 -36.667 -129 -55 -219 -55c-88 0 -157.667 -18 -209 -54z" />
    <glyph glyph-name="uni0622" unicode="&#x622;" horiz-adv-x="247" 
d="M235 749c-20 -32 -42.001 -48 -66.001 -48c-15.333 0 -33.333 7 -54 21c-14.667 10 -26 15 -34 15c-12 0 -25.667 -10.667 -41 -32l-26 19c20.667 32.667 42.667 49 66 49c13.333 0 29.333 -6.33301 48 -19c16 -11.333 29.333 -17 40 -17s24.334 10.333 41.001 31z
M89.999 0v610l67 35v-645h-67z" />
    <glyph glyph-name="uni0623" unicode="&#x623;" horiz-adv-x="247" 
d="M35 659l19.002 35h25c-6.66699 11.333 -10 23.333 -10 36c0 18.667 7.16699 35 21.5 49s30.833 21 49.5 21c14.667 0 29 -4.66699 43 -14v-37c-12.667 9.33301 -25.334 14 -38.001 14c-10.667 0 -19.834 -3.33301 -27.501 -10s-11.5 -14.667 -11.5 -24
c0 -12 5 -23.667 15 -35h87l-19 -35h-154zM90.002 0v570l67 35v-605h-67z" />
    <glyph glyph-name="uni0624" unicode="&#x624;" horiz-adv-x="493" 
d="M311 597l-19 -36.002h-155l19 36h26c-6.66699 12 -10 24 -10 36c0 18.667 7 34.834 21 48.501s30.667 20.5 50 20.5c14.667 0 29 -4.33301 43 -13v-38c-13.333 10 -26.333 15 -39 15c-10.667 0 -19.667 -3.5 -27 -10.5s-11 -15.167 -11 -24.5
c0 -11.333 4.66699 -22.666 14 -33.999h88zM346 36.998c-28 -16 -63.999 -24.001 -107.999 -24.001c-58 0 -103.333 22.333 -136 67c-28 38 -42 86 -42 144c0 70 18.667 124.667 56 164c32.667 34.667 76 52 130 52c55.333 0 98 -17.333 128 -52c26 -30 39 -70 39 -120v-220
c0 -62 -13 -113.167 -39 -153.5s-63 -66.166 -111 -77.499c-16 -4.66699 -33.333 -7 -52 -7c-38.667 0 -76.334 9.33301 -113.001 28v59c34.667 -18.667 69 -28 103 -28c27.333 0 51.333 6 72 18c46.667 23.333 71 73.333 73 150zM346.001 261.997
c0 78 -33.333 117.001 -100 117.001c-37.333 0 -66.833 -13.667 -88.5 -41s-32.5 -65 -32.5 -113c0 -46.667 10.333 -83.834 31 -111.501s48.667 -41.5 84 -41.5c52.667 0 88 14.667 106 44v146z" />
    <glyph glyph-name="uni0625" unicode="&#x625;" horiz-adv-x="247" 
d="M90 0v610l67 35v-645h-67zM33 -236l19 35.998h26c-6.66699 12 -10 24 -10 36c0 18.667 7 34.834 21 48.501s30.667 20.5 50 20.5c14.667 0 29 -4.33301 43 -13v-38c-13.333 10 -26.333 15 -39 15c-10.667 0 -19.667 -3.5 -27 -10.5s-11 -15.167 -11 -24.5
c0 -11.333 4.66699 -22.666 14 -33.999h88l-19 -36h-155z" />
    <glyph glyph-name="uni0626" unicode="&#x626;" horiz-adv-x="713" 
d="M58 340l18.998 36h25c-6 11.333 -9 23 -9 35c0 19.333 7 35.833 21 49.5s30.667 20.5 50 20.5c14.667 0 29 -4.33301 43 -13v-38c-13.333 9.33301 -26.666 14 -39.999 14c-11.333 0 -20.666 -3.33301 -27.999 -10c-6.66699 -6.66699 -10 -14.667 -10 -24
c0 -12 5 -23.333 15 -34h87l-19 -36h-154zM611.998 300c-42 48 -88.6689 72 -140.002 72c-28.667 0 -51.334 -8.5 -68.001 -25.5s-25 -40.167 -25 -69.5v-2c0.666992 -30.667 10 -54.667 28 -72s53 -35 105 -53c54.667 -19.333 91.834 -38.666 111.501 -57.999
s29.5 -46.666 29.5 -81.999c0 -59.333 -28.333 -108 -85 -146c-53.333 -36 -122.666 -54 -207.999 -54c-102.667 0 -180 30 -232 90c-38.667 44.667 -58 99.667 -58 165c0 57.333 14.667 106.666 44 147.999l65 13c-32 -48.667 -48 -100.667 -48 -156
c0 -60.667 21 -109 63 -145c40.667 -35.333 96 -53 166 -53c76.667 0 136 16 178 48c32.667 25.333 49 55.333 49 90c0 20.667 -7.33301 37 -22 49s-43.667 25.667 -87 41c-56 20 -95 39.667 -117 59c-31.333 28.667 -47 67.667 -47 117c0 51.333 18.333 91.666 55 120.999
c28.667 22.667 61.334 34 98.001 34c58.667 0 107 -22 145 -66v-65z" />
    <glyph glyph-name="uni0627" unicode="&#x627;" horiz-adv-x="247" 
d="M90 0v610l67 35v-645h-67z" />
    <glyph glyph-name="uni0628" unicode="&#x628;" horiz-adv-x="869" 
d="M252 0c-49.333 0 -88.667 15.5 -118 46.5s-44 72.833 -44 125.5v131l67 35v-158c0 -78.667 36.667 -118 110 -118h335c73.333 0 110 39.333 110 118v213l67 35v-256c0 -56.667 -17.333 -100.667 -52 -132c-30 -26.667 -69.333 -40 -118 -40h-357zM414.999 -187
c-27.333 0 -41 14 -41 42c0 26.667 13.667 40 41 40c26 0 39 -13.333 39 -40c0 -28 -13 -42 -39 -42z" />
    <glyph glyph-name="uni0629" unicode="&#x629;" horiz-adv-x="512" 
d="M194 565c-26.667 0 -40 14 -40 42c0 26.667 13.333 40 40 40s40 -13.333 40 -40c0 -28 -13.333 -42 -40 -42zM308 565c-26.667 0 -40 14 -40 42c0 26.667 13.333 40 40 40s40 -13.333 40 -40c0 -28 -13.333 -42 -40 -42zM253 0c-59.333 0 -105.667 19.667 -139 59
c-28 34 -42 78 -42 132c0 123.333 62 206.333 186 249c124 -42.667 186 -125.667 186 -249c0 -62 -18.333 -110.333 -55 -145c-32 -30.667 -74 -46 -126 -46h-10zM249.999 62l16 -0.000976562c34.667 0 62 11.5 82 34.5s30 54.5 30 94.5c0 88.667 -40 151.334 -120 188.001
c-80 -36.667 -120 -99.334 -120 -188.001c0 -39.333 10 -70.666 30 -93.999s47.333 -35 82 -35z" />
    <glyph glyph-name="uni062A" unicode="&#x62a;" horiz-adv-x="869" 
d="M355 465c-26.667 0 -40 14 -40 42c0 26.667 13.333 40 40 40s40 -13.333 40 -40c0 -28 -13.333 -42 -40 -42zM470 465c-27.333 0 -41 14 -41 42c0 26.667 13.667 40 41 40c26 0 39 -13.333 39 -40c0 -28 -13 -42 -39 -42zM252 0c-49.333 0 -88.667 15.5 -118 46.5
s-44 72.833 -44 125.5v131l67 35v-158c0 -78.667 36.667 -118 110 -118h335c73.333 0 110 39.333 110 118v213l67 35v-256c0 -56.667 -17.333 -100.667 -52 -132c-30 -26.667 -69.333 -40 -118 -40h-357z" />
    <glyph glyph-name="uni062B" unicode="&#x62b;" horiz-adv-x="869" 
d="M417 569c-26 0 -39 13.667 -39 41c0 26 13 39 39 39c25.333 0 38 -13 38 -39c0 -27.333 -12.667 -41 -38 -41zM360 465c-26.667 0 -40 14 -40 42c0 26.667 13.333 40 40 40s40 -13.333 40 -40c0 -28 -13.333 -42 -40 -42zM475 465c-27.333 0 -41 14 -41 42
c0 26.667 13.667 40 41 40c26 0 39 -13.333 39 -40c0 -28 -13 -42 -39 -42zM252 0c-49.333 0 -88.667 15.5 -118 46.5s-44 72.833 -44 125.5v131l67 35v-158c0 -78.667 36.667 -118 110 -118h335c73.333 0 110 39.333 110 118v213l67 35v-256
c0 -56.667 -17.333 -100.667 -52 -132c-30 -26.667 -69.333 -40 -118 -40h-357z" />
    <glyph glyph-name="uni062C" unicode="&#x62c;" horiz-adv-x="622" 
d="M497 -323c-54.667 -34.667 -116.668 -52 -186.001 -52c-74.667 0 -134.667 25 -180 75c-40.667 44.667 -61 100.667 -61 168c0 72 22 131 66 177c20 20.667 42.833 36.5 68.5 47.5s65.5 21.5 119.5 31.5c55.333 11.333 95.666 22.666 120.999 33.999s47 28.333 65 51
c-58 114 -129.667 171 -215 171c-58 0 -114 -29 -168 -87v66c54.667 54 111.667 81 171 81h2c104.667 0 195.334 -70.667 272.001 -212v-41c-22.667 -32.667 -49.667 -57 -81 -73s-80.333 -31 -147 -45c-81.333 -16 -135.666 -37.667 -162.999 -65
c-32.667 -32.667 -49 -78.667 -49 -138c0 -57.333 19 -102.666 57 -135.999c32.667 -28.667 73.667 -43 123 -43h2c76 0 137 17 183 51v-61zM313.999 -171c-25.333 0 -38 13 -38 39c0 25.333 12.667 38 38 38c24.667 0 37 -12.667 37 -38c0 -26 -12.333 -39 -37 -39z" />
    <glyph glyph-name="uni062D" unicode="&#x62d;" horiz-adv-x="622" 
d="M497 -323c-54.667 -34.667 -116.669 -52.0039 -186.002 -52.0039c-74.667 0 -134.667 25 -180 75c-40.667 44.667 -61 100.667 -61 168c0 72 22 131 66 177c20 20.667 43 36.5 69 47.5s65.667 21.5 119 31.5c54.667 10.667 94.667 21.834 120 33.501
s47.333 28.834 66 51.501c-58 114 -129.667 171 -215 171c-58 0 -114 -29 -168 -87v66c54.667 54 111.667 81 171 81h2c104.667 0 195.334 -70.667 272.001 -212v-41c-23.333 -32.667 -50.833 -57.167 -82.5 -73.5s-80.167 -31.166 -145.5 -44.499
c-81.333 -16 -135.666 -37.667 -162.999 -65c-32.667 -32.667 -49 -78.667 -49 -138c0 -57.333 19 -102.666 57 -135.999c32 -28.667 73 -43 123 -43h2c76 0 137 17 183 51v-61z" />
    <glyph glyph-name="uni062E" unicode="&#x62e;" horiz-adv-x="622" 
d="M326 560c-27.333 0 -41 14 -41 42c0 26.667 13.667 40 41 40c26 0 39 -13.333 39 -40c0 -28 -13 -42 -39 -42zM497 -323c-54.667 -34.667 -116.669 -52.0039 -186.002 -52.0039c-74.667 0 -134.667 25 -180 75c-40.667 44.667 -61 100.667 -61 168c0 72 22 131 66 177
c20 20.667 43 36.5 69 47.5s65.667 21.5 119 31.5c54.667 10.667 94.667 21.834 120 33.501s47.333 28.834 66 51.501c-58 114 -129.667 171 -215 171c-58 0 -114 -29 -168 -87v66c54.667 54 111.667 81 171 81h2c104.667 0 195.334 -70.667 272.001 -212v-41
c-23.333 -32.667 -50.833 -57.167 -82.5 -73.5s-80.167 -31.166 -145.5 -44.499c-81.333 -16 -135.666 -37.667 -162.999 -65c-32.667 -32.667 -49 -78.667 -49 -138c0 -57.333 19 -102.666 57 -135.999c32 -28.667 73 -43 123 -43h2c76 0 137 17 183 51v-61z" />
    <glyph glyph-name="uni062F" unicode="&#x62f;" horiz-adv-x="449" 
d="M10 0l32 62h188c30.667 0 52.167 7.66699 64.5 23s18.5 42 18.5 80c0 97.333 -42.667 170.333 -128 219l32 55c108.667 -63.333 163 -155 163 -275c0 -109.333 -46.333 -164 -139 -164h-231z" />
    <glyph glyph-name="uni0630" unicode="&#x630;" horiz-adv-x="449" 
d="M221 560c-27.333 0 -41 14 -41 42c0 26.667 13.667 40 41 40c26 0 39 -13.333 39 -40c0 -28 -13 -42 -39 -42zM10 0l32 62h188c30.667 0 52.167 7.66699 64.5 23s18.5 42 18.5 80c0 97.333 -42.667 170.333 -128 219l32 55c108.667 -63.333 163 -155 163 -275
c0 -109.333 -46.333 -164 -139 -164h-231z" />
    <glyph glyph-name="uni0631" unicode="&#x631;" horiz-adv-x="311" 
d="M221 48c0 -121.333 -44.667 -197.333 -134 -228c-21.333 -7.33301 -44 -11 -68 -11c-38.667 0 -76 9.33301 -112 28v59c34 -18.667 68.667 -28 104 -28c28 0 52.667 6.33301 74 19c46.667 28 70 80.333 70 157v349l66 35v-380z" />
    <glyph glyph-name="uni0632" unicode="&#x632;" horiz-adv-x="311" 
d="M182 560c-27.333 0 -41 14 -41 42c0 26.667 13.667 40 41 40c26 0 39 -13.333 39 -40c0 -28 -13 -42 -39 -42zM221 48c0 -121.333 -44.667 -197.333 -134 -228c-21.333 -7.33301 -44 -11 -68 -11c-38.667 0 -76 9.33301 -112 28v59c34 -18.667 68.667 -28 104 -28
c28 0 52.667 6.33301 74 19c46.667 28 70 80.333 70 157v349l66 35v-380z" />
    <glyph glyph-name="uni0633" unicode="&#x633;" horiz-adv-x="1318" 
d="M1161 393l66.999 35.001v-254c0 -55.333 -16.667 -99 -50 -131c-30 -28.667 -69.667 -43 -119 -43h-53c-60.667 0 -106 20.667 -136 62c-30 -41.333 -75.333 -62 -136 -62h-53c-39.333 0 -73.666 9.66699 -102.999 29c-4.66699 -70 -32.667 -125 -84 -165
c-45.333 -36 -102.666 -54 -171.999 -54c-84.667 0 -150.334 30 -197.001 90c-36.667 46 -55 101 -55 165c0 57.333 14.667 106.666 44 147.999l65 13c-32 -48.667 -48 -100.667 -48 -156c0 -58.667 19 -107 57 -145c35.333 -35.333 80 -53 134 -53
c63.333 0 112.333 18.667 147 56c28.667 30.667 43 71 43 121v271l67 35v-179c0 -76 37 -114 111 -114h36c74 0 111 38 111 114v180l66 36v-216c0 -76 37 -114 111 -114h37c73.333 0 110 38 110 114v217z" />
    <glyph glyph-name="uni0634" unicode="&#x634;" horiz-adv-x="1318" 
d="M868 631c-24.667 0 -37 12.667 -37 38c0 24 12.333 36 37 36c24 0 36 -12 36 -36c0 -25.333 -12 -38 -36 -38zM811 527c-26.667 0 -40 13.667 -40 41s13.333 41 40 41s40 -13.667 40 -41s-13.333 -41 -40 -41zM885 568c0 27.333 13.667 41 41 41c26 0 39 -13.667 39 -41
s-13 -41 -39 -41c-27.333 0 -41 13.667 -41 41zM1161 393l66.999 35.001v-254c0 -55.333 -16.667 -99 -50 -131c-30 -28.667 -69.667 -43 -119 -43h-53c-60.667 0 -106 20.667 -136 62c-30 -41.333 -75.333 -62 -136 -62h-53c-39.333 0 -73.666 9.66699 -102.999 29
c-4.66699 -70 -32.667 -125 -84 -165c-45.333 -36 -102.666 -54 -171.999 -54c-84.667 0 -150.334 30 -197.001 90c-36.667 46 -55 101 -55 165c0 57.333 14.667 106.666 44 147.999l65 13c-32 -48.667 -48 -100.667 -48 -156c0 -58.667 19 -107 57 -145
c35.333 -35.333 80 -53 134 -53c63.333 0 112.333 18.667 147 56c28.667 30.667 43 71 43 121v271l67 35v-179c0 -76 37 -114 111 -114h36c74 0 111 38 111 114v180l66 36v-216c0 -76 37 -114 111 -114h37c73.333 0 110 38 110 114v217z" />
    <glyph glyph-name="uni0635" unicode="&#x635;" horiz-adv-x="1329" 
d="M652 66c24 102 66.998 188.002 128.998 258.002c68.667 77.333 149.334 116 242.001 116c74.667 0 134 -25.667 178 -77c37.333 -44 56 -98.333 56 -163v-28c0 -56.667 -17.333 -100.667 -52 -132c-29.333 -26.667 -68.333 -40 -117 -40h-407
c-39.333 0 -73.666 9.66699 -102.999 29c-4.66699 -70 -32.667 -125 -84 -165c-45.333 -36 -102.666 -54 -171.999 -54c-84.667 0 -150.334 30 -197.001 90c-36.667 46 -55 101 -55 165c0 57.333 14.667 106.666 44 147.999l65 13c-32 -48.667 -48 -100.667 -48 -156
c0 -58.667 19 -107 57 -145c35.333 -35.333 80 -53 134 -53c63.333 0 112.333 18.667 147 56c28.667 30.667 43 71 43 121v271l67 35v-179c0 -62.667 24.333 -99.334 73 -110.001zM1190 180.002v20c0 56 -17.667 101 -53 135c-30 29.333 -67.667 44 -113 44
c-78.667 0 -148 -36.667 -208 -110c-46 -55.333 -80.333 -124.333 -103 -207h370c71.333 0 107 39.333 107 118z" />
    <glyph glyph-name="uni0636" unicode="&#x636;" horiz-adv-x="1329" 
d="M1018 560c-27.333 0 -41 14 -41 42c0 26.667 13.667 40 41 40c26 0 39 -13.333 39 -40c0 -28 -13 -42 -39 -42zM652 66c24 102 66.998 188.002 128.998 258.002c68.667 77.333 149.334 116 242.001 116c74.667 0 134 -25.667 178 -77c37.333 -44 56 -98.333 56 -163v-28
c0 -56.667 -17.333 -100.667 -52 -132c-29.333 -26.667 -68.333 -40 -117 -40h-407c-39.333 0 -73.666 9.66699 -102.999 29c-4.66699 -70 -32.667 -125 -84 -165c-45.333 -36 -102.666 -54 -171.999 -54c-84.667 0 -150.334 30 -197.001 90c-36.667 46 -55 101 -55 165
c0 57.333 14.667 106.666 44 147.999l65 13c-32 -48.667 -48 -100.667 -48 -156c0 -58.667 19 -107 57 -145c35.333 -35.333 80 -53 134 -53c63.333 0 112.333 18.667 147 56c28.667 30.667 43 71 43 121v271l67 35v-179c0 -62.667 24.333 -99.334 73 -110.001z
M1190 180.002v20c0 56 -17.667 101 -53 135c-30 29.333 -67.667 44 -113 44c-78.667 0 -148 -36.667 -208 -110c-46 -55.333 -80.333 -124.333 -103 -207h370c71.333 0 107 39.333 107 118z" />
    <glyph glyph-name="uni0637" unicode="&#x637;" horiz-adv-x="863" 
d="M247 225c78 143.333 181.333 215 310 215c74.667 0 134 -25.667 178 -77c37.333 -44 56 -98.333 56 -163v-35c0 -110 -48 -165 -144 -165h-627l33 62h132v548l62 35v-420zM724 200c0 56 -17.667 101 -53 135c-30 29.333 -67.667 44 -113 44
c-78 0 -147.333 -37.667 -208 -113c-46 -56.667 -80 -124.667 -102 -204h392c32 0 54 7.5 66 22.5s18 42.5 18 82.5v33z" />
    <glyph glyph-name="uni0638" unicode="&#x638;" horiz-adv-x="863" 
d="M247 225c78 143.333 181.333 215 310 215c74.667 0 134 -25.667 178 -77c37.333 -44 56 -98.333 56 -163v-35c0 -110 -48 -165 -144 -165h-627l33 62h132v548l62 35v-420zM724 200c0 56 -17.667 101 -53 135c-30 29.333 -67.667 44 -113 44
c-78 0 -147.333 -37.667 -208 -113c-46 -56.667 -80 -124.667 -102 -204h392c32 0 54 7.5 66 22.5s18 42.5 18 82.5v33zM552 560c-27.333 0 -41 14 -41 42c0 26.667 13.667 40 41 40c26 0 39 -13.333 39 -40c0 -28 -13 -42 -39 -42z" />
    <glyph glyph-name="uni0639" unicode="&#x639;" horiz-adv-x="553" 
d="M503 -323c-54.667 -34.667 -116.332 -51.998 -184.999 -51.998c-80 0 -143.333 25 -190 75c-38.667 41.333 -58 90.333 -58 147c0 41.333 10.667 78.666 32 111.999s50.333 58.333 87 75c-68 38.667 -102 104.667 -102 198c0 67.333 23 120.666 69 159.999
c36 31.333 79 47.333 129 48c68 0 121.667 -27 161 -81v-66c-40.667 57.333 -92.334 86 -155.001 86c-41.333 0 -74.666 -13.833 -99.999 -41.5s-38 -63.5 -38 -107.5c0 -51.333 15.333 -92.333 46 -123c29.333 -30 68.666 -45 117.999 -45h177v-62h-175
c-64.667 -0 -113.667 -17.667 -147 -53c-25.333 -26.667 -38 -59.667 -38 -99c0 -48 17.667 -87.333 53 -118c33.333 -28.667 77 -43 131 -43h2c76 0 137 17 183 51v-61z" />
    <glyph glyph-name="uni063A" unicode="&#x63a;" horiz-adv-x="553" 
d="M299 560c-27.333 0 -41 14 -41 42c0 26.667 13.667 40 41 40c26 0 39 -13.333 39 -40c0 -28 -13 -42 -39 -42zM503 -323c-54.667 -34.667 -116.332 -51.998 -184.999 -51.998c-80 0 -143.333 25 -190 75c-38.667 41.333 -58 90.333 -58 147
c0 41.333 10.667 78.666 32 111.999s50.333 58.333 87 75c-68 38.667 -102 104.667 -102 198c0 67.333 23 120.666 69 159.999c36 31.333 79 47.333 129 48c68 0 121.667 -27 161 -81v-66c-40.667 57.333 -92.334 86 -155.001 86c-41.333 0 -74.666 -13.833 -99.999 -41.5
s-38 -63.5 -38 -107.5c0 -51.333 15.333 -92.333 46 -123c29.333 -30 68.666 -45 117.999 -45h177v-62h-175c-64.667 -0 -113.667 -17.667 -147 -53c-25.333 -26.667 -38 -59.667 -38 -99c0 -48 17.667 -87.333 53 -118c33.333 -28.667 77 -43 131 -43h2c76 0 137 17 183 51
v-61z" />
    <glyph glyph-name="uni0640" unicode="&#x640;" horiz-adv-x="116" 
d="M-10 0v62h136v-62h-136z" />
    <glyph glyph-name="uni0641" unicode="&#x641;" horiz-adv-x="935" 
d="M695 557c-27.333 0 -41 14 -41 42c0 26.667 13.667 40 41 40c26 0 39 -13.333 39 -40c0 -28 -13 -42 -39 -42zM257 0c-54 0 -96.333 17.999 -127 53.999c-26.667 32 -40 73 -40 123v131l67 35v-158c0 -82 38 -123 114 -123h286c-36.667 35.333 -55 88 -55 158
c0 72 18.667 127.667 56 167c32.667 35.333 76 53 130 53c55.333 0 98 -17.333 128 -52c26 -30 39 -70 39 -120v-96c0 -55.333 -17 -98.666 -51 -129.999c-30 -28 -69.667 -42 -119 -42h-428zM788 261.999c0 78 -33.333 117 -100 117c-38 0 -67.5 -14 -88.5 -42
s-31.5 -66.667 -31.5 -116c0 -48 10.333 -86.5 31 -115.5s48 -43.5 82 -43.5c71.333 0 107 38.667 107 116v84z" />
    <glyph glyph-name="uni0642" unicode="&#x642;" horiz-adv-x="734" 
d="M432 557c-27.333 0 -41 14 -41 42c0 26.667 13.667 40 41 40c26 0 39 -13.333 39 -40c0 -28 -13 -42 -39 -42zM546 557c-27.333 0 -41 14 -41 42c0 26.667 13.667 40 41 40c26 0 39 -13.333 39 -40c0 -28 -13 -42 -39 -42zM654 49c0 -77.333 -28 -137.332 -84 -179.999
c-51.333 -39.333 -121.333 -59 -210 -59c-102.667 0 -180 30 -232 90c-38.667 44.667 -58 99.667 -58 165c0 57.333 14.667 106.666 44 147.999l65 13c-32 -48.667 -48 -100.667 -48 -156c0 -60.667 21 -109 63 -145c40.667 -35.333 96 -53 166 -53
c80 0 139.333 18.333 178 55c32 30 48 70 48 120c-24.667 -22.667 -60.334 -34 -107.001 -34c-57.333 0 -102.666 22.667 -135.999 68c-28 38 -42 85.667 -42 143c0 70 18.667 124.667 56 164c32.667 34.667 76 52 130 52c55.333 0 98 -17.333 128 -52
c26 -30 39 -70 39 -120v-219zM587 262.001c0 78 -33.333 116.999 -100 116.999c-37.333 0 -66.666 -13.667 -87.999 -41s-32 -65 -32 -113c0 -47.333 10.167 -84.666 30.5 -111.999s48.166 -41 83.499 -41c54 0 89.333 15.333 106 46v144z" />
    <glyph glyph-name="uni0643" unicode="&#x643;" horiz-adv-x="868" 
d="M711 610l66.999 35v-473c0 -56.667 -17.333 -100.667 -52 -132c-29.333 -26.667 -68.333 -40 -117 -40h-357c-49.333 0 -88.666 15.5 -117.999 46.5s-44 72.833 -44 125.5v131l67 35v-158c0 -78.667 36.667 -118 110 -118h335c72.667 0 109 39.333 109 118v430z
M429.999 477c27.333 0 49 -7.33203 65 -21.999s24 -34.334 24 -59.001c0 -22 -6.5 -39.5 -19.5 -52.5s-30.167 -19.5 -51.5 -19.5h-124l19 35h102c25.333 0 38 12.667 38 38c0 30.667 -19.333 46 -58 46c-20 0 -37 -4 -51 -12v34l82 92h42l-69 -80h1z" />
    <glyph glyph-name="uni0644" unicode="&#x644;" horiz-adv-x="675" 
d="M585 54c0 -77.333 -26.333 -138.667 -79 -184c-47.333 -40 -107.666 -60 -180.999 -60c-86.667 0 -153.334 29.667 -200.001 89c-36.667 46 -55 101 -55 165c0 58 14.667 107 44 147l66 15c-32.667 -48 -49 -100.667 -49 -158c0 -58.667 19 -106.667 57 -144
c36 -35.333 81.667 -53 137 -53c64 0 113.667 19.333 149 58c30 32 45 73.667 45 125v556l66 35v-591z" />
    <glyph glyph-name="uni0645" unicode="&#x645;" horiz-adv-x="572" 
d="M186 62c-31.333 40 -47 92.6689 -47 158.002c0 72 18.667 127.667 56 167c32.667 35.333 76 53 130 53c55.333 0 98 -17.333 128 -52c26 -30 39 -70 39 -120v-102c0 -50.667 -15 -90.834 -45 -120.501s-71 -44.834 -123 -45.501h-127c-73.333 0 -110 -38 -110 -114v-166
l-67 -35v203c0 55.333 16.333 98.666 49 129.999c29.333 28.667 68.333 43.334 117 44.001zM425 172.002v90c0 78 -33.333 117 -100 117c-38 0 -67.5 -14 -88.5 -42s-31.5 -66.667 -31.5 -116c0 -50 10 -89 30 -117s47.667 -42 83 -42c71.333 0 107 36.667 107 110z" />
    <glyph glyph-name="uni0646" unicode="&#x646;" horiz-adv-x="669" 
d="M325 448c-27.333 0 -41 14 -41 42c0 26.667 13.667 40 41 40c26 0 39 -13.333 39 -40c0 -28 -13 -42 -39 -42zM579 49c0 -75.333 -25.999 -135.332 -77.999 -179.999c-46 -39.333 -105.667 -59 -179 -59c-84.667 0 -150.334 30 -197.001 90c-36.667 46 -55 101 -55 165
c0 57.333 14.667 106.666 44 147.999l65 13c-32 -48.667 -48 -100.667 -48 -156c0 -58.667 19 -107 57 -145c35.333 -35.333 80 -53 134 -53c63.333 0 112.333 18.667 147 56c28.667 30.667 43 71 43 121v344l67 35v-379z" />
    <glyph glyph-name="uni0647" unicode="&#x647;" horiz-adv-x="512" 
d="M251 0c-59.333 0 -105.667 19.667 -139 59c-28 34 -42 78 -42 132c0 123.333 62 206.333 186 249c124 -42.667 186 -125.667 186 -249c0 -62 -18.333 -110.333 -55 -145c-32 -30.667 -74 -46 -126 -46h-10zM247.999 62l16 -0.000976562c34.667 0 62 11.5 82 34.5
s30 54.5 30 94.5c0 88.667 -40 151.334 -120 188.001c-80 -36.667 -120 -99.334 -120 -188.001c0 -39.333 10 -70.666 30 -93.999s47.333 -35 82 -35z" />
    <glyph glyph-name="uni0648" unicode="&#x648;" horiz-adv-x="493" 
d="M346 37c-28 -16 -63.999 -24.001 -107.999 -24.001c-58 0 -103.333 22.333 -136 67c-28 38 -42 86 -42 144c0 70 18.667 124.667 56 164c32.667 34.667 76 52 130 52c55.333 0 98 -17.333 128 -52c26 -30 39 -70 39 -120v-220c0 -62 -13 -113.167 -39 -153.5
s-63 -66.166 -111 -77.499c-16 -4.66699 -33.333 -7 -52 -7c-38.667 0 -76.334 9.33301 -113.001 28v59c34.667 -18.667 69 -28 103 -28c27.333 0 51.333 6 72 18c46.667 23.333 71 73.333 73 150zM346.001 261.999c0 78 -33.333 117.001 -100 117.001
c-37.333 0 -66.833 -13.667 -88.5 -41s-32.5 -65 -32.5 -113c0 -46.667 10.333 -83.834 31 -111.501s48.667 -41.5 84 -41.5c52.667 0 88 14.667 106 44v146z" />
    <glyph glyph-name="uni0649" unicode="&#x649;" horiz-adv-x="713" 
d="M612 300c-42 48 -88.6689 72 -140.002 72c-28.667 0 -51.334 -8.5 -68.001 -25.5s-25 -40.167 -25 -69.5v-2c0.666992 -30.667 10 -54.667 28 -72s53 -35 105 -53c54.667 -19.333 91.834 -38.666 111.501 -57.999s29.5 -46.666 29.5 -81.999
c0 -59.333 -28.333 -108 -85 -146c-53.333 -36 -122.666 -54 -207.999 -54c-102.667 0 -180 30 -232 90c-38.667 44.667 -58 99.667 -58 165c0 57.333 14.667 106.666 44 147.999l65 13c-32 -48.667 -48 -100.667 -48 -156c0 -60.667 21 -109 63 -145
c40.667 -35.333 96 -53 166 -53c76.667 0 136 16 178 48c32.667 25.333 49 55.333 49 90c0 20.667 -7.33301 37 -22 49s-43.667 25.667 -87 41c-56 20 -95 39.667 -117 59c-31.333 28.667 -47 67.667 -47 117c0 51.333 18.333 91.666 55 120.999
c28.667 22.667 61.334 34 98.001 34c58.667 0 107 -22 145 -66v-65z" />
    <glyph glyph-name="uni064A" unicode="&#x64a;" horiz-adv-x="713" 
d="M612 300c-42 48 -88.6689 72 -140.002 72c-28.667 0 -51.334 -8.5 -68.001 -25.5s-25 -40.167 -25 -69.5v-2c0.666992 -30.667 10 -54.667 28 -72s53 -35 105 -53c54.667 -19.333 91.834 -38.666 111.501 -57.999s29.5 -46.666 29.5 -81.999
c0 -59.333 -28.333 -108 -85 -146c-53.333 -36 -122.666 -54 -207.999 -54c-102.667 0 -180 30 -232 90c-38.667 44.667 -58 99.667 -58 165c0 57.333 14.667 106.666 44 147.999l65 13c-32 -48.667 -48 -100.667 -48 -156c0 -60.667 21 -109 63 -145
c40.667 -35.333 96 -53 166 -53c76.667 0 136 16 178 48c32.667 25.333 49 55.333 49 90c0 20.667 -7.33301 37 -22 49s-43.667 25.667 -87 41c-56 20 -95 39.667 -117 59c-31.333 28.667 -47 67.667 -47 117c0 51.333 18.333 91.666 55 120.999
c28.667 22.667 61.334 34 98.001 34c58.667 0 107 -22 145 -66v-65zM296.998 -355c-27.333 0 -41 13.667 -41 41s13.667 41 41 41c26 0 39 -13.667 39 -41s-13 -41 -39 -41zM410.998 -355c-26.667 0 -40 13.667 -40 41s13.333 41 40 41s40 -13.667 40 -41
s-13.333 -41 -40 -41z" />
    <glyph glyph-name="uni064B" unicode="&#x64b;" 
d="M13 647l23 48l189 34l-23 -48zM0 565l23 48l188 35l-22 -48z" />
    <glyph glyph-name="uni064C" unicode="&#x64c;" 
d="M145 613c-20 12 -30 30.667 -30 56c0 18.667 5.83301 34.5 17.5 47.5s26.167 19.5 43.5 19.5c18 0 32.833 -6.33301 44.5 -19s17.5 -28.667 17.5 -48c0 -28.667 -9.16699 -52.167 -27.5 -70.5s-41.833 -27.5 -70.5 -27.5c-34 0 -60.667 13.333 -80 40l-22 -36l-36 21
l40 65h20c17.333 -32.667 41 -49 71 -49c4 0 8 0.333008 12 1zM181 629c12.667 12 19 25.333 19 40c0 21.333 -8 32 -24 32s-24 -10.667 -24 -32c0 -18.667 9.66699 -32 29 -40z" />
    <glyph glyph-name="uni064D" unicode="&#x64d;" 
d="M13 -176l23 48l189 34l-23 -48zM0 -258l23 48l188 35l-22 -48z" />
    <glyph glyph-name="uni064E" unicode="&#x64e;" 
d="M0 565l23 48l188 35l-22 -48z" />
    <glyph glyph-name="uni064F" unicode="&#x64f;" 
d="M0 565l20.999 44.999l95 18c-12.667 12.667 -19 29.334 -19 50.001c0 19.333 5.83301 35.333 17.5 48s26.167 19 43.5 19c18 0 32.833 -6.33301 44.5 -19s17.5 -28.667 17.5 -48c0 -22 -6.16699 -40.833 -18.5 -56.5s-28.166 -25.167 -47.499 -28.5zM159.999 638.999
c14.667 10 22 23 22 39c0 21.333 -8 32 -24 32s-24 -10.667 -24 -32c0 -16.667 8.66699 -29.667 26 -39z" />
    <glyph glyph-name="uni0650" unicode="&#x650;" 
d="M0 -183l23 48l188 35l-22 -48z" />
    <glyph glyph-name="uni0651" unicode="&#x651;" 
d="M165 671l37.998 21v-69c0 -16.667 -5.66699 -30.5 -17 -41.5s-25.666 -16.5 -42.999 -16.5s-31 5 -41 15c-10.667 -10 -24.667 -15 -42 -15s-31.666 5.5 -42.999 16.5s-17 24.833 -17 41.5v25l38 21v-45c0 -14.667 7.66699 -22 23 -22c14.667 0 22 6.33301 22 19v40
l38 21v-61c0 -12.667 7.33301 -19 22 -19s22 7.33301 22 22v47z" />
    <glyph glyph-name="uni0652" unicode="&#x652;" 
d="M64 704c18.667 -4.66699 33.833 -14.499 45.5 -29.499s17.834 -31.833 18.501 -50.5c0 -41.333 -21.333 -62 -64 -62c-18.667 0 -33.834 5.5 -45.501 16.5s-17.5 25.5 -17.5 43.5c0 18.667 6 35.667 18 51s27 25.666 45 30.999zM63.999 663.001
c-17.333 -4 -26 -16.333 -26 -37c0 -20 8.66699 -30 26 -30c18 0 27 10 27 30c0 20.667 -9 33 -27 37z" />
    <glyph glyph-name="uni0653" unicode="&#x653;" 
d="M224 715c-20 -32 -42.001 -48 -66.001 -48c-15.333 0 -33.333 7 -54 21c-14.667 10 -26 15 -34 15c-12 0 -25.667 -10.667 -41 -32l-26 19c20.667 32.667 42.667 49 66 49c13.333 0 29.333 -6.33301 48 -19c16 -11.333 29.333 -17 40 -17s24.334 10.333 41.001 31z" />
    <glyph glyph-name="uni0654" unicode="&#x654;" 
d="M-1 658l19 35.998h26c-6.66699 12 -10 24 -10 36c0 18.667 7 34.834 21 48.501s30.667 20.5 50 20.5c14.667 0 29 -4.33301 43 -13v-38c-13.333 10 -26.333 15 -39 15c-10.667 0 -19.667 -3.5 -27 -10.5s-11 -15.167 -11 -24.5c0 -11.333 4.66699 -22.666 14 -33.999h88
l-19 -36h-155z" />
    <glyph glyph-name="uni0655" unicode="&#x655;" 
d="M-1 -222l19 35.998h26c-6.66699 12 -10 24.333 -10 37c0 18.667 7 34.834 21 48.501s30.667 20.5 50 20.5c14.667 0 29 -4.66699 43 -14v-38c-13.333 10 -26.333 15 -39 15c-10.667 0 -19.667 -3.33301 -27 -10s-11 -15 -11 -25c0 -11.333 4.66699 -22.666 14 -33.999h88
l-19 -36h-155z" />
    <glyph glyph-name="uni0660" unicode="&#x660;" horiz-adv-x="227" 
d="M114 89l-74 74l74 73l73 -73z" />
    <glyph glyph-name="uni0661" unicode="&#x661;" horiz-adv-x="207" 
d="M70 -15v580h67v-545z" />
    <glyph glyph-name="uni0662" unicode="&#x662;" horiz-adv-x="387" 
d="M65 -15v452c0 40 12 71.333 36 94s57.333 34 100 34h161v-62h-156c-49.333 0 -74 -22.667 -74 -68v-414z" />
    <glyph glyph-name="uni0663" unicode="&#x663;" horiz-adv-x="555" 
d="M461 565l64.001 -0.000976562v-123c0 -35.333 -11.667 -63.666 -35 -84.999s-54.333 -32 -93 -32c-40.667 0 -73.334 11.667 -98.001 35c-23.333 -23.333 -55.333 -35 -96 -35c-23.333 0 -45.333 4.33301 -66 13v-317l-67 -36v580h67v-123c0 -39.333 22 -59 66 -59
c42.667 0 64 19.667 64 59v93h64v-93c0 -39.333 22 -59 66 -59c42.667 0 64 19.667 64 59v123z" />
    <glyph glyph-name="uni0664" unicode="&#x664;" horiz-adv-x="382" 
d="M225 0c-62 0 -110.333 18.998 -145 56.998c-26.667 29.333 -40 64.333 -40 105c0 58.667 27.333 103.334 82 134.001c-46.667 26.667 -70 66.667 -70 120c0 42.667 16.5 78.167 49.5 106.5s74.167 42.5 123.5 42.5h84v-60h-81c-32 0 -58.333 -8.5 -79 -25.5
s-31 -38.833 -31 -65.5c0 -27.333 10.333 -49.666 31 -66.999s47 -26 79 -26h56v-54h-56c-36 0 -65.333 -9.5 -88 -28.5s-34 -43.833 -34 -74.5s11.333 -55.667 34 -75s52 -29 88 -29h92l37 -60h-132z" />
    <glyph glyph-name="uni0665" unicode="&#x665;" horiz-adv-x="433" 
d="M223 491c62 -38.667 109.999 -90.6689 143.999 -156.002c28 -52.667 42 -105.334 42 -158.001c0 -2.66699 -0.333008 -6.66699 -1 -12c-3.33301 -57.333 -21.666 -101 -54.999 -131c-32 -29.333 -75.333 -44 -130 -44c-56 0 -100.5 15.333 -133.5 46
s-50.833 73.334 -53.5 128.001v14c0 58.667 17.167 116.834 51.5 174.501s79.5 103.834 135.5 138.501zM222.999 422.998c-37.333 -27.333 -67.666 -62.333 -90.999 -105s-35 -85.334 -35 -128.001v-3c1.33301 -91.333 43.333 -137 126 -137
c79.333 0 120.666 43.667 123.999 131c0.666992 3.33301 1 6 1 8c0 44 -11.5 87.333 -34.5 130s-53.167 77.334 -90.5 104.001z" />
    <glyph glyph-name="uni0666" unicode="&#x666;" horiz-adv-x="387" 
d="M256 -15v450c0 45.333 -25 68 -75 68h-156v62h161c42.667 0 76 -11.333 100 -34s36 -54 36 -94v-416z" />
    <glyph glyph-name="uni0667" unicode="&#x667;" horiz-adv-x="479" 
d="M188 0l-168 565h71l145 -493h4l148 493h71l-171 -565h-100z" />
    <glyph glyph-name="uni0668" unicode="&#x668;" horiz-adv-x="479" 
d="M20 0l168 565h100l171 -565h-71l-148 494h-4l-145 -494h-71z" />
    <glyph glyph-name="uni0669" unicode="&#x669;" horiz-adv-x="406" 
d="M274 -15v259.001c-26.667 -18.667 -55.334 -28 -86.001 -28c-24 0 -46 5.66699 -66 17c-58 28 -87 81 -87 159c0 58.667 15.333 104.667 46 138c28 30 65.667 45 113 45c46.667 0 82.834 -13.833 108.501 -41.5s38.5 -66.834 38.5 -117.501v-395zM274 417.001
c0 65.333 -27 98.001 -81 98.001c-62 0 -93 -40.667 -93 -122c0 -34 8.33301 -61.333 25 -82s38.667 -31.334 66 -32.001c32 0 59.667 10.667 83 32v106z" />
    <glyph glyph-name="uni066A" unicode="&#x66a;" horiz-adv-x="645" 
d="M437 565h59l-291 -565h-59zM100 489l71 70l69 -70l-69 -70zM405 98l71 70l69 -70l-69 -70z" />
    <glyph glyph-name="uni066D" unicode="&#x66d;" horiz-adv-x="342" 
d="M183 518l1.99707 -3.99707l2 -6c14 -32.667 21 -53.334 21 -62.001c0 -18 -10.667 -27 -32 -27c-20.667 0 -31 9 -31 27c0 11.333 8.66699 36 26 74l-3 -4c-2.66699 -3.33301 -4.66699 -6 -6 -8c-21.333 -28 -35.666 -44 -42.999 -48c-4 -2.66699 -8.33301 -4 -13 -4
c-8 0 -15.333 3.66699 -22 11s-10 15.666 -10 24.999c0 10 4.33301 17.333 13 22c8.66699 6 35.334 11.333 80.001 16c-41.333 4.66699 -68 10 -80 16c-8.66699 4.66699 -13 12.334 -13 23.001c0 6 1.66699 11.667 5 17c8 12.667 17 19 27 19c4 0 8.33301 -1.66699 13 -5
c10.667 -6.66699 27.667 -26.334 51 -59.001c-16.667 38 -25 62.333 -25 73c0 18 10.333 27 31 27c21.333 0 32 -9 32 -27c0 -8.66699 -6.66699 -28 -20 -58l-1 -4c-2 -4 -3.33301 -7 -4 -9c2 2.66699 3.66699 5 5 7c22 29.333 37.667 46.666 47 51.999
c2.66699 1.33301 5.66699 2 9 2c8.66699 0 16.167 -3.5 22.5 -10.5s9.5 -15.5 9.5 -25.5c0 -10.667 -4 -18.334 -12 -23.001c-7.33301 -4 -28 -8.33301 -62 -13l-12 -1l-4 -1c43.333 -4.66699 69.333 -9.66699 78 -15c8 -4.66699 12 -12 12 -22
c0 -9.33301 -3 -17.666 -9 -24.999s-12.667 -11 -20 -11c-4.66699 0 -9.66699 1.33301 -15 4c-9.33301 5.33301 -25.666 24.333 -48.999 57z" />
    <glyph glyph-name="uni066E" unicode="&#x66e;" horiz-adv-x="869" 
d="M252 0c-49.333 0 -88.667 15.5 -118 46.5s-44 72.833 -44 125.5v131l67 35v-158c0 -78.667 36.667 -118 110 -118h335c73.333 0 110 39.333 110 118v213l67 35v-256c0 -56.667 -17.333 -100.667 -52 -132c-30 -26.667 -69.333 -40 -118 -40h-357z" />
    <glyph glyph-name="uni0670" unicode="&#x670;" 
d="M0 687v126l38 21v-126z" />
    <glyph glyph-name="uni067E" unicode="&#x67e;" horiz-adv-x="869" 
d="M252 0c-49.333 0 -88.667 15.5 -118 46.5s-44 72.833 -44 125.5v131l67 35v-158c0 -78.667 36.667 -118 110 -118h335c73.333 0 110 39.333 110 118v213l67 35v-256c0 -56.667 -17.333 -100.667 -52 -132c-30 -26.667 -69.333 -40 -118 -40h-357zM383.999 -187
c-27.333 0 -41 13.333 -41 40c0 28 13.667 42 41 42c26 0 39 -14 39 -42c0 -26.667 -13 -40 -39 -40zM497.999 -187c-27.333 0 -41 13.333 -41 40c0 28 13.667 42 41 42c26 0 39 -14 39 -42c0 -26.667 -13 -40 -39 -40zM439.999 -284c-24.667 0 -37 12.333 -37 37
s12.333 37 37 37c24 0 36 -12.333 36 -37s-12 -37 -36 -37z" />
    <glyph glyph-name="uni06A4" unicode="&#x6a4;" horiz-adv-x="935" 
d="M686 662c-24.667 0 -37 12.667 -37 38c0 24.667 12.333 37 37 37c24 0 36 -12.333 36 -37c0 -25.333 -12 -38 -36 -38zM630 558c-27.333 0 -41 14 -41 42c0 26.667 13.667 40 41 40c26 0 39 -13.333 39 -40c0 -28 -13 -42 -39 -42zM744 558c-27.333 0 -41 14 -41 42
c0 26.667 13.667 40 41 40c26 0 39 -13.333 39 -40c0 -28 -13 -42 -39 -42zM257 0c-54 0 -96.333 17.999 -127 53.999c-26.667 32 -40 73 -40 123v131l67 35v-158c0 -82 38 -123 114 -123h286c-36.667 35.333 -55 88 -55 158c0 72 18.667 127.667 56 167
c32.667 35.333 76 53 130 53c55.333 0 98 -17.333 128 -52c26 -30 39 -70 39 -120v-96c0 -55.333 -17 -98.666 -51 -129.999c-30 -28 -69.667 -42 -119 -42h-428zM788 261.999c0 78 -33.333 117 -100 117c-38 0 -67.5 -14 -88.5 -42s-31.5 -66.667 -31.5 -116
c0 -48 10.333 -86.5 31 -115.5s48 -43.5 82 -43.5c71.333 0 107 38.667 107 116v84z" />
    <glyph glyph-name="uni2002" unicode="&#x2002;" horiz-adv-x="521" 
 />
    <glyph glyph-name="uni2003" unicode="&#x2003;" horiz-adv-x="1042" 
 />
    <glyph glyph-name="uni2004" unicode="&#x2004;" horiz-adv-x="347" 
 />
    <glyph glyph-name="uni2005" unicode="&#x2005;" horiz-adv-x="260" 
 />
    <glyph glyph-name="uni2006" unicode="&#x2006;" horiz-adv-x="69" 
 />
    <glyph glyph-name="uni2007" unicode="&#x2007;" horiz-adv-x="583" 
 />
    <glyph glyph-name="uni2008" unicode="&#x2008;" horiz-adv-x="265" 
 />
    <glyph glyph-name="uni2009" unicode="&#x2009;" horiz-adv-x="130" 
 />
    <glyph glyph-name="uni200A" unicode="&#x200a;" horiz-adv-x="35" 
 />
    <glyph glyph-name="uni2011" unicode="&#x2011;" horiz-adv-x="264" 
d="M264 321v-124h-264v124h264z" />
    <glyph glyph-name="uni2012" unicode="&#x2012;" horiz-adv-x="583" 
d="M528 321v-124h-472v124h472z" />
    <glyph glyph-name="endash" unicode="&#x2013;" horiz-adv-x="381" 
d="M70 171v62h241v-62h-241z" />
    <glyph glyph-name="emdash" unicode="&#x2014;" horiz-adv-x="622" 
d="M70 171v62h482v-62h-482z" />
    <glyph glyph-name="afii00208" unicode="&#x2015;" horiz-adv-x="771" 
d="M771 321v-124h-771v124h771z" />
    <glyph glyph-name="quoteleft" unicode="&#x2018;" horiz-adv-x="229" 
d="M123 547c30 0 45 -15 45 -45v-1v-1c0 -14.667 -4.5 -26.5 -13.5 -35.5s-20.5 -13.5 -34.5 -13.5c-33.333 0 -50 21 -50 63v105l31 12v-84h22z" />
    <glyph glyph-name="quoteright" unicode="&#x2019;" horiz-adv-x="229" 
d="M106 543c-30 0 -45 15 -45 45v2c0 14.667 4.5 26.5 13.5 35.5s20.5 13.5 34.5 13.5c33.333 0 50 -21 50 -63v-105l-31 -12v84h-22z" />
    <glyph glyph-name="quotesinglbase" unicode="&#x201a;" horiz-adv-x="229" 
d="M106 -1c-30 0 -45 15 -45 45v2c0 14 4.5 25.667 13.5 35s20.5 14 34.5 14c33.333 0 50 -21 50 -63v-105l-31 -12v84h-22z" />
    <glyph glyph-name="quotedblleft" unicode="&#x201c;" horiz-adv-x="358" 
d="M123 547c30 0 45 -15 45 -45v-1v-1c0 -14.667 -4.5 -26.5 -13.5 -35.5s-20.5 -13.5 -34.5 -13.5c-33.333 0 -50 21 -50 63v105l31 12v-84h22zM252 547c30 0 45 -15 45 -45v-1v-1c0 -14.667 -4.5 -26.5 -13.5 -35.5s-20.5 -13.5 -34.5 -13.5c-33.333 0 -50 21 -50 63v105
l31 12v-84h22z" />
    <glyph glyph-name="quotedblright" unicode="&#x201d;" horiz-adv-x="359" 
d="M106 543c-30 0 -45 15 -45 45v2c0 14.667 4.5 26.5 13.5 35.5s20.5 13.5 34.5 13.5c33.333 0 50 -21 50 -63v-105l-31 -12v84h-22zM236 543c-30 0 -45 15 -45 45v2c0 14.667 4.5 26.5 13.5 35.5s20.5 13.5 34.5 13.5c33.333 0 50 -21 50 -63v-105l-31 -12v84h-22z" />
    <glyph glyph-name="quotedblbase" unicode="&#x201e;" horiz-adv-x="359" 
d="M106 0c-30 0 -45 15 -45 45v2c0 14 4.5 25.667 13.5 35s20.5 14 34.5 14c33.333 0 50 -21 50 -63v-105l-31 -12v84h-22zM236 0c-30 0 -45 15 -45 45v2c0 14 4.5 25.667 13.5 35s20.5 14 34.5 14c33.333 0 50 -21 50 -63v-105l-31 -12v84h-22z" />
    <glyph glyph-name="dagger" unicode="&#x2020;" horiz-adv-x="412" 
d="M42 399v55h131v179h61v-179h136v-55h-136v-442h-61v442h-131z" />
    <glyph glyph-name="daggerdbl" unicode="&#x2021;" horiz-adv-x="412" 
d="M42 141v55h131v203h-131v55h131v185h61v-185h136v-55h-136v-203h136v-55h-136v-185h-61v185h-131z" />
    <glyph glyph-name="bullet" unicode="&#x2022;" horiz-adv-x="287" 
d="M144 150c-49.333 0 -74 25 -74 75s24.667 75 74 75c48.667 0 73 -25 73 -75s-24.333 -75 -73 -75z" />
    <glyph glyph-name="ellipsis" unicode="&#x2026;" horiz-adv-x="563" 
d="M174 40l0.000976562 -2c0 -28.667 -13.667 -43 -41 -43c-28.667 0 -43 14.667 -43 44c1.33301 27.333 15.666 41 42.999 41s41 -13.333 41 -40zM341.001 40l0.000976562 -2c0 -28.667 -13.667 -43 -41 -43c-28.667 0 -43 14.667 -43 44
c1.33301 27.333 15.666 41 42.999 41s41 -13.333 41 -40zM507.002 40l0.000976562 -2c0 -28.667 -13.667 -43 -41 -43c-28.667 0 -43 14.667 -43 44c1.33301 27.333 15.666 41 42.999 41s41 -13.333 41 -40z" />
    <glyph glyph-name="perthousand" unicode="&#x2030;" horiz-adv-x="1069" 
d="M689 151c0 -51.333 -13.667 -92 -41 -122c-24 -27.333 -54.667 -41 -92 -41c-40 0 -72.167 15 -96.5 45s-36.5 69.333 -36.5 118c0 50 12 89.833 36 119.5s56.333 44.5 97 44.5s73 -15 97 -45s36 -69.667 36 -119zM626 151c0 78.667 -23.333 118 -70 118
c-46 0 -69 -39.333 -69 -118c0 -36 6.16699 -64.5 18.5 -85.5s28.833 -31.5 49.5 -31.5c22 0 39.333 10.5 52 31.5s19 49.5 19 85.5zM312 481c0 -50.667 -13.333 -91.334 -40 -122.001c-24 -26.667 -54.667 -40 -92 -40c-40 0 -72.333 14.833 -97 44.5
s-37 68.834 -37 117.501c0 50 12 89.833 36 119.5s56.667 44.5 98 44.5c40 0 72 -14.833 96 -44.5s36 -69.5 36 -119.5zM249 481c0 79.333 -23 119 -69 119s-69 -39.667 -69 -119c0 -36 6 -64.333 18 -85s28.667 -31 50 -31s38.333 10.333 51 31s19 49 19 85zM1024 151
c0 -51.333 -13.667 -92 -41 -122c-24 -27.333 -54.667 -41 -92 -41c-40 0 -72.167 15 -96.5 45s-36.5 69.333 -36.5 118c0 50 12 89.833 36 119.5s56.333 44.5 97 44.5s73 -15 97 -45s36 -69.667 36 -119zM961 151c0 78.667 -23.333 118 -70 118c-46 0 -69 -39.333 -69 -118
c0 -36 6.16699 -64.5 18.5 -85.5s28.833 -31.5 49.5 -31.5c22 0 39.333 10.5 52 31.5s19 49.5 19 85.5zM565 626l-384 -663h-53l384 663h53z" />
    <glyph glyph-name="guilsinglleft" unicode="&#x2039;" horiz-adv-x="300" 
d="M260 18c-39.333 9.33301 -78.333 33.333 -117 72s-69.667 85.334 -93 140.001c23.333 54 54.333 100.333 93 139s77.667 63 117 73v-60c-62.667 -30.667 -110 -81.334 -142 -152.001c32.667 -71.333 80 -122.333 142 -153v-59z" />
    <glyph glyph-name="guilsinglright" unicode="&#x203a;" horiz-adv-x="300" 
d="M40 18v59c62.667 31.333 110 82.333 142 153c-32 70 -79.333 120.667 -142 152v60c39.333 -10 78.333 -34.5 117 -73.5s69.667 -85.167 93 -138.5c-23.333 -54 -54.333 -100.5 -93 -139.5s-77.667 -63.167 -117 -72.5z" />
    <glyph glyph-name="fraction" unicode="&#x2044;" horiz-adv-x="398" 
d="M20 0l291 565h67l-291 -565h-67z" />
    <glyph glyph-name="Euro" unicode="&#x20ac;" horiz-adv-x="607" 
d="M115 224l-73 -0.000976562v55h65c-0.666992 6.66699 -1 17.334 -1 32.001c0 19.333 0.666992 36 2 50h-66v55h76c17.333 71.333 49 127.666 95 168.999c44.667 40 96.667 60 156 60c68.667 0 129.334 -21 182.001 -63l-30 -43c-44.667 28 -90.667 42 -138 42
c-45.333 0 -84.5 -14.667 -117.5 -44s-55.833 -69.666 -68.5 -120.999h270v-55h-281c-1.33301 -14.667 -2 -32 -2 -52c0 -14 0.333008 -24 1 -30h282v-55h-273c12 -54 35.5 -95.833 70.5 -125.5s78.167 -44.5 129.5 -44.5c48 0 93.667 15.667 137 47l30 -45
c-52 -45.333 -113.333 -68 -184 -68c-72.667 0 -133.334 25 -182.001 75c-40 41.333 -66.667 95 -80 161z" />
    <glyph glyph-name="trademark" unicode="&#x2122;" horiz-adv-x="576" 
d="M25 633h174v-38h-67v-199h-42v199h-65v38zM498 633v-238h-42v178l-58 -178h-48l-58 179v-179h-43v238h63l63 -191l59 191h64z" />
    <glyph glyph-name="Omega" unicode="&#x2126;" horiz-adv-x="603" 
d="M68 0v63h76c-62.667 62 -94 147 -94 255c0 106.667 27.667 190.667 83 252c46 50 101.667 75 167 75c79.333 0 142.333 -32.667 189 -98c42.667 -58.667 64 -135 64 -229c0 -108.667 -31.333 -193.667 -94 -255h83v-63h-185v59l9 4
c31.333 13.333 57.166 44.333 77.499 93s30.5 104.667 30.5 168c0 83.333 -17.667 148.333 -53 195c-30.667 41.333 -71 62 -121 62c-56.667 0 -100.667 -26.667 -132 -80c-27.333 -45.333 -41 -104.333 -41 -177c0 -63.333 10.333 -120 31 -170s46.334 -80.667 77.001 -92
l9 -3v-59h-176z" />
    <glyph glyph-name="partialdiff" unicode="&#x2202;" horiz-adv-x="505" 
d="M114 557l-25 42.001c43.333 30.667 89.333 46 138 46c75.333 0 133.666 -31.667 174.999 -95c35.333 -54.667 53 -125.667 53 -213c0 -97.333 -15.333 -177 -46 -239c-36 -73.333 -90.667 -110 -164 -110c-66 0 -117 25.333 -153 76c-28 38 -42 83 -42 135
c0 63.333 20.333 113.666 61 150.999c34.667 32.667 78.667 49 132 49c58 0 103.333 -21 136 -63v19c0 80.667 -18 140.667 -54 180c-27.333 30.667 -62.666 46 -105.999 46c-36.667 0 -71.667 -8 -105 -24zM376 272.001c-25.333 44 -65.334 66.001 -120.001 66.001
c-84.667 0 -127 -47 -127 -141c0 -44.667 10.333 -80.334 31 -107.001s48.334 -40 83.001 -40c44 0 77.667 24.667 101 74c18 38 28.667 87.333 32 148z" />
    <glyph glyph-name="Delta" unicode="&#x2206;" horiz-adv-x="653" 
d="M545 0h-538l230 633h78zM274 556l-165 -495h336z" />
    <glyph glyph-name="product" unicode="&#x220f;" horiz-adv-x="661" 
d="M571 633v-812h-74v748h-333v-748h-74v812h481z" />
    <glyph glyph-name="summation" unicode="&#x2211;" horiz-adv-x="532" 
d="M283 249l-248 313v72h449v-64h-372l252 -317l-239 -370h372v-62h-448v63z" />
    <glyph glyph-name="minus" unicode="&#x2212;" horiz-adv-x="509" 
d="M467 200h-425v55h425v-55z" />
    <glyph glyph-name="radical" unicode="&#x221a;" horiz-adv-x="588" 
d="M75 317l144 41l70 -276l166 618h77l-201 -700h-85l-72 271l-77 -22z" />
    <glyph glyph-name="infinity" unicode="&#x221e;" horiz-adv-x="573" 
d="M281 180c-21.333 -52 -58.334 -77.9961 -111.001 -77.9961c-36 0 -65.333 11.667 -88 35s-34 53.666 -34 90.999c0 36 11 66.333 33 91s48.667 37 80 37c51.333 0 91 -24.667 119 -74c28.667 50 67.334 75 116.001 75c36.667 0 66.167 -11.833 88.5 -35.5
s33.5 -54.834 33.5 -93.501c0 -36.667 -11.167 -66.834 -33.5 -90.501s-50.833 -35.5 -85.5 -35.5c-27.333 0 -51.833 7.16699 -73.5 21.5s-36.5 33.166 -44.5 56.499zM258.999 227.004c-14.667 44 -44.667 66 -90 66c-20.667 0 -38 -6.16699 -52 -18.5
s-21 -27.833 -21 -46.5c0 -19.333 6.83301 -34.833 20.5 -46.5s31.834 -17.5 54.501 -17.5c39.333 0 68.666 21 87.999 63zM301.999 229.004c16.667 -43.333 49.334 -64.999 98.001 -64.999c20 0 36.833 6.16699 50.5 18.5s20.5 27.166 20.5 44.499
c0 19.333 -6.83301 35.333 -20.5 48s-30.834 19 -51.501 19c-22 0 -42 -6 -60 -18s-30.333 -27.667 -37 -47z" />
    <glyph glyph-name="integral" unicode="&#x222b;" horiz-adv-x="369" 
d="M329 608l-22 -34c-20.667 10.667 -43 16 -67 16c-41.333 0 -62 -25 -62 -75v-582c0 -82.667 -36.333 -124 -109 -124c-38 0 -74.333 12 -109 36l21 35c22 -10.667 44.333 -16 67 -16c42 0 63 25 63 75v582c0 82.667 36.333 124 109 124c38 0 74.333 -12.333 109 -37z" />
    <glyph glyph-name="approxequal" unicode="&#x2248;" horiz-adv-x="483" 
d="M68 91l-26 18c19.333 58.667 52.333 88 99 88c24 0 62 -11.667 114 -35c41.333 -18.667 71 -28 89 -28c31.333 0 54.333 17 69 51l28 -18c-16 -58 -45.333 -87 -88 -87c-22.667 0 -59 10.667 -109 32l-23 10c-31.333 14 -57.333 21 -78 21c-30 0 -55 -17.333 -75 -52z
M68 251l-26 18c19.333 58.667 52.333 88 99 88c24 0 62 -11.667 114 -35c41.333 -18.667 71 -28 89 -28c31.333 0 54.333 17 69 51l28 -18c-16 -58 -45.333 -87 -88 -87c-22.667 0 -59 10.667 -109 32l-23 10c-31.333 14 -57.333 21 -78 21c-30 0 -55 -17.333 -75 -52z" />
    <glyph glyph-name="notequal" unicode="&#x2260;" horiz-adv-x="509" 
d="M155 127h-113v55h147l56 90h-203v55h237l79 127h59l-79 -127h129v-55h-162l-56 -90h218v-55h-252l-79 -127h-60z" />
    <glyph glyph-name="lessequal" unicode="&#x2264;" horiz-adv-x="509" 
d="M93 288l373 -119v-61l-424 142v77l424 152v-61zM467 0h-425v55h425v-55z" />
    <glyph glyph-name="greaterequal" unicode="&#x2265;" horiz-adv-x="509" 
d="M416 288l-373 130v61l424 -152v-77l-424 -142v61zM467 0h-425v55h425v-55z" />
    <glyph glyph-name="uni25CC" unicode="&#x25cc;" horiz-adv-x="428" 
d="M214 645c10 0 15 -5 15 -15s-5 -15 -15 -15s-15 5 -15 15s5 15 15 15zM152 631c10 0 15 -5 15 -15c0 -9.33301 -5 -14 -15 -14s-15 4.66699 -15 14c0 10 5 15 15 15zM276 631c10 0 15 -5 15 -15c0 -9.33301 -5 -14 -15 -14s-15 4.66699 -15 14c0 10 5 15 15 15zM103 598
c10 0 15 -5 15 -15s-5 -15 -15 -15s-15 5 -15 15s5 15 15 15zM326 598c10 0 15 -5 15 -15s-5 -15 -15 -15c-10.667 0 -16 5 -16 15s5.33301 15 16 15zM71 548c9.33301 0 14 -4.66699 14 -14c0 -10 -4.66699 -15 -14 -15c-10 0 -15 5 -15 15c0 9.33301 5 14 15 14zM358 548
c9.33301 0 14 -4.66699 14 -14c0 -10 -4.66699 -15 -14 -15c-10 0 -15 5 -15 15c0 9.33301 5 14 15 14zM60 491c10 0 15 -5.33301 15 -16c0 -9.33301 -5 -14 -15 -14s-15 4.66699 -15 14c0 10.667 5 16 15 16zM369 491c10 0 15 -5.33301 15 -16c0 -9.33301 -5 -14 -15 -14
s-15 4.66699 -15 14c0 10.667 5 16 15 16zM71 432c9.33301 0 14 -5 14 -15c0 -8.66699 -4.66699 -13 -14 -13c-10 0 -15 4.33301 -15 13c0 10 5 15 15 15zM358 432c9.33301 0 14 -5 14 -15c0 -8.66699 -4.66699 -13 -14 -13c-10 0 -15 4.33301 -15 13c0 10 5 15 15 15z
M103 383c10 0 15 -5 15 -15c0 -9.33301 -5 -14 -15 -14s-15 4.66699 -15 14c0 10 5 15 15 15zM326 383c10 0 15 -5 15 -15c0 -9.33301 -5 -14 -15 -14c-10.667 0 -16 4.66699 -16 14c0 10 5.33301 15 16 15zM152 349c10 0 15 -4.33301 15 -13c0 -10.667 -5 -16 -15 -16
s-15 5.33301 -15 16c0 8.66699 5 13 15 13zM276 349c10 0 15 -4.33301 15 -13c0 -10.667 -5 -16 -15 -16s-15 5.33301 -15 16c0 8.66699 5 13 15 13zM214 337c10 0 15 -5.33301 15 -16c0 -10 -5 -15 -15 -15s-15 5 -15 15c0 10.667 5 16 15 16z" />
    <glyph glyph-name="dotcenterar" unicode="&#xe028;" 
d="M41 -10c-27.333 0 -41 14 -41 42c0 26.667 13.667 40 41 40c26 0 39 -13.333 39 -40c0 -28 -13 -42 -39 -42z" />
    <glyph glyph-name="uni066E.fina" unicode="&#xe030;" horiz-adv-x="914" 
d="M889 62h34.999v-62h-43c-60 -0 -105 20.333 -135 61c-31.333 -40.667 -77 -61 -137 -61h-357c-49.333 0 -88.666 15.5 -117.999 46.5s-44 72.833 -44 125.5v131l67 35v-158c0 -78.667 36.667 -118 110 -118h335c73.333 0 110 39.333 110 118v213l67 35v-252
c0 -76 36.667 -114 110 -114z" />
    <glyph glyph-name="rightjoining" unicode="&#xe03d;" horiz-adv-x="146" 
d="M104 0c-57.333 0 -101 18.333 -131 55c-25.333 31.333 -38 71 -38 119v219l67 35v-252c0 -76 36.667 -114 110 -114h35v-62h-43z" />
    <glyph glyph-name="ampersandar" unicode="&#xe03e;" horiz-adv-x="792" 
d="M529 75c-2 -117.333 -63 -175.999 -183 -175.999c-54 0 -100 14.667 -138 44c-72 55.333 -108 137.666 -108 246.999c0 139.333 83.667 253.666 251 342.999c-47.333 36 -71 83 -71 141c0 36.667 11 66.167 33 88.5s51 33.833 87 34.5h4c36 0 64.5 -10.667 85.5 -32
s31.5 -50.333 31.5 -87c0 -54 -28.667 -102.667 -86 -146c171.333 -89.333 257 -207.333 257 -354c0 -105.333 -38 -188 -114 -248v28c46 52.667 69 126 69 220c0 136.667 -84.333 243.334 -253 320.001c-81.333 -36.667 -143.333 -82.667 -186 -138
c-39.333 -52 -59 -109 -59 -171c0 -90 29.667 -159 89 -207c32.667 -24.667 68.667 -37 108 -37c46.667 0 80 9.33301 100 28s30.333 50 31 94c-24 -20.667 -51.667 -31 -83 -31c-38.667 0 -70.5 14.5 -95.5 43.5s-37.5 66.167 -37.5 111.5c0 46 13 83.833 39 113.5
s59.333 44.5 100 44.5s72.667 -11.833 96 -35.5s35 -56.167 35 -97.5zM393 555.001c24 13.333 43.167 30.8311 57.5 52.498s21.5 43.834 21.5 66.501s-6.5 40.667 -19.5 54s-30.167 20 -51.5 20c-48.667 0 -73 -24 -73 -72c0 -47.333 21.667 -87.666 65 -120.999z
M477 208.999c0 60 -25.667 90 -77 90c-25.333 0 -46 -9.83301 -62 -29.5s-24 -45.167 -24 -76.5c0 -30.667 7.5 -56 22.5 -76s34.167 -30 57.5 -30c37.333 0 65 16.667 83 50v72z" />
    </font>
</defs>
</svg>
